SplineFontDB: 3.0
FontName: Oxygen-Bold
FullName: Oxygen Bold
FamilyName: Oxygen
Weight: Bold
Copyright: Copyright (c) 2012, Vernon Adams (vern@newtypography.co.uk), with Reserved Font Names 'Oxygen'
Version: 0.2.3 webfont; ttfautohint (v0.93.3-1d66) -l 8 -r 50 -G 200 -x 0 -w "gGD" -c
ItalicAngle: 0
UnderlinePosition: 0
UnderlineWidth: 0
Ascent: 1638
Descent: 410
sfntRevision: 0x00003333
LayerCount: 2
Layer: 0 1 "Back"  1
Layer: 1 1 "Fore"  0
XUID: [1021 956 322941027 1737211]
FSType: 0
OS2Version: 1
OS2_WeightWidthSlopeOnly: 0
OS2_UseTypoMetrics: 1
CreationTime: 1336132040
ModificationTime: 1392238114
PfmFamily: 17
TTFWeight: 700
TTFWidth: 5
LineGap: 0
VLineGap: 0
OS2TypoAscent: 2103
OS2TypoAOffset: 0
OS2TypoDescent: -483
OS2TypoDOffset: 0
OS2TypoLinegap: 0
OS2WinAscent: 2103
OS2WinAOffset: 0
OS2WinDescent: 483
OS2WinDOffset: 0
HheadAscent: 2103
HheadAOffset: 0
HheadDescent: -483
HheadDOffset: 0
OS2Vendor: 'NeWT'
Lookup: 4 0 1 "'liga' Standard Ligatures lookup 0"  {"'liga' Standard Ligatures lookup 0 subtable"  } ['liga' ('DFLT' <'dflt' > 'grek' <'dflt' > 'latn' <'dflt' > ) ]
Lookup: 258 0 0 "'kern' Horizontal Kerning in Latin lookup 0"  {"'kern' Horizontal Kerning in Latin lookup 0 per glyph data 0"  "'kern' Horizontal Kerning in Latin lookup 0 kerning class 1"  } ['kern' ('DFLT' <'dflt' > 'latn' <'dflt' > ) ]
MarkAttachClasses: 1
DEI: 91125
KernClass2: 30 24 "'kern' Horizontal Kerning in Latin lookup 0 kerning class 1" 
 81 A Agrave Aacute Acircumflex Atilde Adieresis Aring Amacron Abreve Aogonek uni0202
 1 B
 75 D O Q Eth Ograve Oacute Ocircumflex Otilde Odieresis Oslash uni020C uni020E
 1 F
 1 K
 1 L
 1 P
 39 R Racute uni0156 Rcaron uni0210 uni0212
 9 T uni021A
 45 U Ugrave Uacute Ucircumflex Udieresis uni0216
 1 V
 1 W
 18 Y Yacute Ydieresis
 1 a
 69 b o p ograve oacute ocircumflex otilde odieresis oslash thorn uni020F
 1 c
 1 d
 1 e
 1 f
 24 h m n ntilde hbar nacute
 22 k uni0137 kgreenlandic
 1 l
 10 quoteright
 24 r uni0157 rcaron uni0213
 9 t uni021B
 1 v

StartChar: .notdef
Encoding: 65536 -1 0
Width: 748
Flags: W
LayerCount: 2
Fore
SplineSet
136 68 m 1,0,-1
 544 68 l 1,1,-1
 544 1297 l 1,2,-1
 136 1297 l 1,3,-1
 136 68 l 1,0,-1
68 0 m 1,4,-1
 68 1365 l 1,5,-1
 612 1365 l 1,6,-1
 612 0 l 1,7,-1
 68 0 l 1,4,-1
EndSplineSet
EndChar

StartChar: exclam
Encoding: 33 33 4
Width: 446
GlyphClass: 2
Flags: W
LayerCount: 2
Fore
SplineSet
193 449 m 1,0,-1
 108 1162 l 1,1,-1
 108 1458 l 1,2,-1
 349 1458 l 1,3,-1
 349 1162 l 1,4,-1
 259 449 l 1,5,-1
 193 449 l 1,0,-1
224 -18 m 0,6,7
 159 -18 159 -18 114 27 c 128,-1,8
 69 72 69 72 69 134 c 0,9,10
 69 197 69 197 114 243 c 128,-1,11
 159 289 159 289 224 289 c 0,12,13
 288 289 288 289 332.5 243 c 128,-1,14
 377 197 377 197 377 134 c 0,15,16
 377 72 377 72 332.5 27 c 128,-1,17
 288 -18 288 -18 224 -18 c 0,6,7
EndSplineSet
EndChar

StartChar: quotedbl
Encoding: 34 34 5
Width: 784
GlyphClass: 2
Flags: W
LayerCount: 2
Fore
SplineSet
143 955 m 1,0,-1
 108 1470 l 1,1,-1
 332 1470 l 1,2,-1
 302 955 l 1,3,-1
 143 955 l 1,0,-1
487 955 m 1,4,-1
 454 1470 l 1,5,-1
 677 1470 l 1,6,-1
 646 955 l 1,7,-1
 487 955 l 1,4,-1
EndSplineSet
EndChar

StartChar: numbersign
Encoding: 35 35 6
Width: 1192
GlyphClass: 2
Flags: W
LayerCount: 2
Fore
SplineSet
178 -15 m 1,0,-1
 255 404 l 1,1,-1
 53 404 l 1,2,-1
 61 583 l 1,3,-1
 288 583 l 1,4,-1
 343 898 l 1,5,-1
 131 898 l 1,6,-1
 139 1077 l 1,7,-1
 375 1077 l 1,8,-1
 455 1458 l 1,9,-1
 650 1458 l 1,10,-1
 574 1077 l 1,11,-1
 767 1077 l 1,12,-1
 841 1458 l 1,13,-1
 1031 1458 l 1,14,-1
 956 1077 l 1,15,-1
 1137 1077 l 1,16,-1
 1125 899 l 1,17,-1
 923 899 l 1,18,-1
 863 583 l 1,19,-1
 1058 583 l 1,20,-1
 1048 404 l 1,21,-1
 833 404 l 1,22,-1
 753 -15 l 1,23,-1
 557 -15 l 1,24,-1
 636 404 l 1,25,-1
 446 404 l 1,26,-1
 367 -15 l 1,27,-1
 178 -15 l 1,0,-1
478 583 m 1,28,-1
 672 583 l 1,29,-1
 733 899 l 1,30,-1
 540 899 l 1,31,-1
 478 583 l 1,28,-1
EndSplineSet
EndChar

StartChar: dollar
Encoding: 36 36 7
Width: 1194
GlyphClass: 2
Flags: W
LayerCount: 2
Fore
SplineSet
558 -212 m 1,0,-1
 556 -20 l 1,1,2
 301 -17 301 -17 94 102 c 1,3,-1
 160 317 l 1,4,5
 358 208 358 208 558 202 c 1,6,-1
 558 636 l 1,7,8
 438 671 438 671 396 688 c 0,9,10
 101 792 101 792 101 1076 c 0,11,12
 101 1261 101 1261 225 1368 c 128,-1,13
 349 1475 349 1475 558 1489 c 1,14,-1
 558 1643 l 1,15,-1
 656 1643 l 1,16,-1
 656 1491 l 1,17,18
 896 1484 896 1484 1075 1382 c 1,19,-1
 993 1184 l 1,20,21
 813 1265 813 1265 656 1271 c 1,22,-1
 656 878 l 1,23,24
 664 875 664 875 680 870 c 128,-1,25
 696 865 696 865 715.5 859 c 128,-1,26
 735 853 735 853 742 851 c 0,27,28
 943 785 943 785 1029.5 687 c 128,-1,29
 1116 589 1116 589 1116 414 c 0,30,31
 1116 225 1116 225 993 114 c 128,-1,32
 870 3 870 3 656 -16 c 1,33,-1
 656 -212 l 1,34,-1
 558 -212 l 1,0,-1
558 911 m 1,35,-1
 558 1267 l 1,36,37
 473 1256 473 1256 429 1213 c 128,-1,38
 385 1170 385 1170 381 1088 c 1,39,40
 381 966 381 966 502 929 c 0,41,42
 516 924 516 924 558 911 c 1,35,-1
656 208 m 1,43,44
 841 238 841 238 841 416 c 0,45,46
 841 544 841 544 686 596 c 0,47,48
 683 598 683 598 670.5 601.5 c 128,-1,49
 658 605 658 605 656 606 c 2,50,-1
 656 208 l 1,43,44
EndSplineSet
EndChar

StartChar: percent
Encoding: 37 37 8
Width: 1790
GlyphClass: 2
Flags: W
LayerCount: 2
Fore
SplineSet
407 836 m 0,0,1
 494 836 494 836 538.5 901 c 128,-1,2
 583 966 583 966 583 1069 c 0,3,4
 583 1174 583 1174 538.5 1239 c 128,-1,5
 494 1304 494 1304 408 1304 c 128,-1,6
 322 1304 322 1304 278 1238 c 128,-1,7
 234 1172 234 1172 234 1067 c 128,-1,8
 234 962 234 962 277.5 899 c 128,-1,9
 321 836 321 836 407 836 c 0,0,1
404 677 m 0,10,11
 241 677 241 677 147.5 787 c 128,-1,12
 54 897 54 897 54 1067 c 128,-1,13
 54 1237 54 1237 150.5 1349 c 128,-1,14
 247 1461 247 1461 409 1461 c 0,15,16
 578 1461 578 1461 675 1351 c 128,-1,17
 772 1241 772 1241 772 1070 c 0,18,19
 772 901 772 901 671 789 c 128,-1,20
 570 677 570 677 404 677 c 0,10,11
307 -32 m 1,21,-1
 1208 1450 l 1,22,-1
 1428 1449 l 1,23,-1
 520 -32 l 1,24,-1
 307 -32 l 1,21,-1
1382 142 m 0,25,26
 1472 142 1472 142 1517.5 207.5 c 128,-1,27
 1563 273 1563 273 1563 377 c 128,-1,28
 1563 481 1563 481 1514.5 544.5 c 128,-1,29
 1466 608 1466 608 1370 608 c 128,-1,30
 1274 608 1274 608 1236 545 c 128,-1,31
 1198 482 1198 482 1198 372 c 0,32,33
 1198 268 1198 268 1244.5 205 c 128,-1,34
 1291 142 1291 142 1382 142 c 0,25,26
1379 -17 m 0,35,36
 1207 -17 1207 -17 1107.5 93.5 c 128,-1,37
 1008 204 1008 204 1008 372 c 0,38,39
 1008 766 1008 766 1371 766 c 0,40,41
 1550 766 1550 766 1645.5 657.5 c 128,-1,42
 1741 549 1741 549 1741 376 c 0,43,44
 1741 207 1741 207 1643.5 95 c 128,-1,45
 1546 -17 1546 -17 1379 -17 c 0,35,36
EndSplineSet
EndChar

StartChar: ampersand
Encoding: 38 38 9
Width: 1436
GlyphClass: 2
Flags: W
LayerCount: 2
Fore
SplineSet
580 -23 m 0,0,1
 474 -23 474 -23 382.5 2 c 128,-1,2
 291 27 291 27 217 76.5 c 128,-1,3
 143 126 143 126 100.5 210 c 128,-1,4
 58 294 58 294 58 404 c 0,5,6
 58 468 58 468 77 524 c 128,-1,7
 96 580 96 580 125.5 621.5 c 128,-1,8
 155 663 155 663 201.5 703 c 128,-1,9
 248 743 248 743 292 771 c 128,-1,10
 336 799 336 799 395 831 c 1,11,12
 354 877 354 877 332 904.5 c 128,-1,13
 310 932 310 932 282.5 975 c 128,-1,14
 255 1018 255 1018 242.5 1060.5 c 128,-1,15
 230 1103 230 1103 230 1150 c 0,16,17
 230 1260 230 1260 284 1337.5 c 128,-1,18
 338 1415 338 1415 422.5 1450 c 128,-1,19
 507 1485 507 1485 612 1485 c 0,20,21
 686 1485 686 1485 754.5 1466.5 c 128,-1,22
 823 1448 823 1448 881 1411 c 128,-1,23
 939 1374 939 1374 974 1311.5 c 128,-1,24
 1009 1249 1009 1249 1009 1168 c 0,25,26
 1009 1100 1009 1100 982 1040.5 c 128,-1,27
 955 981 955 981 905.5 934 c 128,-1,28
 856 887 856 887 804.5 853 c 128,-1,29
 753 819 753 819 687 786 c 1,30,-1
 1037 404 l 1,31,32
 1118 492 1118 492 1191 634 c 1,33,-1
 1361 521 l 1,34,35
 1283 370 1283 370 1181 256 c 1,36,-1
 1388 37 l 1,37,38
 1381 35 1381 35 1282.5 10.5 c 128,-1,39
 1184 -14 1184 -14 1178 -16 c 1,40,-1
 1036 133 l 1,41,42
 831 -23 831 -23 580 -23 c 0,0,1
587 168 m 0,43,44
 673 168 673 168 755 196.5 c 128,-1,45
 837 225 837 225 899 276 c 1,46,47
 880 296 880 296 703 488.5 c 128,-1,48
 526 681 526 681 508 701 c 1,49,50
 466 677 466 677 439.5 660.5 c 128,-1,51
 413 644 413 644 381 617.5 c 128,-1,52
 349 591 349 591 331.5 565.5 c 128,-1,53
 314 540 314 540 301.5 504 c 128,-1,54
 289 468 289 468 289 426 c 0,55,56
 289 299 289 299 372 233.5 c 128,-1,57
 455 168 455 168 587 168 c 0,43,44
571 924 m 1,58,59
 618 949 618 949 648.5 969 c 128,-1,60
 679 989 679 989 713 1019 c 128,-1,61
 747 1049 747 1049 764 1086 c 128,-1,62
 781 1123 781 1123 781 1166 c 0,63,64
 781 1239 781 1239 736 1277 c 128,-1,65
 691 1315 691 1315 619 1315 c 0,66,67
 542 1315 542 1315 496.5 1276 c 128,-1,68
 451 1237 451 1237 451 1160 c 0,69,70
 451 1048 451 1048 571 924 c 1,58,59
EndSplineSet
EndChar

StartChar: quotesingle
Encoding: 39 39 10
Width: 440
GlyphClass: 2
Flags: W
LayerCount: 2
Fore
SplineSet
140 929 m 1,0,-1
 105 1464 l 1,1,-1
 319 1464 l 1,2,-1
 292 929 l 1,3,-1
 140 929 l 1,0,-1
EndSplineSet
EndChar

StartChar: parenleft
Encoding: 40 40 11
Width: 650
GlyphClass: 2
Flags: W
LayerCount: 2
Fore
SplineSet
376 -276 m 1,0,1
 93 111 93 111 93 597 c 0,2,3
 93 1093 93 1093 375 1488 c 1,4,-1
 611 1488 l 1,5,6
 511 1345 511 1345 426 1094.5 c 128,-1,7
 341 844 341 844 341 599 c 0,8,9
 341 359 341 359 426.5 111 c 128,-1,10
 512 -137 512 -137 610 -276 c 1,11,-1
 376 -276 l 1,0,1
EndSplineSet
EndChar

StartChar: parenright
Encoding: 41 41 12
Width: 650
GlyphClass: 2
Flags: W
LayerCount: 2
Fore
SplineSet
41 -276 m 1,0,1
 101 -190 101 -190 159 -60.5 c 128,-1,2
 217 69 217 69 263 251.5 c 128,-1,3
 309 434 309 434 309 599 c 0,4,5
 309 843 309 843 224.5 1093.5 c 128,-1,6
 140 1344 140 1344 40 1488 c 1,7,-1
 275 1488 l 1,8,9
 558 1089 558 1089 558 597 c 0,10,11
 558 113 558 113 274 -276 c 1,12,-1
 41 -276 l 1,0,1
EndSplineSet
EndChar

StartChar: asterisk
Encoding: 42 42 13
Width: 1104
GlyphClass: 2
Flags: W
LayerCount: 2
Fore
SplineSet
375 562 m 1,0,-1
 171 676 l 1,1,-1
 413 982 l 1,2,-1
 71 1059 l 1,3,-1
 135 1266 l 1,4,-1
 472 1133 l 1,5,-1
 437 1504 l 1,6,-1
 665 1504 l 1,7,-1
 630 1133 l 1,8,-1
 971 1262 l 1,9,-1
 1032 1054 l 1,10,-1
 688 982 l 1,11,12
 693 975 693 975 807.5 833 c 128,-1,13
 922 691 922 691 933 676 c 1,14,15
 927 672 927 672 832.5 619 c 128,-1,16
 738 566 738 566 731 562 c 1,17,-1
 549 885 l 1,18,-1
 375 562 l 1,0,-1
EndSplineSet
EndChar

StartChar: plus
Encoding: 43 43 14
Width: 1180
GlyphClass: 2
Flags: W
LayerCount: 2
Fore
SplineSet
492 146 m 1,0,-1
 492 554 l 1,1,-1
 83 554 l 1,2,-1
 83 745 l 1,3,-1
 493 745 l 1,4,-1
 493 1153 l 1,5,-1
 691 1153 l 1,6,-1
 691 745 l 1,7,-1
 1098 745 l 1,8,-1
 1098 554 l 1,9,-1
 690 554 l 1,10,-1
 690 146 l 1,11,-1
 492 146 l 1,0,-1
EndSplineSet
EndChar

StartChar: comma
Encoding: 44 44 15
Width: 508
GlyphClass: 2
Flags: W
LayerCount: 2
Fore
SplineSet
64 -283 m 1,0,1
 121 -6 121 -6 158 232 c 1,2,-1
 402 232 l 1,3,-1
 399 183 l 1,4,5
 334 -43 334 -43 241 -283 c 1,6,-1
 64 -283 l 1,0,1
EndSplineSet
EndChar

StartChar: hyphen
Encoding: 45 45 16
Width: 677
GlyphClass: 2
Flags: W
LayerCount: 2
Fore
SplineSet
70 445 m 1,0,-1
 70 649 l 1,1,-1
 606 649 l 1,2,-1
 606 445 l 1,3,-1
 70 445 l 1,0,-1
EndSplineSet
EndChar

StartChar: period
Encoding: 46 46 17
Width: 473
GlyphClass: 2
Flags: W
LayerCount: 2
Fore
SplineSet
245 -18 m 0,0,1
 180 -18 180 -18 135 27 c 128,-1,2
 90 72 90 72 90 134 c 0,3,4
 90 197 90 197 134.5 243 c 128,-1,5
 179 289 179 289 245 289 c 0,6,7
 309 289 309 289 353 243 c 128,-1,8
 397 197 397 197 397 134 c 0,9,10
 397 72 397 72 353 27 c 128,-1,11
 309 -18 309 -18 245 -18 c 0,0,1
EndSplineSet
EndChar

StartChar: slash
Encoding: 47 47 18
Width: 949
GlyphClass: 2
Flags: W
LayerCount: 2
Fore
SplineSet
52 -189 m 1,0,-1
 674 1489 l 1,1,-1
 892 1489 l 1,2,-1
 265 -189 l 1,3,-1
 52 -189 l 1,0,-1
EndSplineSet
EndChar

StartChar: zero
Encoding: 48 48 19
Width: 1296
GlyphClass: 2
Flags: W
LayerCount: 2
Fore
SplineSet
649 187 m 128,-1,1
 729 187 729 187 785.5 233 c 128,-1,2
 842 279 842 279 871.5 360.5 c 128,-1,3
 901 442 901 442 914 534.5 c 128,-1,4
 927 627 927 627 927 740 c 0,5,6
 927 1282 927 1282 649 1282 c 0,7,8
 373 1282 373 1282 369 744 c 0,9,10
 369 630 369 630 382 537 c 128,-1,11
 395 444 395 444 425 361.5 c 128,-1,12
 455 279 455 279 512 233 c 128,-1,0
 569 187 569 187 649 187 c 128,-1,1
649 -21 m 128,-1,14
 530 -21 530 -21 435 19.5 c 128,-1,15
 340 60 340 60 278 129.5 c 128,-1,16
 216 199 216 199 174.5 296 c 128,-1,17
 133 393 133 393 115.5 501 c 128,-1,18
 98 609 98 609 98 732 c 0,19,20
 98 857 98 857 116 966.5 c 128,-1,21
 134 1076 134 1076 176 1173.5 c 128,-1,22
 218 1271 218 1271 280.5 1340 c 128,-1,23
 343 1409 343 1409 437 1449.5 c 128,-1,24
 531 1490 531 1490 649 1490 c 128,-1,25
 767 1490 767 1490 861 1449.5 c 128,-1,26
 955 1409 955 1409 1017 1339.5 c 128,-1,27
 1079 1270 1079 1270 1120.5 1172.5 c 128,-1,28
 1162 1075 1162 1075 1180 966 c 128,-1,29
 1198 857 1198 857 1198 732 c 0,30,31
 1198 609 1198 609 1180.5 501 c 128,-1,32
 1163 393 1163 393 1122 295.5 c 128,-1,33
 1081 198 1081 198 1019 129 c 128,-1,34
 957 60 957 60 862.5 19.5 c 128,-1,13
 768 -21 768 -21 649 -21 c 128,-1,14
EndSplineSet
EndChar

StartChar: one
Encoding: 49 49 20
Width: 686
GlyphClass: 2
Flags: W
LayerCount: 2
Fore
SplineSet
303 1 m 1,0,-1
 303 1226 l 5,1,2
 289 1217 289 1217 173.5 1168.5 c 132,-1,3
 58 1120 58 1120 43 1116 c 5,4,-1
 43 1316 l 5,5,6
 67 1327 67 1327 195 1391.5 c 132,-1,7
 323 1456 323 1456 336 1465 c 5,8,-1
 556 1465 l 5,9,-1
 556 1 l 1,10,-1
 303 1 l 1,0,-1
EndSplineSet
EndChar

StartChar: two
Encoding: 50 50 21
Width: 1054
GlyphClass: 2
Flags: W
LayerCount: 2
Fore
SplineSet
85 0 m 1,0,-1
 79 216 l 1,1,-1
 542 736 l 6,2,3
 632.809243028 837.435856574 632.809243028 837.435856574 667.5 905.5 c 4,4,5
 707 983 707 983 707 1069 c 4,6,7
 707 1164 707 1164 645 1220.5 c 132,-1,8
 583 1277 583 1277 482 1277 c 4,9,10
 389 1277 389 1277 298.5 1242.5 c 132,-1,11
 208 1208 208 1208 150 1156 c 5,12,-1
 75 1354 l 5,13,14
 225 1486 225 1486 497 1486 c 4,15,16
 713 1486 713 1486 844.5 1377.5 c 132,-1,17
 976 1269 976 1269 976 1071 c 4,18,19
 976 931 976 931 901.5 804 c 4,20,21
 828.46463114 679.790189013 828.46463114 679.790189013 698 543 c 6,22,-1
 368 197 l 1,23,-1
 959 197 l 1,24,-1
 941 0 l 1,25,-1
 85 0 l 1,0,-1
EndSplineSet
EndChar

StartChar: three
Encoding: 51 51 22
Width: 1078
GlyphClass: 2
Flags: W
LayerCount: 2
Fore
SplineSet
485 -21 m 0,0,1
 356 -21 356 -21 242.5 12.5 c 128,-1,2
 129 46 129 46 63 103 c 1,3,-1
 135 292 l 1,4,5
 190 246 190 246 287 216.5 c 128,-1,6
 384 187 384 187 486 187 c 0,7,8
 601 187 601 187 671.5 249 c 128,-1,9
 742 311 742 311 742 411 c 0,10,11
 742 473 742 473 722.5 518 c 128,-1,12
 703 563 703 563 671 590 c 128,-1,13
 639 617 639 617 585.5 633.5 c 128,-1,14
 532 650 532 650 476 656 c 128,-1,15
 420 662 420 662 341 663 c 0,16,17
 338 663 338 663 312 663.5 c 128,-1,18
 286 664 286 664 283 664 c 2,19,-1
 283 866 l 1,20,-1
 339 866 l 2,21,22
 426 866 426 866 488.5 875 c 128,-1,23
 551 884 551 884 604.5 906 c 128,-1,24
 658 928 658 928 685.5 971 c 128,-1,25
 713 1014 713 1014 713 1077 c 0,26,27
 713 1158 713 1158 649 1218 c 128,-1,28
 585 1278 585 1278 469 1278 c 0,29,30
 281 1278 281 1278 134 1184 c 1,31,-1
 62 1374 l 1,32,33
 244 1486 244 1486 494 1486 c 0,34,35
 703 1486 703 1486 835.5 1376 c 128,-1,36
 968 1266 968 1266 968 1098 c 0,37,38
 968 978 968 978 906.5 893.5 c 128,-1,39
 845 809 845 809 728 770 c 1,40,41
 862 744 862 744 935.5 641 c 128,-1,42
 1009 538 1009 538 1009 398 c 0,43,44
 1009 265 1009 265 938 168.5 c 128,-1,45
 867 72 867 72 750 25.5 c 128,-1,46
 633 -21 633 -21 485 -21 c 0,0,1
EndSplineSet
EndChar

StartChar: four
Encoding: 52 52 23
Width: 1253
GlyphClass: 2
Flags: W
LayerCount: 2
Fore
SplineSet
753 0 m 1,0,-1
 753 325 l 1,1,-1
 92 325 l 1,2,-1
 92 503 l 1,3,-1
 685 1465 l 5,4,-1
 1018 1465 l 5,5,-1
 1018 523 l 1,6,-1
 1198 523 l 1,7,-1
 1185 325 l 1,8,-1
 1018 325 l 1,9,-1
 1018 0 l 1,10,-1
 753 0 l 1,0,-1
352 522 m 1,11,-1
 753 522 l 1,12,-1
 753 1209 l 5,13,-1
 352 522 l 1,11,-1
EndSplineSet
EndChar

StartChar: five
Encoding: 53 53 24
Width: 1138
GlyphClass: 2
Flags: W
LayerCount: 2
Fore
SplineSet
542 -21 m 0,0,1
 443 -21 443 -21 338 11.5 c 128,-1,2
 233 44 233 44 178 73.5 c 128,-1,3
 123 103 123 103 105 119 c 1,4,-1
 185 307 l 1,5,6
 204 292 204 292 240.5 269.5 c 128,-1,7
 277 247 277 247 358.5 218 c 128,-1,8
 440 189 440 189 515 189 c 0,9,10
 655 189 655 189 727 267 c 128,-1,11
 799 345 799 345 799 471 c 0,12,13
 799 590 799 590 733.5 662 c 128,-1,14
 668 734 668 734 564 734 c 0,15,16
 440 734 440 734 342 626 c 1,17,-1
 167 660 l 1,18,-1
 205 1465 l 1,19,-1
 1001 1465 l 1,20,-1
 986 1259 l 1,21,-1
 437 1259 l 1,22,23
 423 890 l 5,24,25
 511 937 511 937 608 937 c 0,26,27
 810 937 810 937 933.5 807 c 128,-1,28
 1057 677 1057 677 1057 468 c 0,29,30
 1057 246 1057 246 921.5 112.5 c 128,-1,31
 786 -21 786 -21 542 -21 c 0,0,1
EndSplineSet
EndChar

StartChar: six
Encoding: 54 54 25
Width: 1205
GlyphClass: 2
Flags: W
LayerCount: 2
Fore
SplineSet
615 -21 m 0,0,1
 371 -21 371 -21 218 112 c 128,-1,2
 65 245 65 245 65 463 c 0,3,4
 65 533 65 533 80 597 c 128,-1,5
 95 661 95 661 126 722 c 128,-1,6
 157 783 157 783 188 830 c 0,7,8
 233.074470232 898.091220989 233.074470232 898.091220989 268 942 c 2,9,-1
 684 1465 l 5,10,-1
 994 1465 l 5,11,-1
 540 894 l 1,12,13
 613 919 613 919 662 919 c 0,14,15
 877 919 877 919 1014 790.5 c 128,-1,16
 1151 662 1151 662 1151 456 c 0,17,18
 1151 242 1151 242 1001 110.5 c 128,-1,19
 851 -21 851 -21 615 -21 c 0,0,1
603 179 m 0,20,21
 735 179 735 179 809.5 254.5 c 128,-1,22
 884 330 884 330 884 453 c 0,23,24
 884 582 884 582 814 656.5 c 128,-1,25
 744 731 744 731 606 731 c 0,26,27
 466 731 466 731 400 656 c 128,-1,28
 334 581 334 581 334 451 c 0,29,30
 334 328 334 328 404 253.5 c 128,-1,31
 474 179 474 179 603 179 c 0,20,21
EndSplineSet
EndChar

StartChar: seven
Encoding: 55 55 26
Width: 1036
GlyphClass: 2
Flags: W
LayerCount: 2
Fore
SplineSet
237 0 m 1,0,-1
 679 1264 l 5,1,-1
 75 1264 l 5,2,-1
 77 1465 l 5,3,-1
 977 1465 l 5,4,-1
 977 1308 l 5,5,-1
 505 0 l 1,6,-1
 237 0 l 1,0,-1
EndSplineSet
EndChar

StartChar: eight
Encoding: 56 56 27
Width: 1151
GlyphClass: 2
Flags: W
LayerCount: 2
Fore
SplineSet
578 -21 m 0,0,1
 435 -21 435 -21 320.5 24.5 c 128,-1,2
 206 70 206 70 135 164.5 c 128,-1,3
 64 259 64 259 64 389 c 0,4,5
 64 652 64 652 323 767 c 1,6,7
 92 877 92 877 92 1107 c 4,8,9
 92 1199 92 1199 130 1272 c 132,-1,10
 168 1345 168 1345 234.5 1391.5 c 132,-1,11
 301 1438 301 1438 388.5 1462 c 132,-1,12
 476 1486 476 1486 578 1486 c 4,13,14
 790 1486 790 1486 926.5 1387 c 132,-1,15
 1063 1288 1063 1288 1063 1107 c 4,16,17
 1063 880 1063 880 849 767 c 1,18,19
 1090 650 1090 650 1090 388 c 0,20,21
 1090 258 1090 258 1019.5 163.5 c 128,-1,22
 949 69 949 69 834.5 24 c 128,-1,23
 720 -21 720 -21 578 -21 c 0,0,1
578 161 m 128,-1,25
 704 161 704 161 775 222 c 128,-1,26
 846 283 846 283 846 394 c 0,27,28
 846 504 846 504 772 576 c 128,-1,29
 698 648 698 648 578 679 c 1,30,31
 455 648 455 648 381.5 576 c 128,-1,32
 308 504 308 504 308 393 c 0,33,34
 308 283 308 283 380 222 c 128,-1,24
 452 161 452 161 578 161 c 128,-1,25
578 835 m 1,35,36
 705 863 705 863 767 928.5 c 4,37,38
 833 998 833 998 833 1106 c 4,39,40
 833 1196 833 1196 761 1251 c 132,-1,41
 689 1306 689 1306 578 1306 c 4,42,43
 468 1306 468 1306 395 1251 c 132,-1,44
 322 1196 322 1196 322 1106 c 4,45,46
 322 1000 322 1000 390 928 c 4,47,48
 454 858 454 858 578 835 c 1,35,36
EndSplineSet
EndChar

StartChar: nine
Encoding: 57 57 28
Width: 1215
GlyphClass: 2
Flags: W
LayerCount: 2
Fore
SplineSet
243 0 m 1,0,-1
 687 574 l 1,1,2
 620 551 620 551 568 551 c 0,3,4
 353 551 353 551 217.5 680.5 c 128,-1,5
 82 810 82 810 82 1016 c 0,6,7
 82 1230 82 1230 230.5 1358 c 128,-1,8
 379 1486 379 1486 616 1486 c 0,9,10
 861 1486 861 1486 1013 1354.5 c 128,-1,11
 1165 1223 1165 1223 1165 1005 c 0,12,13
 1165 879 1165 879 1117 776 c 0,14,15
 1066.79300292 665.741496599 1066.79300292 665.741496599 976 546 c 2,16,-1
 562 0 l 1,17,-1
 243 0 l 1,0,-1
624 735 m 0,18,19
 763 735 763 735 829.5 812 c 128,-1,20
 896 889 896 889 896 1020 c 0,21,22
 896 1143 896 1143 827 1215 c 128,-1,23
 758 1287 758 1287 629 1287 c 0,24,25
 496 1287 496 1287 420.5 1212 c 128,-1,26
 345 1137 345 1137 345 1015 c 0,27,28
 345 885 345 885 415.5 810 c 128,-1,29
 486 735 486 735 624 735 c 0,18,19
EndSplineSet
EndChar

StartChar: colon
Encoding: 58 58 29
Width: 460
GlyphClass: 2
Flags: W
LayerCount: 2
Fore
SplineSet
100 -6 m 1,0,-1
 100 259 l 1,1,-1
 365 259 l 1,2,-1
 365 -6 l 1,3,-1
 100 -6 l 1,0,-1
100 841 m 1,4,-1
 100 1106 l 1,5,-1
 365 1106 l 1,6,-1
 365 841 l 1,7,-1
 100 841 l 1,4,-1
EndSplineSet
EndChar

StartChar: semicolon
Encoding: 59 59 30
Width: 448
GlyphClass: 2
Flags: W
LayerCount: 2
Fore
SplineSet
107 -322 m 1,0,-1
 163 246 l 1,1,-1
 389 246 l 1,2,-1
 265 -322 l 1,3,-1
 107 -322 l 1,0,-1
125 841 m 1,4,-1
 125 1105 l 1,5,-1
 389 1105 l 1,6,-1
 389 841 l 1,7,-1
 125 841 l 1,4,-1
EndSplineSet
EndChar

StartChar: less
Encoding: 60 60 31
Width: 1196
GlyphClass: 2
Flags: W
LayerCount: 2
Fore
SplineSet
1081 196 m 1,0,-1
 115 645 l 1,1,-1
 115 769 l 1,2,-1
 1082 1251 l 1,3,-1
 1082 1045 l 1,4,-1
 377 712 l 1,5,-1
 1081 401 l 1,6,-1
 1081 196 l 1,0,-1
EndSplineSet
EndChar

StartChar: equal
Encoding: 61 61 32
Width: 1202
GlyphClass: 2
Flags: W
LayerCount: 2
Fore
SplineSet
93 357 m 1,0,-1
 93 548 l 1,1,-1
 1111 548 l 1,2,-1
 1111 357 l 1,3,-1
 93 357 l 1,0,-1
93 754 m 1,4,-1
 93 947 l 1,5,-1
 1111 947 l 1,6,-1
 1111 754 l 1,7,-1
 93 754 l 1,4,-1
EndSplineSet
EndChar

StartChar: greater
Encoding: 62 62 33
Width: 1196
GlyphClass: 2
Flags: W
LayerCount: 2
Fore
SplineSet
119 197 m 1,0,-1
 119 403 l 1,1,-1
 823 712 l 1,2,-1
 119 1047 l 1,3,-1
 119 1253 l 1,4,-1
 1086 769 l 1,5,-1
 1086 645 l 1,6,-1
 119 197 l 1,0,-1
EndSplineSet
EndChar

StartChar: question
Encoding: 63 63 34
Width: 887
GlyphClass: 2
Flags: W
LayerCount: 2
Fore
SplineSet
323 448 m 1,0,1
 333 527 333 527 366 608 c 128,-1,2
 399 689 399 689 438.5 754 c 128,-1,3
 478 819 478 819 516.5 880 c 128,-1,4
 555 941 555 941 580.5 1001.5 c 128,-1,5
 606 1062 606 1062 606 1113 c 0,6,7
 605 1201 605 1201 550.5 1252 c 128,-1,8
 496 1303 496 1303 399 1303 c 0,9,10
 337 1303 337 1303 279 1287.5 c 128,-1,11
 221 1272 221 1272 190.5 1257 c 128,-1,12
 160 1242 160 1242 121 1218 c 1,13,-1
 51 1384 l 1,14,15
 133 1437 133 1437 221 1463.5 c 128,-1,16
 309 1490 309 1490 427 1490 c 0,17,18
 498 1490 498 1490 565.5 1468.5 c 128,-1,19
 633 1447 633 1447 689.5 1406.5 c 128,-1,20
 746 1366 746 1366 780.5 1299 c 128,-1,21
 815 1232 815 1232 815 1148 c 0,22,23
 815 1080 815 1080 791 1014 c 128,-1,24
 767 948 767 948 725 884 c 128,-1,25
 683 820 683 820 636.5 759 c 128,-1,26
 590 698 590 698 532.5 613.5 c 128,-1,27
 475 529 475 529 434 448 c 1,28,-1
 323 448 l 1,0,1
376 -18 m 0,29,30
 311 -18 311 -18 266 27 c 128,-1,31
 221 72 221 72 221 134 c 0,32,33
 221 197 221 197 266 243 c 128,-1,34
 311 289 311 289 376 289 c 0,35,36
 440 289 440 289 484 243 c 128,-1,37
 528 197 528 197 528 134 c 0,38,39
 528 72 528 72 484 27 c 128,-1,40
 440 -18 440 -18 376 -18 c 0,29,30
EndSplineSet
EndChar

StartChar: at
Encoding: 64 64 35
Width: 1699
GlyphClass: 2
Flags: W
LayerCount: 2
Fore
SplineSet
891 -205 m 0,0,1
 650 -205 650 -205 463.5 -108 c 128,-1,2
 277 -11 277 -11 172.5 170.5 c 128,-1,3
 68 352 68 352 68 590 c 0,4,5
 68 761 68 761 130.5 911.5 c 128,-1,6
 193 1062 193 1062 302 1169.5 c 128,-1,7
 411 1277 411 1277 564.5 1338.5 c 128,-1,8
 718 1400 718 1400 893 1400 c 0,9,10
 1101 1400 1101 1400 1269.5 1313 c 128,-1,11
 1438 1226 1438 1226 1535.5 1066 c 128,-1,12
 1633 906 1633 906 1633 702 c 0,13,14
 1633 585 1633 585 1596 482 c 128,-1,15
 1559 379 1559 379 1498 308.5 c 128,-1,16
 1437 238 1437 238 1357 197 c 128,-1,17
 1277 156 1277 156 1193 156 c 0,18,19
 1110 156 1110 156 1060 209 c 128,-1,20
 1010 262 1010 262 1008 375 c 1,21,22
 970 285 970 285 900.5 228 c 128,-1,23
 831 171 831 171 749 171 c 0,24,25
 611 171 611 171 533 259 c 128,-1,26
 455 347 455 347 455 492 c 0,27,28
 455 635 455 635 514 758.5 c 128,-1,29
 573 882 573 882 682 957 c 128,-1,30
 791 1032 791 1032 926 1032 c 0,31,32
 1064 1032 1064 1032 1242 968 c 1,33,34
 1229 900 1229 900 1199.5 761.5 c 128,-1,35
 1170 623 1170 623 1153.5 531 c 128,-1,36
 1137 439 1137 439 1137 388 c 128,-1,37
 1137 337 1137 337 1155.5 318 c 128,-1,38
 1174 299 1174 299 1215 299 c 0,39,40
 1284 299 1284 299 1345.5 360 c 128,-1,41
 1407 421 1407 421 1442 514.5 c 128,-1,42
 1477 608 1477 608 1477 705 c 0,43,44
 1477 869 1477 869 1401.5 995 c 128,-1,45
 1326 1121 1326 1121 1193 1188 c 128,-1,46
 1060 1255 1060 1255 892 1255 c 0,47,48
 757 1255 757 1255 643.5 1210 c 128,-1,49
 530 1165 530 1165 456 1094 c 128,-1,50
 382 1023 382 1023 330 932 c 128,-1,51
 278 841 278 841 255 751.5 c 128,-1,52
 232 662 232 662 232 578 c 0,53,54
 232 426 232 426 284 303 c 128,-1,55
 336 180 336 180 426.5 101 c 128,-1,56
 517 22 517 22 635.5 -20 c 128,-1,57
 754 -62 754 -62 889 -62 c 0,58,59
 1182 -62 1182 -62 1391 92 c 1,60,-1
 1446 -16 l 1,61,62
 1215 -205 1215 -205 891 -205 c 0,0,1
752 312 m 0,63,64
 944 312 944 312 1029 748 c 0,65,66
 1041 812 1041 812 1054 899 c 1,67,68
 999 910 999 910 941 910 c 0,69,70
 857 910 857 910 784.5 849 c 128,-1,71
 712 788 712 788 672 695 c 128,-1,72
 632 602 632 602 632 506 c 0,73,74
 632 422 632 422 661.5 367 c 128,-1,75
 691 312 691 312 752 312 c 0,63,64
EndSplineSet
EndChar

StartChar: A
Encoding: 65 65 36
Width: 1359
GlyphClass: 2
Flags: W
LayerCount: 2
Fore
SplineSet
-3 0 m 1,0,-1
 536 1465 l 5,1,-1
 831 1465 l 5,2,-1
 1362 0 l 1,3,-1
 1084 0 l 1,4,-1
 939 414 l 1,5,-1
 426 414 l 1,6,-1
 280 0 l 1,7,-1
 -3 0 l 1,0,-1
494 616 m 1,8,-1
 870 616 l 1,9,10
 688 1193 688 1193 685 1211 c 5,11,-1
 494 616 l 1,8,-1
EndSplineSet
EndChar

StartChar: B
Encoding: 66 66 37
Width: 1333
GlyphClass: 2
Flags: W
LayerCount: 2
Fore
SplineSet
158 0 m 1,0,-1
 158 1465 l 1,1,-1
 615 1465 l 2,2,3
 906 1465 906 1465 1049 1380 c 128,-1,4
 1192 1295 1192 1295 1192 1097 c 0,5,6
 1192 1065 1192 1065 1188 1034 c 128,-1,7
 1184 1003 1184 1003 1170 963.5 c 128,-1,8
 1156 924 1156 924 1133 892 c 128,-1,9
 1110 860 1110 860 1069 829.5 c 128,-1,10
 1028 799 1028 799 973 782 c 1,11,12
 1109 749 1109 749 1181 655.5 c 128,-1,13
 1253 562 1253 562 1253 425 c 0,14,15
 1253 218 1253 218 1106.5 109 c 128,-1,16
 960 0 960 0 701 0 c 2,17,-1
 158 0 l 1,0,-1
429 196 m 1,18,-1
 664 196 l 2,19,20
 976 196 976 196 976 440 c 0,21,22
 976 563 976 563 898 617 c 128,-1,23
 820 671 820 671 657 671 c 2,24,-1
 429 671 l 1,25,-1
 429 196 l 1,18,-1
429 860 m 1,26,-1
 661 860 l 2,27,28
 930 860 930 860 930 1065 c 0,29,30
 930 1180 930 1180 852.5 1223 c 128,-1,31
 775 1266 775 1266 606 1266 c 2,32,-1
 429 1266 l 1,33,-1
 429 860 l 1,26,-1
EndSplineSet
EndChar

StartChar: C
Encoding: 67 67 38
Width: 1301
GlyphClass: 2
Flags: W
LayerCount: 2
Fore
SplineSet
797 -21 m 0,0,1
 476 -21 476 -21 288 181 c 128,-1,2
 100 383 100 383 100 739 c 0,3,4
 100 1077 100 1077 296.5 1281.5 c 128,-1,5
 493 1486 493 1486 811 1486 c 0,6,7
 1068 1486 1068 1486 1246 1367 c 1,8,-1
 1161 1162 l 1,9,10
 990 1267 990 1267 817 1267 c 0,11,12
 615 1267 615 1267 497.5 1121.5 c 128,-1,13
 380 976 380 976 380 731 c 0,14,15
 380 477 380 477 493.5 338 c 128,-1,16
 607 199 607 199 817 199 c 0,17,18
 1001 199 1001 199 1182 291 c 1,19,-1
 1218 79 l 1,20,21
 1050 -21 1050 -21 797 -21 c 0,0,1
EndSplineSet
EndChar

StartChar: D
Encoding: 68 68 39
Width: 1514
GlyphClass: 2
Flags: W
LayerCount: 2
Fore
SplineSet
430 217 m 1,0,-1
 624 217 l 2,1,2
 875 217 875 217 1006 348.5 c 128,-1,3
 1137 480 1137 480 1137 732 c 0,4,5
 1137 1002 1137 1002 1002 1124.5 c 128,-1,6
 867 1247 867 1247 595 1247 c 2,7,-1
 430 1247 l 1,8,-1
 430 217 l 1,0,-1
159 0 m 1,9,-1
 159 1465 l 1,10,-1
 583 1465 l 2,11,12
 775 1465 775 1465 927 1421 c 128,-1,13
 1079 1377 1079 1377 1188.5 1288.5 c 128,-1,14
 1298 1200 1298 1200 1356.5 1060.5 c 128,-1,15
 1415 921 1415 921 1415 738 c 0,16,17
 1415 383 1415 383 1201 191.5 c 128,-1,18
 987 0 987 0 608 0 c 2,19,-1
 159 0 l 1,9,-1
EndSplineSet
EndChar

StartChar: E
Encoding: 69 69 40
Width: 1152
GlyphClass: 2
Flags: W
LayerCount: 2
Fore
SplineSet
158 0 m 1,0,-1
 158 1465 l 1,1,-1
 1046 1465 l 1,2,-1
 1035 1250 l 1,3,-1
 429 1250 l 1,4,-1
 429 872 l 1,5,-1
 1005 872 l 1,6,-1
 1005 657 l 1,7,-1
 429 657 l 1,8,-1
 429 216 l 1,9,-1
 1057 216 l 1,10,-1
 1048 0 l 1,11,-1
 158 0 l 1,0,-1
EndSplineSet
EndChar

StartChar: F
Encoding: 70 70 41
Width: 1103
GlyphClass: 2
Flags: W
LayerCount: 2
Fore
SplineSet
158 0 m 1,0,-1
 158 1465 l 1,1,-1
 1025 1465 l 1,2,-1
 1015 1250 l 1,3,-1
 427 1250 l 1,4,-1
 427 834 l 1,5,-1
 986 834 l 1,6,-1
 986 621 l 1,7,-1
 427 621 l 1,8,-1
 427 0 l 1,9,-1
 158 0 l 1,0,-1
EndSplineSet
EndChar

StartChar: G
Encoding: 71 71 42
Width: 1466
GlyphClass: 2
Flags: W
LayerCount: 2
Fore
SplineSet
812 -21 m 0,0,1
 477 -21 477 -21 288.5 181 c 128,-1,2
 100 383 100 383 100 734 c 0,3,4
 100 957 100 957 188 1126.5 c 128,-1,5
 276 1296 276 1296 447 1391 c 128,-1,6
 618 1486 618 1486 851 1486 c 0,7,8
 1118 1486 1118 1486 1309 1371 c 1,9,-1
 1221 1169 l 1,10,11
 1039 1267 1039 1267 856 1267 c 0,12,13
 634 1267 634 1267 507 1123 c 128,-1,14
 380 979 380 979 380 731 c 0,15,16
 380 485 380 485 493 342 c 128,-1,17
 606 199 606 199 824 199 c 0,18,19
 964 199 964 199 1078 243 c 1,20,-1
 1078 583 l 1,21,-1
 771 583 l 1,22,-1
 773 796 l 1,23,-1
 1333 796 l 1,24,-1
 1333 89 l 1,25,26
 1197 33 1197 33 1075.5 6 c 128,-1,27
 954 -21 954 -21 812 -21 c 0,0,1
EndSplineSet
EndChar

StartChar: H
Encoding: 72 72 43
Width: 1520
GlyphClass: 2
Flags: W
LayerCount: 2
Fore
SplineSet
158 0 m 1,0,-1
 158 1465 l 1,1,-1
 429 1465 l 1,2,-1
 429 866 l 1,3,-1
 1091 866 l 1,4,-1
 1091 1465 l 1,5,-1
 1362 1465 l 1,6,-1
 1362 0 l 1,7,-1
 1091 0 l 1,8,-1
 1091 652 l 1,9,-1
 429 652 l 1,10,-1
 429 0 l 1,11,-1
 158 0 l 1,0,-1
EndSplineSet
EndChar

StartChar: I
Encoding: 73 73 44
Width: 602
GlyphClass: 2
Flags: W
LayerCount: 2
Fore
SplineSet
165 0 m 1,0,-1
 165 1465 l 1,1,-1
 436 1465 l 1,2,-1
 436 0 l 1,3,-1
 165 0 l 1,0,-1
EndSplineSet
EndChar

StartChar: J
Encoding: 74 74 45
Width: 633
GlyphClass: 2
Flags: W
LayerCount: 2
Fore
SplineSet
-73 -321 m 1,0,-1
 -84 -108 l 1,1,2
 -36 -116 -36 -116 21 -116 c 0,3,4
 132 -116 132 -116 171 -59 c 128,-1,5
 210 -2 210 -2 210 129 c 2,6,-1
 210 1465 l 5,7,-1
 482 1465 l 5,8,-1
 482 147 l 2,9,10
 482 21 482 21 459.5 -65.5 c 128,-1,11
 437 -152 437 -152 383.5 -212.5 c 128,-1,12
 330 -273 330 -273 241.5 -301 c 128,-1,13
 153 -329 153 -329 22 -329 c 0,14,15
 -33 -329 -33 -329 -73 -321 c 1,0,-1
EndSplineSet
EndChar

StartChar: K
Encoding: 75 75 46
Width: 1348
GlyphClass: 2
Flags: W
LayerCount: 2
Fore
SplineSet
157 0 m 1,0,-1
 157 1465 l 1,1,-1
 429 1465 l 1,2,-1
 429 805 l 1,3,4
 500 899 500 899 719.5 1156 c 4,5,-1
 981 1465 l 5,6,-1
 1302 1465 l 1,7,-1
 748 806 l 1,8,-1
 1337 0 l 1,9,-1
 1019 0 l 1,10,-1
 541 657 l 1,11,-1
 429 563 l 1,12,-1
 429 0 l 1,13,-1
 157 0 l 1,0,-1
EndSplineSet
EndChar

StartChar: L
Encoding: 76 76 47
Width: 1071
GlyphClass: 2
Flags: W
LayerCount: 2
Fore
SplineSet
158 0 m 1,0,-1
 158 1465 l 1,1,-1
 429 1465 l 1,2,-1
 429 216 l 1,3,-1
 1042 216 l 1,4,-1
 1034 0 l 1,5,-1
 158 0 l 1,0,-1
EndSplineSet
EndChar

StartChar: M
Encoding: 77 77 48
Width: 1841
GlyphClass: 2
Flags: W
LayerCount: 2
Fore
SplineSet
158 0 m 1,0,-1
 158 1465 l 1,1,-1
 478 1465 l 1,2,-1
 921 407 l 1,3,-1
 1367 1465 l 1,4,-1
 1683 1465 l 1,5,-1
 1683 0 l 1,6,-1
 1433 0 l 1,7,-1
 1433 724 l 1,8,-1
 1441 1139 l 1,9,-1
 1404 1029 l 1,10,-1
 1029 100 l 1,11,-1
 797 100 l 1,12,-1
 430 1034 l 1,13,-1
 393 1144 l 1,14,-1
 402 720 l 1,15,-1
 402 0 l 1,16,-1
 158 0 l 1,0,-1
EndSplineSet
EndChar

StartChar: N
Encoding: 78 78 49
Width: 1554
GlyphClass: 2
Flags: W
LayerCount: 2
Fore
SplineSet
158 0 m 1,0,-1
 158 1465 l 1,1,-1
 446 1465 l 1,2,3
 1105.5 445.5 l 2,4,-1
 1157 368 l 1,5,-1
 1150 724 l 2,6,-1
 1150 1465 l 1,7,-1
 1397 1465 l 1,8,-1
 1397 0 l 1,9,-1
 1105 0 l 1,10,-1
 444 1030 l 1,11,-1
 396 1109 l 1,12,-1
 404 738 l 2,13,-1
 404 0 l 1,14,-1
 158 0 l 1,0,-1
EndSplineSet
EndChar

StartChar: O
Encoding: 79 79 50
Width: 1626
GlyphClass: 2
Flags: W
LayerCount: 2
Fore
SplineSet
814 200 m 128,-1,1
 1027 200 1027 200 1135.5 338.5 c 128,-1,2
 1244 477 1244 477 1244 730 c 0,3,4
 1244 986 1244 986 1135.5 1127 c 128,-1,5
 1027 1268 1027 1268 815 1268 c 0,6,7
 602 1268 602 1268 492.5 1126.5 c 128,-1,8
 383 985 383 985 383 730 c 0,9,10
 383 478 383 478 492 339 c 128,-1,0
 601 200 601 200 814 200 c 128,-1,1
813 -21 m 0,11,12
 482 -21 482 -21 290.5 179.5 c 128,-1,13
 99 380 99 380 99 733 c 0,14,15
 99 1088 99 1088 291 1287 c 128,-1,16
 483 1486 483 1486 814 1486 c 128,-1,17
 1145 1486 1145 1486 1336 1286.5 c 128,-1,18
 1527 1087 1527 1087 1527 732 c 0,19,20
 1527 381 1527 381 1335 180 c 128,-1,21
 1143 -21 1143 -21 813 -21 c 0,11,12
EndSplineSet
EndChar

StartChar: P
Encoding: 80 80 51
Width: 1245
GlyphClass: 2
Flags: W
LayerCount: 2
Fore
SplineSet
151 0 m 1,0,-1
 151 1465 l 5,1,-1
 639 1465 l 6,2,3
 812 1465 812 1465 935 1420.5 c 132,-1,4
 1058 1376 1058 1376 1129.5 1276 c 132,-1,5
 1201 1176 1201 1176 1201 1029 c 0,6,7
 1201 924 1201 924 1174 842.5 c 128,-1,8
 1147 761 1147 761 1085 694.5 c 128,-1,9
 1023 628 1023 628 910.5 592 c 128,-1,10
 798 556 798 556 639 556 c 0,11,12
 503 556 503 556 418 564 c 1,13,-1
 418 0 l 1,14,-1
 151 0 l 1,0,-1
610 752 m 0,15,16
 693 752 693 752 754.5 768 c 128,-1,17
 816 784 816 784 850.5 809 c 128,-1,18
 885 834 885 834 905.5 871 c 128,-1,19
 926 908 926 908 932.5 942.5 c 128,-1,20
 939 977 939 977 939 1020 c 0,21,22
 939 1137 939 1137 861 1200 c 132,-1,23
 783 1263 783 1263 641 1263 c 6,24,-1
 418 1263 l 5,25,-1
 418 754 l 1,26,27
 430 752 430 752 610 752 c 0,15,16
EndSplineSet
EndChar

StartChar: Q
Encoding: 81 81 52
Width: 1626
GlyphClass: 2
Flags: W
LayerCount: 2
Fore
SplineSet
1252 -478 m 1,0,1
 1169 -418 1169 -418 1064.5 -280 c 128,-1,2
 960 -142 960 -142 894 -17 c 1,3,4
 842 -21 842 -21 813 -21 c 0,5,6
 482 -21 482 -21 290.5 179.5 c 128,-1,7
 99 380 99 380 99 733 c 0,8,9
 99 1088 99 1088 291 1287 c 128,-1,10
 483 1486 483 1486 814 1486 c 128,-1,11
 1145 1486 1145 1486 1336 1286.5 c 128,-1,12
 1527 1087 1527 1087 1527 732 c 0,13,14
 1527 480 1527 480 1426 302.5 c 128,-1,15
 1325 125 1325 125 1140 43 c 1,16,17
 1293 -205 1293 -205 1426 -327 c 1,18,-1
 1252 -478 l 1,0,1
814 200 m 128,-1,20
 1027 200 1027 200 1135.5 338.5 c 128,-1,21
 1244 477 1244 477 1244 730 c 0,22,23
 1244 986 1244 986 1135.5 1127 c 128,-1,24
 1027 1268 1027 1268 815 1268 c 0,25,26
 602 1268 602 1268 492.5 1126.5 c 128,-1,27
 383 985 383 985 383 730 c 0,28,29
 383 478 383 478 492 339 c 128,-1,19
 601 200 601 200 814 200 c 128,-1,20
EndSplineSet
EndChar

StartChar: R
Encoding: 82 82 53
Width: 1394
GlyphClass: 2
Flags: W
LayerCount: 2
Fore
SplineSet
151 0 m 1,0,-1
 151 1465 l 5,1,-1
 694 1465 l 6,2,3
 805 1465 805 1465 886.5 1455 c 132,-1,4
 968 1445 968 1445 1041.5 1418.5 c 132,-1,5
 1115 1392 1115 1392 1160.5 1347 c 132,-1,6
 1206 1302 1206 1302 1232.5 1229.5 c 132,-1,7
 1259 1157 1259 1157 1259 1062 c 0,8,9
 1259 770 1259 770 994 678 c 1,10,11
 1048.78667137 616.240479549 1048.78667137 616.240479549 1128 452 c 2,12,-1
 1346 0 l 1,13,-1
 1050 0 l 1,14,-1
 879 383 l 1,15,16
 782 589 782 589 759 627 c 1,17,18
 759 627.004405286 759 627.004405286 646 628 c 2,19,-1
 419 630 l 1,20,-1
 419 0 l 1,21,-1
 151 0 l 1,0,-1
718 824 m 0,22,23
 874 824 874 824 942 879.5 c 128,-1,24
 1010 935 1010 935 1010 1058 c 0,25,26
 1010 1162 1010 1162 941 1213 c 132,-1,27
 872 1264 872 1264 730 1264 c 6,28,-1
 419 1264 l 5,29,-1
 419 825 l 1,30,31
 434 825 434 825 568 824.5 c 128,-1,32
 702 824 702 824 718 824 c 0,22,23
EndSplineSet
EndChar

StartChar: S
Encoding: 83 83 54
Width: 1189
GlyphClass: 2
Flags: W
LayerCount: 2
Fore
SplineSet
569 -21 m 0,0,1
 306 -21 306 -21 94 102 c 1,2,-1
 160 317 l 1,3,4
 254 265 254 265 364.5 232.5 c 128,-1,5
 475 200 475 200 580 200 c 4,6,7
 709 200 709 200 775 256 c 128,-1,8
 841 312 841 312 841 416 c 0,9,10
 841 550 841 550 657 607 c 0,11,12
 644 611 644 611 584 628.5 c 128,-1,13
 524 646 524 646 471.5 662.5 c 128,-1,14
 419 679 419 679 396 688 c 0,15,16
 101 792 101 792 101 1076 c 0,17,18
 101 1270 101 1270 242.5 1378 c 128,-1,19
 384 1486 384 1486 618 1486 c 0,20,21
 883 1486 883 1486 1075 1377 c 1,22,-1
 993 1179 l 1,23,24
 797 1267 797 1267 629 1267 c 0,25,26
 508 1267 508 1267 446.5 1224.5 c 128,-1,27
 385 1182 385 1182 381 1088 c 1,28,29
 381 969 381 969 502 929 c 0,30,31
 526 921 526 921 620 890 c 0,32,33
 714 860 714 860 742 851 c 0,34,35
 943 785 943 785 1029.5 687 c 128,-1,36
 1116 589 1116 589 1116 414 c 0,37,38
 1116 205 1116 205 968 92 c 128,-1,39
 820 -21 820 -21 569 -21 c 0,0,1
EndSplineSet
EndChar

StartChar: T
Encoding: 84 84 55
Width: 1152
GlyphClass: 2
Flags: W
LayerCount: 2
Fore
SplineSet
441 0 m 1,0,-1
 441 1248 l 1,1,-1
 14 1248 l 1,2,-1
 14 1465 l 1,3,-1
 1138 1465 l 1,4,-1
 1138 1248 l 1,5,-1
 713 1248 l 1,6,-1
 713 0 l 1,7,-1
 441 0 l 1,0,-1
EndSplineSet
EndChar

StartChar: U
Encoding: 85 85 56
Width: 1468
GlyphClass: 2
Flags: W
LayerCount: 2
Fore
SplineSet
730 -21 m 0,0,1
 442 -21 442 -21 293 122.5 c 128,-1,2
 144 266 144 266 144 527 c 2,3,-1
 144 1465 l 1,4,-1
 416 1465 l 1,5,-1
 416 550 l 2,6,7
 416 367 416 367 490.5 283 c 128,-1,8
 565 199 565 199 735 199 c 0,9,10
 902 199 902 199 977 283.5 c 128,-1,11
 1052 368 1052 368 1052 551 c 2,12,-1
 1052 1465 l 1,13,-1
 1323 1465 l 1,14,-1
 1323 525 l 2,15,16
 1323 266 1323 266 1171 122.5 c 128,-1,17
 1019 -21 1019 -21 730 -21 c 0,0,1
EndSplineSet
EndChar

StartChar: V
Encoding: 86 86 57
Width: 1321
GlyphClass: 2
Flags: W
LayerCount: 2
Fore
SplineSet
527 0 m 1,0,-1
 -6 1465 l 1,1,-1
 273 1465 l 1,2,-1
 583 560 l 2,3,4
 601 513 601 513 666 285 c 1,5,6
 712.428571429 470.714285714 712.428571429 470.714285714 746 558 c 5,7,-1
 1051 1465 l 1,8,-1
 1327 1465 l 1,9,-1
 801 0 l 1,10,-1
 527 0 l 1,0,-1
EndSplineSet
EndChar

StartChar: W
Encoding: 87 87 58
Width: 2051
GlyphClass: 2
Flags: W
LayerCount: 2
Fore
SplineSet
408 0 m 1,0,-1
 10 1465 l 1,1,-1
 280 1465 l 1,2,-1
 564 325 l 1,3,-1
 898 1458 l 1,4,-1
 1157 1458 l 1,5,-1
 1474 321 l 1,6,-1
 1764 1465 l 1,7,-1
 2034 1465 l 1,8,-1
 1624 0 l 1,9,-1
 1343 0 l 1,10,-1
 1030 1073 l 1,11,-1
 687 0 l 1,12,-1
 408 0 l 1,0,-1
EndSplineSet
EndChar

StartChar: X
Encoding: 88 88 59
Width: 1337
GlyphClass: 2
Flags: W
LayerCount: 2
Fore
SplineSet
-11 0 m 1,0,-1
 502 750 l 1,1,-1
 27 1465 l 1,2,-1
 332 1465 l 1,3,-1
 677 919 l 1,4,-1
 1032 1465 l 1,5,-1
 1321 1465 l 1,6,-1
 836 746 l 1,7,-1
 1347 0 l 1,8,-1
 1034 0 l 1,9,-1
 664 570 l 1,10,-1
 286 0 l 1,11,-1
 -11 0 l 1,0,-1
EndSplineSet
EndChar

StartChar: Y
Encoding: 89 89 60
Width: 1256
GlyphClass: 2
Flags: W
LayerCount: 2
Fore
SplineSet
492 0 m 1,0,-1
 492 581 l 1,1,-1
 -15 1465 l 1,2,-1
 279 1465 l 1,3,-1
 628 831 l 1,4,-1
 979 1465 l 1,5,-1
 1269 1465 l 1,6,-1
 764 586 l 1,7,-1
 764 0 l 1,8,-1
 492 0 l 1,0,-1
EndSplineSet
EndChar

StartChar: Z
Encoding: 90 90 61
Width: 1209
GlyphClass: 2
Flags: W
LayerCount: 2
Fore
SplineSet
62 0 m 1,0,-1
 62 174 l 1,1,-1
 835 1249 l 1,2,-1
 89 1249 l 1,3,-1
 89 1465 l 1,4,-1
 1155 1465 l 1,5,-1
 1155 1268 l 1,6,-1
 396 216 l 1,7,-1
 1160 216 l 1,8,-1
 1159 0 l 1,9,-1
 62 0 l 1,0,-1
EndSplineSet
EndChar

StartChar: bracketleft
Encoding: 91 91 62
Width: 651
GlyphClass: 2
Flags: W
LayerCount: 2
Fore
SplineSet
135 -266 m 1,0,-1
 135 1507 l 1,1,-1
 599 1507 l 1,2,-1
 599 1327 l 1,3,-1
 387 1327 l 1,4,-1
 387 -85 l 1,5,-1
 599 -85 l 1,6,-1
 599 -266 l 1,7,-1
 135 -266 l 1,0,-1
EndSplineSet
EndChar

StartChar: backslash
Encoding: 92 92 63
Width: 903
GlyphClass: 2
Flags: W
LayerCount: 2
Fore
SplineSet
649 -60 m 1,0,-1
 30 1462 l 1,1,-1
 261 1462 l 1,2,-1
 878 -60 l 1,3,-1
 649 -60 l 1,0,-1
EndSplineSet
EndChar

StartChar: bracketright
Encoding: 93 93 64
Width: 651
GlyphClass: 2
Flags: W
LayerCount: 2
Fore
SplineSet
52 -266 m 1,0,-1
 52 -85 l 1,1,-1
 263 -85 l 1,2,-1
 263 1327 l 1,3,-1
 52 1327 l 1,4,-1
 52 1507 l 1,5,-1
 516 1507 l 1,6,-1
 516 -266 l 1,7,-1
 52 -266 l 1,0,-1
EndSplineSet
EndChar

StartChar: asciicircum
Encoding: 94 94 65
Width: 1154
GlyphClass: 2
Flags: W
LayerCount: 2
Fore
SplineSet
36 549 m 1,0,-1
 498 1471 l 1,1,-1
 627 1471 l 1,2,-1
 1120 549 l 1,3,-1
 911 549 l 1,4,-1
 564 1217 l 1,5,-1
 245 549 l 1,6,-1
 36 549 l 1,0,-1
EndSplineSet
EndChar

StartChar: underscore
Encoding: 95 95 66
Width: 1155
GlyphClass: 2
Flags: W
LayerCount: 2
Fore
SplineSet
72 -318 m 1,0,-1
 72 -144 l 1,1,-1
 1086 -144 l 1,2,-1
 1086 -318 l 1,3,-1
 72 -318 l 1,0,-1
EndSplineSet
EndChar

StartChar: grave
Encoding: 96 96 67
Width: 514
GlyphClass: 2
Flags: W
LayerCount: 2
Fore
SplineSet
323 1195 m 1,0,-1
 -8 1578 l 1,1,-1
 298 1578 l 1,2,-1
 486 1195 l 1,3,-1
 323 1195 l 1,0,-1
EndSplineSet
EndChar

StartChar: a
Encoding: 97 97 68
Width: 1142
GlyphClass: 2
Flags: W
LayerCount: 2
Fore
SplineSet
423 -21 m 0,0,1
 270 -21 270 -21 175.5 63.5 c 128,-1,2
 81 148 81 148 81 307 c 0,3,4
 81 478 81 478 193 560.5 c 128,-1,5
 305 643 305 643 531 665 c 0,6,7
 562 669 562 669 598 673 c 128,-1,8
 634 677 634 677 679 681 c 128,-1,9
 724 685 724 685 750 688 c 1,10,-1
 750 746 l 2,11,12
 750 846 750 846 704 891.5 c 128,-1,13
 658 937 658 937 564 937 c 0,14,15
 430 937 430 937 233 862 c 1,16,17
 232 865 232 865 200 953 c 128,-1,18
 168 1041 168 1041 167 1043 c 1,19,20
 361 1126 361 1126 587 1126 c 0,21,22
 809 1126 809 1126 910 1029.5 c 128,-1,23
 1011 933 1011 933 1011 717 c 2,24,-1
 1011 0 l 1,25,-1
 817 0 l 1,26,27
 816 4 816 4 795 67 c 128,-1,28
 774 130 774 130 774 134 c 1,29,30
 692 54 692 54 613.5 16.5 c 128,-1,31
 535 -21 535 -21 423 -21 c 0,0,1
494 165 m 0,32,33
 585 165 585 165 652.5 208.5 c 128,-1,34
 720 252 720 252 749 314 c 1,35,-1
 749 526 l 2,36,37
 746 526 746 526 696.5 522 c 128,-1,38
 647 518 647 518 643 518 c 0,39,40
 484 504 484 504 410 458 c 128,-1,41
 336 412 336 412 336 310 c 0,42,43
 336 240 336 240 377 202.5 c 128,-1,44
 418 165 418 165 494 165 c 0,32,33
EndSplineSet
EndChar

StartChar: b
Encoding: 98 98 69
Width: 1258
GlyphClass: 2
Flags: W
LayerCount: 2
Fore
SplineSet
722 -21 m 0,0,1
 610 -21 610 -21 518.5 28.5 c 128,-1,2
 427 78 427 78 386 141 c 1,3,-1
 360 1 l 1,4,-1
 133 1 l 1,5,-1
 133 1504 l 1,6,-1
 395 1521 l 1,7,-1
 395 1181 l 2,8,9
 395 1082 395 1082 389 956 c 1,10,11
 519 1126 519 1126 728 1126 c 0,12,13
 938 1126 938 1126 1057.5 970 c 128,-1,14
 1177 814 1177 814 1177 562 c 0,15,16
 1177 300 1177 300 1053.5 139.5 c 128,-1,17
 930 -21 930 -21 722 -21 c 0,0,1
659 178 m 0,18,19
 776 178 776 178 846 277 c 128,-1,20
 916 376 916 376 916 558 c 0,21,22
 916 741 916 741 847.5 835 c 128,-1,23
 779 929 779 929 662 929 c 0,24,25
 396 929 396 929 393 570 c 0,26,27
 393 368 393 368 460 273 c 128,-1,28
 527 178 527 178 659 178 c 0,18,19
EndSplineSet
EndChar

StartChar: c
Encoding: 99 99 70
Width: 1008
GlyphClass: 2
Flags: W
LayerCount: 2
Fore
SplineSet
614 -21 m 0,0,1
 362 -21 362 -21 221.5 129 c 128,-1,2
 81 279 81 279 81 558 c 0,3,4
 81 828 81 828 228.5 977 c 128,-1,5
 376 1126 376 1126 617 1126 c 0,6,7
 810 1126 810 1126 943 1043 c 1,8,-1
 881 856 l 1,9,10
 745 927 745 927 628 927 c 0,11,12
 495 927 495 927 418.5 832 c 128,-1,13
 342 737 342 737 342 555 c 0,14,15
 342 371 342 371 417.5 275 c 128,-1,16
 493 179 493 179 631 179 c 0,17,18
 775 179 775 179 908 264 c 1,19,-1
 933 65 l 1,20,21
 864 19 864 19 790 -1 c 128,-1,22
 716 -21 716 -21 614 -21 c 0,0,1
EndSplineSet
EndChar

StartChar: d
Encoding: 100 100 71
Width: 1259
GlyphClass: 2
Flags: W
LayerCount: 2
Fore
SplineSet
542 -21 m 0,0,1
 327 -21 327 -21 204 137 c 128,-1,2
 81 295 81 295 81 559 c 0,3,4
 81 815 81 815 203.5 970.5 c 128,-1,5
 326 1126 326 1126 541 1126 c 0,6,7
 775 1126 775 1126 872 960 c 1,8,9
 862 1058 862 1058 862 1149 c 2,10,-1
 862 1504 l 1,11,-1
 1124 1521 l 1,12,-1
 1124 0 l 1,13,-1
 897 0 l 1,14,-1
 868 150 l 1,15,16
 851 123 851 123 836.5 103.5 c 128,-1,17
 822 84 822 84 794 58.5 c 128,-1,18
 766 33 766 33 733.5 17.5 c 128,-1,19
 701 2 701 2 651.5 -9.5 c 128,-1,20
 602 -21 602 -21 542 -21 c 0,0,1
604 178 m 0,21,22
 868 178 868 178 872 537 c 0,23,24
 872 740 872 740 804 833 c 128,-1,25
 736 926 736 926 601 926 c 0,26,27
 483 926 483 926 412.5 831.5 c 128,-1,28
 342 737 342 737 342 553 c 0,29,30
 342 370 342 370 412.5 274 c 128,-1,31
 483 178 483 178 604 178 c 0,21,22
EndSplineSet
EndChar

StartChar: e
Encoding: 101 101 72
Width: 1157
GlyphClass: 2
Flags: W
LayerCount: 2
Fore
SplineSet
641 -21 m 0,0,1
 376 -21 376 -21 228.5 131.5 c 128,-1,2
 81 284 81 284 81 553 c 0,3,4
 81 815 81 815 220 970 c 128,-1,5
 359 1125 359 1125 599 1126 c 0,6,7
 826 1126 826 1126 951.5 984 c 128,-1,8
 1077 842 1077 842 1077 607 c 0,9,10
 1077 590 1077 590 1076.5 552 c 128,-1,11
 1076 514 1076 514 1076 496 c 1,12,-1
 345 496 l 1,13,14
 349 342 349 342 429.5 257.5 c 128,-1,15
 510 173 510 173 651 173 c 0,16,17
 831 173 831 173 997 267 c 1,18,-1
 1034 81 l 1,19,20
 869 -21 869 -21 641 -21 c 0,0,1
350 661 m 1,21,-1
 830 661 l 1,22,23
 830 795 830 795 769 867 c 128,-1,24
 708 939 708 939 600 939 c 0,25,26
 499 939 499 939 429.5 869 c 128,-1,27
 360 799 360 799 350 661 c 1,21,-1
EndSplineSet
EndChar

StartChar: f
Encoding: 102 102 73
Width: 760
GlyphClass: 2
Flags: W
LayerCount: 2
Fore
SplineSet
203 0 m 1,0,-1
 203 925 l 1,1,-1
 29 925 l 1,2,-1
 46 1079 l 1,3,-1
 203 1099 l 1,4,-1
 203 1160 l 2,5,6
 203 1260 203 1260 221.5 1331 c 128,-1,7
 240 1402 240 1402 282 1452.5 c 128,-1,8
 324 1503 324 1503 394.5 1527.5 c 128,-1,9
 465 1552 465 1552 568 1552 c 0,10,11
 668 1552 668 1552 772 1533 c 1,12,-1
 749 1338 l 1,13,14
 667 1349 667 1349 620 1349 c 0,15,16
 536 1349 536 1349 500.5 1308.5 c 128,-1,17
 465 1268 465 1268 465 1174 c 2,18,-1
 465 1099 l 1,19,-1
 723 1099 l 1,20,-1
 723 925 l 1,21,-1
 465 925 l 1,22,-1
 465 0 l 1,23,-1
 203 0 l 1,0,-1
EndSplineSet
EndChar

StartChar: g
Encoding: 103 103 74
Width: 1267
GlyphClass: 2
Flags: W
LayerCount: 2
Fore
SplineSet
353 -492 m 1,0,-1
 338 -280 l 1,1,-1
 471 -280 l 2,2,3
 702 -280 702 -280 794 -218.5 c 128,-1,4
 886 -157 886 -157 886 7 c 0,5,6
 886 74 886 74 880 152 c 1,7,8
 854 116 854 116 830.5 92.5 c 128,-1,9
 807 69 807 69 771.5 46 c 128,-1,10
 736 23 736 23 686.5 11.5 c 128,-1,11
 637 0 637 0 574 0 c 0,12,13
 356 0 356 0 215.5 157 c 128,-1,14
 75 314 75 314 75 562 c 0,15,16
 75 694 75 694 114 802.5 c 128,-1,17
 153 911 153 911 220 981 c 128,-1,18
 287 1051 287 1051 374.5 1088.5 c 128,-1,19
 462 1126 462 1126 561 1126 c 0,20,21
 782 1126 782 1126 890 965 c 1,22,-1
 908 1099 l 1,23,-1
 1142 1099 l 1,24,-1
 1142 78 l 2,25,26
 1142 -4 1142 -4 1134 -69.5 c 128,-1,27
 1126 -135 1126 -135 1106 -195.5 c 128,-1,28
 1086 -256 1086 -256 1053.5 -301 c 128,-1,29
 1021 -346 1021 -346 972 -383 c 128,-1,30
 923 -420 923 -420 856.5 -443.5 c 128,-1,31
 790 -467 790 -467 702 -479.5 c 128,-1,32
 614 -492 614 -492 504 -492 c 2,33,-1
 353 -492 l 1,0,-1
616 183 m 0,34,35
 887 183 887 183 890 546 c 2,36,-1
 890 584 l 2,37,38
 888 747 888 747 822 836 c 128,-1,39
 756 925 756 925 629 926 c 0,40,41
 485 926 485 926 411 827.5 c 128,-1,42
 337 729 337 729 337 562 c 0,43,44
 337 401 337 401 411.5 292 c 128,-1,45
 486 183 486 183 616 183 c 0,34,35
EndSplineSet
EndChar

StartChar: h
Encoding: 104 104 75
Width: 1253
GlyphClass: 2
Flags: W
LayerCount: 2
Fore
SplineSet
133 0 m 1,0,-1
 133 1504 l 1,1,-1
 395 1521 l 1,2,-1
 395 1204 l 2,3,4
 395 1181 395 1181 392 1076.5 c 128,-1,5
 389 972 389 972 389 970 c 1,6,7
 520 1126 520 1126 741 1126 c 0,8,9
 925 1126 925 1126 1026.5 1020.5 c 128,-1,10
 1128 915 1128 915 1128 696 c 2,11,-1
 1128 0 l 1,12,-1
 866 0 l 1,13,-1
 866 667 l 2,14,15
 866 802 866 802 823 865 c 128,-1,16
 780 928 780 928 677 928 c 0,17,18
 589 928 589 928 521 883.5 c 128,-1,19
 453 839 453 839 419 769 c 1,20,21
 395 677 395 677 395 529 c 2,22,-1
 395 0 l 1,23,-1
 133 0 l 1,0,-1
EndSplineSet
EndChar

StartChar: i
Encoding: 105 105 76
Width: 541
GlyphClass: 2
Flags: W
LayerCount: 2
Fore
SplineSet
139 0 m 1,0,-1
 139 1099 l 1,1,-1
 401 1099 l 1,2,-1
 401 0 l 1,3,-1
 139 0 l 1,0,-1
139 1259 m 1,4,-1
 139 1483 l 1,5,-1
 402 1483 l 1,6,-1
 402 1259 l 1,7,-1
 139 1259 l 1,4,-1
EndSplineSet
EndChar

StartChar: j
Encoding: 106 106 77
Width: 527
GlyphClass: 2
Flags: W
LayerCount: 2
Fore
SplineSet
-48 -427 m 1,0,-1
 -77 -233 l 1,1,-1
 -19 -233 l 2,2,3
 31 -233 31 -233 63 -225.5 c 128,-1,4
 95 -218 95 -218 116 -204.5 c 128,-1,5
 137 -191 137 -191 147 -163 c 128,-1,6
 157 -135 157 -135 160.5 -102.5 c 128,-1,7
 164 -70 164 -70 164 -16 c 2,8,-1
 164 1099 l 1,9,-1
 426 1099 l 1,10,-1
 426 26 l 2,11,12
 426 -56 426 -56 419.5 -115 c 128,-1,13
 413 -174 413 -174 396 -227.5 c 128,-1,14
 379 -281 379 -281 349.5 -316 c 128,-1,15
 320 -351 320 -351 274 -377.5 c 128,-1,16
 228 -404 228 -404 163 -415.5 c 128,-1,17
 98 -427 98 -427 11 -427 c 2,18,-1
 -48 -427 l 1,0,-1
164 1259 m 1,19,-1
 164 1483 l 1,20,-1
 426 1483 l 1,21,-1
 426 1259 l 1,22,-1
 164 1259 l 1,19,-1
EndSplineSet
EndChar

StartChar: k
Encoding: 107 107 78
Width: 1173
GlyphClass: 2
Flags: W
LayerCount: 2
Fore
SplineSet
133 0 m 1,0,-1
 133 1504 l 1,1,-1
 395 1521 l 1,2,-1
 395 846 l 1,3,-1
 389 624 l 2,4,5
 390 625 390 625 409.5 644 c 128,-1,6
 429 663 429 663 431 665 c 0,7,8
 486 730 486 730 550.5 799 c 128,-1,9
 615 868 615 868 713.5 968 c 128,-1,10
 812 1068 812 1068 842 1099 c 1,11,-1
 1154 1099 l 1,12,-1
 702 631 l 1,13,-1
 1183 0 l 1,14,-1
 866 0 l 1,15,-1
 504 499 l 1,16,-1
 395 413 l 1,17,-1
 395 0 l 1,18,-1
 133 0 l 1,0,-1
EndSplineSet
EndChar

StartChar: l
Encoding: 108 108 79
Width: 700
GlyphClass: 2
Flags: W
LayerCount: 2
Fore
SplineSet
518 -15 m 0,0,1
 405 -15 405 -15 330.5 11.5 c 128,-1,2
 256 38 256 38 213 96 c 128,-1,3
 170 154 170 154 153 234 c 128,-1,4
 136 314 136 314 136 433 c 2,5,-1
 136 1504 l 1,6,-1
 398 1521 l 1,7,-1
 398 438 l 2,8,9
 398 290 398 290 433 237.5 c 128,-1,10
 468 185 468 185 569 185 c 0,11,12
 619 185 619 185 696 196 c 1,13,-1
 703 9 l 2,14,15
 702 9 702 9 678.5 4 c 128,-1,16
 655 -1 655 -1 633.5 -4.5 c 128,-1,17
 612 -8 612 -8 579 -11.5 c 128,-1,18
 546 -15 546 -15 518 -15 c 0,0,1
EndSplineSet
EndChar

StartChar: m
Encoding: 109 109 80
Width: 1911
GlyphClass: 2
Flags: W
LayerCount: 2
Fore
SplineSet
133 0 m 1,0,-1
 133 1099 l 1,1,-1
 345 1099 l 1,2,-1
 375 959 l 1,3,4
 395 984 395 984 413.5 1003.5 c 128,-1,5
 432 1023 432 1023 464.5 1047.5 c 128,-1,6
 497 1072 497 1072 533.5 1088 c 128,-1,7
 570 1104 570 1104 623.5 1115 c 128,-1,8
 677 1126 677 1126 738 1126 c 0,9,10
 869 1126 869 1126 947.5 1073 c 128,-1,11
 1026 1020 1026 1020 1058 949 c 1,12,13
 1117 1034 1117 1034 1211 1080 c 128,-1,14
 1305 1126 1305 1126 1420 1126 c 0,15,16
 1609 1126 1609 1126 1697.5 1019 c 128,-1,17
 1786 912 1786 912 1786 702 c 2,18,-1
 1786 0 l 1,19,-1
 1523 0 l 1,20,-1
 1523 624 l 2,21,22
 1523 785 1523 785 1487.5 856.5 c 128,-1,23
 1452 928 1452 928 1352 928 c 0,24,25
 1199 928 1199 928 1132 790 c 0,26,27
 1104 729 1104 729 1094 643 c 1,28,-1
 1094 0 l 1,29,-1
 832 0 l 1,30,-1
 832 636 l 2,31,32
 832 783 832 783 793 855 c 128,-1,33
 754 927 754 927 652 927 c 0,34,35
 569 927 569 927 509 885 c 128,-1,36
 449 843 449 843 418 775 c 1,37,38
 395 674 395 674 395 533 c 2,39,-1
 395 0 l 1,40,-1
 133 0 l 1,0,-1
EndSplineSet
EndChar

StartChar: n
Encoding: 110 110 81
Width: 1254
GlyphClass: 2
Flags: W
LayerCount: 2
Fore
SplineSet
133 0 m 1,0,-1
 133 1099 l 1,1,-1
 344 1099 l 1,2,-1
 373 960 l 1,3,4
 541 1126 541 1126 746 1126 c 0,5,6
 938 1126 938 1126 1033.5 1015.5 c 128,-1,7
 1129 905 1129 905 1129 695 c 2,8,-1
 1129 0 l 1,9,-1
 866 0 l 1,10,-1
 866 663 l 2,11,12
 865 796 865 796 823 862 c 128,-1,13
 781 928 781 928 672 928 c 0,14,15
 587 928 587 928 516.5 884.5 c 128,-1,16
 446 841 446 841 414 775 c 1,17,18
 395 697 395 697 395 535 c 2,19,-1
 395 0 l 1,20,-1
 133 0 l 1,0,-1
EndSplineSet
EndChar

StartChar: o
Encoding: 111 111 82
Width: 1222
GlyphClass: 2
Flags: W
LayerCount: 2
Fore
SplineSet
612 178 m 0,0,1
 745 178 745 178 812 275 c 128,-1,2
 879 372 879 372 879 553 c 0,3,4
 879 736 879 736 812 832 c 128,-1,5
 745 928 745 928 610 928 c 0,6,7
 477 928 477 928 409.5 831.5 c 128,-1,8
 342 735 342 735 342 552 c 0,9,10
 342 372 342 372 410 275 c 128,-1,11
 478 178 478 178 612 178 c 0,0,1
605 -21 m 0,12,13
 361 -21 361 -21 221 137 c 128,-1,14
 81 295 81 295 81 553 c 0,15,16
 81 819 81 819 221 972.5 c 128,-1,17
 361 1126 361 1126 616 1126 c 0,18,19
 862 1126 862 1126 1001.5 969.5 c 128,-1,20
 1141 813 1141 813 1141 553 c 0,21,22
 1141 290 1141 290 1000 134.5 c 128,-1,23
 859 -21 859 -21 605 -21 c 0,12,13
EndSplineSet
EndChar

StartChar: p
Encoding: 112 112 83
Width: 1256
GlyphClass: 2
Flags: W
LayerCount: 2
Fore
SplineSet
133 -457 m 1,0,-1
 133 1099 l 1,1,-1
 358 1099 l 1,2,-1
 386 945 l 1,3,4
 440 1032 440 1032 529.5 1079.5 c 128,-1,5
 619 1127 619 1127 729 1127 c 0,6,7
 864 1127 864 1127 966.5 1052 c 128,-1,8
 1069 977 1069 977 1122 847.5 c 128,-1,9
 1175 718 1175 718 1175 555 c 0,10,11
 1175 300 1175 300 1051.5 139.5 c 128,-1,12
 928 -21 928 -21 717 -21 c 0,13,14
 613 -21 613 -21 528.5 20.5 c 128,-1,15
 444 62 444 62 387 133 c 1,16,17
 395 -11 395 -11 395 -29 c 2,18,-1
 395 -444 l 1,19,-1
 133 -457 l 1,0,-1
661 179 m 0,20,21
 778 179 778 179 845.5 277 c 128,-1,22
 913 375 913 375 913 557 c 0,23,24
 913 742 913 742 845 835 c 128,-1,25
 777 928 777 928 656 928 c 0,26,27
 396 928 396 928 393 574 c 0,28,29
 393 370 393 370 460.5 274.5 c 128,-1,30
 528 179 528 179 661 179 c 0,20,21
EndSplineSet
EndChar

StartChar: q
Encoding: 113 113 84
Width: 1259
GlyphClass: 2
Flags: W
LayerCount: 2
Fore
SplineSet
862 -457 m 1,0,-1
 862 8 l 2,1,2
 862 77 862 77 869 150 c 1,3,4
 765 -22 765 -22 555 -22 c 0,5,6
 342 -22 342 -22 212 138 c 128,-1,7
 82 298 82 298 82 555 c 0,8,9
 82 810 82 810 205 968 c 128,-1,10
 328 1126 328 1126 549 1126 c 0,11,12
 766 1126 766 1126 874 959 c 1,13,-1
 895 1099 l 1,14,-1
 1125 1099 l 1,15,-1
 1125 -444 l 1,16,-1
 862 -457 l 1,0,-1
606 177 m 0,17,18
 734 177 734 177 802 263 c 128,-1,19
 870 349 870 349 872 535 c 0,20,21
 872 739 872 739 804.5 832.5 c 128,-1,22
 737 926 737 926 603 926 c 0,23,24
 482 926 482 926 412.5 832 c 128,-1,25
 343 738 343 738 343 552 c 0,26,27
 343 368 343 368 413 272.5 c 128,-1,28
 483 177 483 177 606 177 c 0,17,18
EndSplineSet
EndChar

StartChar: r
Encoding: 114 114 85
Width: 798
GlyphClass: 2
Flags: W
LayerCount: 2
Fore
SplineSet
134 0 m 1,0,-1
 134 1099 l 1,1,-1
 354 1099 l 1,2,-1
 388 931 l 1,3,4
 496 1104 496 1104 701 1104 c 0,5,6
 744 1104 744 1104 771 1100 c 1,7,-1
 767 881 l 1,8,9
 727 887 727 887 684 887 c 0,10,11
 539 887 539 887 467.5 810 c 128,-1,12
 396 733 396 733 396 596 c 2,13,-1
 396 0 l 1,14,-1
 134 0 l 1,0,-1
EndSplineSet
EndChar

StartChar: s
Encoding: 115 115 86
Width: 985
GlyphClass: 2
Flags: W
LayerCount: 2
Fore
SplineSet
484 -20 m 0,0,1
 241 -20 241 -20 95 63 c 1,2,-1
 122 260 l 1,3,4
 188 224 188 224 290 195.5 c 128,-1,5
 392 167 392 167 476 167 c 0,6,7
 563 167 563 167 611.5 199.5 c 128,-1,8
 660 232 660 232 661 295 c 0,9,10
 661 352 661 352 615.5 385 c 128,-1,11
 570 418 570 418 442 467 c 0,12,13
 398 483 398 483 385 488 c 0,14,15
 233 547 233 547 166 619.5 c 128,-1,16
 99 692 99 692 99 816 c 0,17,18
 99 966 99 966 207.5 1046 c 128,-1,19
 316 1126 316 1126 510 1126 c 0,20,21
 720 1126 720 1126 879 1047 c 1,22,-1
 814 866 l 1,23,24
 657 939 657 939 515 939 c 0,25,26
 436 939 436 939 391.5 912.5 c 128,-1,27
 347 886 347 886 347 832 c 0,28,29
 347 781 347 781 390 752.5 c 128,-1,30
 433 724 433 724 558 678 c 0,31,32
 562 677 562 677 584 669 c 128,-1,33
 606 661 606 661 618 656 c 0,34,35
 769 601 769 601 840 524.5 c 128,-1,36
 911 448 911 448 911 325 c 0,37,38
 910 160 910 160 799 70 c 128,-1,39
 688 -20 688 -20 484 -20 c 0,0,1
EndSplineSet
EndChar

StartChar: t
Encoding: 116 116 87
Width: 803
GlyphClass: 2
Flags: W
LayerCount: 2
Fore
SplineSet
572 -15 m 0,0,1
 460 -15 460 -15 385.5 11.5 c 128,-1,2
 311 38 311 38 269 95 c 128,-1,3
 227 152 227 152 209.5 229.5 c 128,-1,4
 192 307 192 307 192 421 c 2,5,-1
 192 940 l 1,6,-1
 12 940 l 1,7,-1
 22 1082 l 1,8,-1
 210 1099 l 1,9,-1
 294 1397 l 1,10,-1
 454 1398 l 1,11,-1
 454 1099 l 1,12,-1
 727 1099 l 1,13,-1
 727 940 l 1,14,-1
 454 940 l 1,15,-1
 454 416 l 2,16,17
 454 291 454 291 490 238 c 128,-1,18
 526 185 526 185 623 185 c 0,19,20
 680 185 680 185 745 195 c 1,21,-1
 752 7 l 2,22,23
 750 7 750 7 727.5 2.5 c 128,-1,24
 705 -2 705 -2 684.5 -5.5 c 128,-1,25
 664 -9 664 -9 632 -12 c 128,-1,26
 600 -15 600 -15 572 -15 c 0,0,1
EndSplineSet
EndChar

StartChar: u
Encoding: 117 117 88
Width: 1163
GlyphClass: 2
Flags: W
LayerCount: 2
Fore
SplineSet
581 -21 m 128,-1,1
 367 -21 367 -21 236.5 86 c 128,-1,2
 106 193 106 193 106 400 c 2,3,-1
 106 1099 l 1,4,-1
 369 1099 l 1,5,-1
 369 410 l 2,6,7
 369 287 369 287 420.5 232 c 128,-1,8
 472 177 472 177 584 177 c 0,9,10
 694 177 694 177 744.5 231.5 c 128,-1,11
 795 286 795 286 795 410 c 2,12,-1
 795 1099 l 1,13,-1
 1057 1099 l 1,14,-1
 1057 400 l 2,15,16
 1057 194 1057 194 926 86.5 c 128,-1,0
 795 -21 795 -21 581 -21 c 128,-1,1
EndSplineSet
EndChar

StartChar: v
Encoding: 118 118 89
Width: 1125
GlyphClass: 2
Flags: W
LayerCount: 2
Fore
SplineSet
441 0 m 1,0,-1
 3 1099 l 1,1,-1
 281 1099 l 1,2,3
 297 1054 297 1054 382.5 819.5 c 128,-1,4
 468 585 468 585 496 500 c 0,5,6
 553 334 553 334 578 249 c 1,7,8
 578 250 578 250 595 314 c 128,-1,9
 612 378 612 378 627.5 434.5 c 128,-1,10
 643 491 643 491 647 503 c 0,11,12
 648 505 648 505 738.5 779 c 128,-1,13
 829 1053 829 1053 846 1099 c 1,14,-1
 1122 1099 l 1,15,-1
 706 0 l 1,16,-1
 441 0 l 1,0,-1
EndSplineSet
EndChar

StartChar: w
Encoding: 119 119 90
Width: 1713
GlyphClass: 2
Flags: W
LayerCount: 2
Fore
SplineSet
346 0 m 1,0,-1
 13 1099 l 1,1,-1
 280 1099 l 1,2,-1
 491 293 l 1,3,4
 498 316 498 316 605 686 c 128,-1,5
 712 1056 712 1056 726 1099 c 1,6,-1
 995 1099 l 1,7,8
 1008 1057 1008 1057 1110 690 c 128,-1,9
 1212 323 1212 323 1220 296 c 1,10,-1
 1437 1099 l 1,11,-1
 1700 1099 l 1,12,-1
 1356 0 l 1,13,-1
 1095 0 l 1,14,15
 1082 43 1082 43 973.5 435 c 128,-1,16
 865 827 865 827 856 858 c 1,17,18
 836 785 836 785 728.5 418 c 128,-1,19
 621 51 621 51 604 0 c 1,20,-1
 346 0 l 1,0,-1
EndSplineSet
EndChar

StartChar: x
Encoding: 120 120 91
Width: 1158
GlyphClass: 2
Flags: W
LayerCount: 2
Fore
SplineSet
21 0 m 1,0,-1
 412 563 l 1,1,-1
 40 1099 l 1,2,-1
 337 1099 l 1,3,-1
 581 725 l 1,4,-1
 832 1099 l 1,5,-1
 1124 1099 l 1,6,-1
 749 564 l 1,7,-1
 1137 0 l 1,8,-1
 837 0 l 1,9,-1
 581 399 l 1,10,-1
 317 0 l 1,11,-1
 21 0 l 1,0,-1
EndSplineSet
EndChar

StartChar: y
Encoding: 121 121 92
Width: 1116
GlyphClass: 2
Flags: W
LayerCount: 2
Fore
SplineSet
191 -463 m 0,0,1
 127 -463 127 -463 55 -455 c 1,2,-1
 42 -252 l 1,3,4
 88 -257 88 -257 159 -257 c 0,5,6
 250 -257 250 -257 305 -221 c 128,-1,7
 360 -185 360 -185 396 -93 c 0,8,9
 400 -83 400 -83 436 20 c 1,10,-1
 -6 1099 l 1,11,-1
 274 1099 l 1,12,-1
 563 302 l 1,13,14
 595 421 595 421 706.5 744 c 128,-1,15
 818 1067 818 1067 829 1099 c 1,16,-1
 1109 1099 l 1,17,18
 652 -109 652 -109 648 -119 c 0,19,20
 577 -304 577 -304 469 -383.5 c 128,-1,21
 361 -463 361 -463 191 -463 c 0,0,1
EndSplineSet
EndChar

StartChar: z
Encoding: 122 122 93
Width: 977
GlyphClass: 2
Flags: W
LayerCount: 2
Fore
SplineSet
65 0 m 1,0,-1
 65 159 l 1,1,-1
 609 917 l 1,2,-1
 91 917 l 1,3,-1
 91 1099 l 1,4,-1
 899 1099 l 1,5,-1
 899 920 l 1,6,-1
 384 191 l 1,7,-1
 917 191 l 1,8,-1
 917 0 l 1,9,-1
 65 0 l 1,0,-1
EndSplineSet
EndChar

StartChar: braceleft
Encoding: 123 123 94
Width: 786
GlyphClass: 2
Flags: W
LayerCount: 2
Fore
SplineSet
703 -287 m 1,0,1
 477 -287 477 -287 377 -222.5 c 128,-1,2
 277 -158 277 -158 277 13 c 2,3,-1
 277 290 l 2,4,5
 277 410 277 410 230 457.5 c 128,-1,6
 183 505 183 505 52 505 c 1,7,-1
 52 719 l 1,8,9
 145 720 145 720 193 740.5 c 128,-1,10
 241 761 241 761 259 804.5 c 128,-1,11
 277 848 277 848 277 930 c 2,12,-1
 277 1221 l 2,13,14
 277 1306 277 1306 303 1362.5 c 128,-1,15
 329 1419 329 1419 385 1451.5 c 128,-1,16
 441 1484 441 1484 517 1497.5 c 128,-1,17
 593 1511 593 1511 703 1511 c 1,18,-1
 703 1311 l 1,19,20
 596 1310 596 1310 562.5 1274 c 128,-1,21
 529 1238 529 1238 529 1137 c 2,22,-1
 529 868 l 2,23,24
 528 767 528 767 479 709.5 c 128,-1,25
 430 652 430 652 317 610 c 1,26,27
 529 566 529 566 529 360 c 2,28,-1
 529 88 l 2,29,30
 529 -13 529 -13 562.5 -49 c 128,-1,31
 596 -85 596 -85 703 -86 c 1,32,-1
 703 -287 l 1,0,1
EndSplineSet
EndChar

StartChar: bar
Encoding: 124 124 95
Width: 759
GlyphClass: 2
Flags: W
LayerCount: 2
Fore
SplineSet
278 -380 m 1,0,-1
 278 1538 l 1,1,-1
 481 1538 l 1,2,-1
 481 -380 l 1,3,-1
 278 -380 l 1,0,-1
EndSplineSet
EndChar

StartChar: braceright
Encoding: 125 125 96
Width: 787
GlyphClass: 2
Flags: W
LayerCount: 2
Fore
SplineSet
85 -287 m 1,0,-1
 85 -86 l 1,1,2
 192 -85 192 -85 225.5 -49.5 c 128,-1,3
 259 -14 259 -14 259 88 c 2,4,-1
 259 360 l 2,5,6
 259 464 259 464 310.5 521.5 c 128,-1,7
 362 579 362 579 471 611 c 1,8,9
 362 645 362 645 311 705.5 c 128,-1,10
 260 766 260 766 259 868 c 2,11,-1
 259 1137 l 2,12,13
 259 1238 259 1238 225.5 1274 c 128,-1,14
 192 1310 192 1310 85 1311 c 1,15,-1
 85 1511 l 1,16,17
 198 1511 198 1511 273.5 1498 c 128,-1,18
 349 1485 349 1485 404.5 1451.5 c 128,-1,19
 460 1418 460 1418 485.5 1359.5 c 128,-1,20
 511 1301 511 1301 511 1212 c 2,21,-1
 511 929 l 2,22,23
 511 809 511 809 556.5 764.5 c 128,-1,24
 602 720 602 720 737 719 c 1,25,-1
 737 505 l 1,26,27
 605 505 605 505 558 458.5 c 128,-1,28
 511 412 511 412 511 290 c 2,29,-1
 511 4 l 2,30,31
 511 -162 511 -162 411 -224.5 c 128,-1,32
 311 -287 311 -287 85 -287 c 1,0,-1
EndSplineSet
EndChar

StartChar: asciitilde
Encoding: 126 126 97
Width: 1297
GlyphClass: 2
Flags: W
LayerCount: 2
Fore
SplineSet
207 471 m 1,0,-1
 130 616 l 1,1,2
 226 811 226 811 417 811 c 0,3,4
 526 811 526 811 681 745 c 0,5,6
 827 681 827 681 900 681 c 0,7,8
 960 681 960 681 1015 713.5 c 128,-1,9
 1070 746 1070 746 1134 817 c 1,10,-1
 1205 682 l 1,11,12
 1162 602 1162 602 1073.5 544 c 128,-1,13
 985 486 985 486 883 486 c 0,14,15
 818 486 818 486 761 503.5 c 128,-1,16
 704 521 704 521 618 560 c 0,17,18
 551 591 551 591 505.5 605.5 c 128,-1,19
 460 620 460 620 408 620 c 0,20,21
 286 620 286 620 207 471 c 1,0,-1
EndSplineSet
EndChar

StartChar: cent
Encoding: 162 162 100
Width: 1082
GlyphClass: 2
Flags: W
LayerCount: 2
Fore
SplineSet
573 -202 m 1,0,-1
 573 54 l 1,1,2
 349 71 349 71 215.5 223.5 c 128,-1,3
 82 376 82 376 82 636 c 0,4,5
 82 761 82 761 121 863.5 c 128,-1,6
 160 966 160 966 227.5 1033 c 128,-1,7
 295 1100 295 1100 383 1139 c 128,-1,8
 471 1178 471 1178 573 1184 c 1,9,-1
 573 1402 l 1,10,-1
 674 1402 l 1,11,-1
 674 1181 l 1,12,13
 832 1168 832 1168 934 1090 c 1,14,-1
 889 916 l 1,15,16
 851 942 851 942 791.5 964 c 128,-1,17
 732 986 732 986 674 992 c 1,18,-1
 674 242 l 1,19,20
 790 251 790 251 892 323 c 1,21,-1
 944 148 l 1,22,23
 825 64 825 64 674 54 c 1,24,-1
 674 -202 l 1,25,-1
 573 -202 l 1,0,-1
573 247 m 1,26,-1
 573 989 l 1,27,28
 462 969 462 969 395.5 878 c 128,-1,29
 329 787 329 787 329 628 c 0,30,31
 329 462 329 462 393.5 365.5 c 128,-1,32
 458 269 458 269 573 247 c 1,26,-1
EndSplineSet
EndChar

StartChar: sterling
Encoding: 163 163 101
Width: 1149
GlyphClass: 2
Flags: W
LayerCount: 2
Fore
SplineSet
85 0 m 1,0,-1
 69 190 l 1,1,2
 170 233 170 233 211 293.5 c 128,-1,3
 252 354 252 354 252 469 c 2,4,-1
 252 659 l 1,5,-1
 67 659 l 1,6,-1
 67 838 l 1,7,-1
 252 838 l 1,8,-1
 252 943 l 2,9,10
 252 1066 252 1066 276.5 1163 c 128,-1,11
 301 1260 301 1260 353.5 1334 c 128,-1,12
 406 1408 406 1408 494.5 1447.5 c 128,-1,13
 583 1487 583 1487 703 1487 c 0,14,15
 921 1487 921 1487 1088 1347 c 1,16,-1
 985 1178 l 1,17,18
 911 1227 911 1227 847.5 1252.5 c 128,-1,19
 784 1278 784 1278 713 1278 c 0,20,21
 501 1278 501 1278 501 1017 c 2,22,-1
 501 838 l 1,23,-1
 892 838 l 1,24,-1
 892 659 l 1,25,-1
 501 659 l 1,26,-1
 501 509 l 2,27,28
 501 309 501 309 389 213 c 1,29,30
 397 214 397 214 536 214 c 2,31,-1
 1105 214 l 1,32,-1
 1097 0 l 1,33,-1
 85 0 l 1,0,-1
EndSplineSet
EndChar

StartChar: currency
Encoding: 164 164 102
Width: 1162
GlyphClass: 2
Flags: W
LayerCount: 2
Fore
SplineSet
1020 229 m 1,0,-1
 834 402 l 1,1,2
 721 317 721 317 581 317 c 0,3,4
 434 317 434 317 327 401 c 1,5,-1
 146 230 l 1,6,-1
 52 322 l 1,7,-1
 237 495 l 1,8,9
 161 602 161 602 161 732 c 0,10,11
 161 860 161 860 237 969 c 1,12,-1
 51 1144 l 1,13,-1
 146 1236 l 1,14,-1
 329 1063 l 1,15,16
 440 1149 440 1149 581 1149 c 128,-1,17
 722 1149 722 1149 834 1061 c 1,18,-1
 1020 1236 l 1,19,-1
 1111 1142 l 1,20,-1
 927 969 l 1,21,22
 1002 861 1002 861 1002 732 c 0,23,24
 1002 601 1002 601 928 495 c 1,25,-1
 1109 323 l 1,26,-1
 1020 229 l 1,0,-1
581 455 m 0,27,28
 699 455 699 455 781.5 536 c 128,-1,29
 864 617 864 617 864 732 c 128,-1,30
 864 847 864 847 781 928.5 c 128,-1,31
 698 1010 698 1010 581 1010 c 0,32,33
 465 1010 465 1010 382 928 c 128,-1,34
 299 846 299 846 299 732 c 0,35,36
 299 617 299 617 381.5 536 c 128,-1,37
 464 455 464 455 581 455 c 0,27,28
EndSplineSet
EndChar

StartChar: yen
Encoding: 165 165 103
Width: 1194
GlyphClass: 2
Flags: W
LayerCount: 2
Fore
SplineSet
471 0 m 1,0,-1
 471 289 l 1,1,-1
 124 289 l 1,2,-1
 124 442 l 1,3,-1
 471 442 l 1,4,-1
 471 583 l 1,5,-1
 125 583 l 1,6,-1
 125 735 l 1,7,-1
 392 735 l 1,8,-1
 -44 1459 l 1,9,-1
 240 1459 l 1,10,-1
 599 838 l 1,11,-1
 958 1459 l 1,12,-1
 1237 1459 l 1,13,-1
 809 735 l 1,14,-1
 1085 735 l 1,15,-1
 1085 583 l 1,16,-1
 734 583 l 1,17,-1
 734 442 l 1,18,-1
 1085 442 l 1,19,-1
 1085 289 l 1,20,-1
 734 289 l 1,21,-1
 734 0 l 1,22,-1
 471 0 l 1,0,-1
EndSplineSet
EndChar

StartChar: brokenbar
Encoding: 166 166 104
Width: 817
GlyphClass: 2
Flags: W
LayerCount: 2
Fore
SplineSet
306 -379 m 1,0,-1
 306 340 l 1,1,-1
 509 340 l 1,2,-1
 509 -379 l 1,3,-1
 306 -379 l 1,0,-1
306 820 m 1,4,-1
 306 1538 l 1,5,-1
 509 1538 l 1,6,-1
 509 820 l 1,7,-1
 306 820 l 1,4,-1
EndSplineSet
EndChar

StartChar: section
Encoding: 167 167 105
Width: 1034
GlyphClass: 2
Flags: W
LayerCount: 2
Fore
SplineSet
472 -31 m 128,-1,1
 280 -31 280 -31 138 37 c 1,2,-1
 138 228 l 1,3,4
 208 195 208 195 299.5 172.5 c 128,-1,5
 391 150 391 150 463 150 c 0,6,7
 549 150 549 150 602 175.5 c 128,-1,8
 655 201 655 201 663 250 c 1,9,10
 677 302 677 302 634 342 c 128,-1,11
 591 382 591 382 470 435 c 0,12,13
 386 469 386 469 329 500 c 128,-1,14
 272 531 272 531 225 571 c 128,-1,15
 178 611 178 611 155.5 662 c 128,-1,16
 133 713 133 713 133 776 c 0,17,18
 133 857 133 857 172.5 921 c 128,-1,19
 212 985 212 985 276 1026 c 1,20,21
 150 1114 150 1114 150 1261 c 0,22,23
 150 1401 150 1401 253.5 1475 c 128,-1,24
 357 1549 357 1549 532 1551 c 0,25,26
 707 1556 707 1556 872 1493 c 1,27,28
 871 1486 871 1486 854 1400.5 c 128,-1,29
 837 1315 837 1315 836 1309 c 1,30,31
 697 1370 697 1370 556 1370 c 0,32,33
 380 1370 380 1370 380 1264 c 0,34,35
 380 1214 380 1214 427 1177.5 c 128,-1,36
 474 1141 474 1141 584 1096 c 0,37,38
 661 1065 661 1065 716.5 1034.5 c 128,-1,39
 772 1004 772 1004 819 964.5 c 128,-1,40
 866 925 866 925 890 875.5 c 128,-1,41
 914 826 914 826 914 767 c 0,42,43
 914 603 914 603 776 509 c 1,44,45
 903 424 903 424 903 284 c 0,46,47
 903 132 903 132 783.5 50.5 c 128,-1,0
 664 -31 664 -31 472 -31 c 128,-1,1
607 589 m 1,48,49
 703 654 703 654 703 731 c 0,50,51
 703 797 703 797 636.5 844.5 c 128,-1,52
 570 892 570 892 444 940 c 1,53,54
 399 917 399 917 372.5 880.5 c 128,-1,55
 346 844 346 844 346 802 c 0,56,57
 346 746 346 746 397.5 701 c 128,-1,58
 449 656 449 656 546 614 c 0,59,60
 551 612 551 612 574.5 602 c 128,-1,61
 598 592 598 592 607 589 c 1,48,49
EndSplineSet
EndChar

StartChar: dieresis
Encoding: 168 168 106
Width: 772
GlyphClass: 2
Flags: W
LayerCount: 2
Fore
SplineSet
78 1236 m 1,0,-1
 78 1490 l 1,1,-1
 273 1490 l 1,2,-1
 273 1236 l 1,3,-1
 78 1236 l 1,0,-1
499 1236 m 1,4,-1
 499 1490 l 1,5,-1
 695 1490 l 1,6,-1
 695 1236 l 1,7,-1
 499 1236 l 1,4,-1
EndSplineSet
EndChar

StartChar: copyright
Encoding: 169 169 107
Width: 1743
GlyphClass: 2
Flags: W
LayerCount: 2
Fore
SplineSet
854 254 m 0,0,1
 654 254 654 254 523 392.5 c 128,-1,2
 392 531 392 531 392 743 c 0,3,4
 392 880 392 880 449.5 993 c 128,-1,5
 507 1106 507 1106 613 1172 c 128,-1,6
 719 1238 719 1238 853 1238 c 0,7,8
 1038 1238 1038 1238 1160 1156 c 1,9,-1
 1111 1052 l 1,10,11
 998 1118 998 1118 864 1118 c 0,12,13
 715 1118 715 1118 626 1014.5 c 128,-1,14
 537 911 537 911 537 743 c 0,15,16
 537 576 537 576 627 475 c 128,-1,17
 717 374 717 374 869 374 c 0,18,19
 1002 374 1002 374 1117 440 c 1,20,-1
 1161 336 l 1,21,22
 1037 254 1037 254 854 254 c 0,0,1
867 78 m 0,23,24
 1056 78 1056 78 1209.5 167 c 128,-1,25
 1363 256 1363 256 1448 407.5 c 128,-1,26
 1533 559 1533 559 1533 741 c 0,27,28
 1533 922 1533 922 1448 1073.5 c 128,-1,29
 1363 1225 1363 1225 1209 1314.5 c 128,-1,30
 1055 1404 1055 1404 866 1404 c 0,31,32
 679 1404 679 1404 526.5 1314.5 c 128,-1,33
 374 1225 374 1225 289.5 1074 c 128,-1,34
 205 923 205 923 205 742 c 0,35,36
 205 560 205 560 289.5 408.5 c 128,-1,37
 374 257 374 257 526.5 167.5 c 128,-1,38
 679 78 679 78 867 78 c 0,23,24
867 -22 m 0,39,40
 711 -22 711 -22 568.5 35 c 128,-1,41
 426 92 426 92 320 191 c 128,-1,42
 214 290 214 290 151.5 433.5 c 128,-1,43
 89 577 89 577 89 741 c 128,-1,44
 89 905 89 905 151.5 1048.5 c 128,-1,45
 214 1192 214 1192 319.5 1291.5 c 128,-1,46
 425 1391 425 1391 567.5 1448 c 128,-1,47
 710 1505 710 1505 866 1505 c 0,48,49
 1023 1505 1023 1505 1166.5 1448 c 128,-1,50
 1310 1391 1310 1391 1416.5 1291.5 c 128,-1,51
 1523 1192 1523 1192 1586 1048.5 c 128,-1,52
 1649 905 1649 905 1649 741 c 128,-1,53
 1649 577 1649 577 1586 433.5 c 128,-1,54
 1523 290 1523 290 1417 191 c 128,-1,55
 1311 92 1311 92 1167.5 35 c 128,-1,56
 1024 -22 1024 -22 867 -22 c 0,39,40
EndSplineSet
EndChar

StartChar: ordfeminine
Encoding: 170 170 108
Width: 757
GlyphClass: 2
Flags: W
LayerCount: 2
Fore
SplineSet
299 750 m 0,0,1
 203 750 203 750 139 806 c 128,-1,2
 75 862 75 862 75 963 c 0,3,4
 75 1011 75 1011 91.5 1049 c 128,-1,5
 108 1087 108 1087 140 1111.5 c 128,-1,6
 172 1136 172 1136 208 1153 c 128,-1,7
 244 1170 244 1170 294 1180.5 c 128,-1,8
 344 1191 344 1191 384 1196.5 c 128,-1,9
 424 1202 424 1202 477 1208 c 0,10,11
 497 1210 497 1210 506 1211 c 1,12,-1
 506 1243 l 2,13,14
 505 1319 505 1319 476 1351.5 c 128,-1,15
 447 1384 447 1384 382 1384 c 0,16,17
 274 1384 274 1384 133 1326 c 1,18,-1
 91 1436 l 1,19,20
 235 1514 235 1514 399 1514 c 0,21,22
 520 1514 520 1514 594.5 1455.5 c 128,-1,23
 669 1397 669 1397 669 1268 c 2,24,-1
 669 889 l 2,25,26
 669 787 669 787 670 764 c 1,27,-1
 535 764 l 1,28,-1
 518 849 l 1,29,30
 486 806 486 806 423.5 778 c 128,-1,31
 361 750 361 750 299 750 c 0,0,1
112 536 m 1,32,-1
 112 656 l 1,33,-1
 673 656 l 1,34,-1
 673 536 l 1,35,-1
 112 536 l 1,32,-1
317 878 m 0,36,37
 368 878 368 878 418.5 909 c 128,-1,38
 469 940 469 940 506 995 c 1,39,-1
 506 1106 l 1,40,41
 456 1099 456 1099 427.5 1094.5 c 128,-1,42
 399 1090 399 1090 362.5 1082.5 c 128,-1,43
 326 1075 326 1075 306 1065.5 c 128,-1,44
 286 1056 286 1056 266.5 1042.5 c 128,-1,45
 247 1029 247 1029 239 1010.5 c 128,-1,46
 231 992 231 992 231 968 c 0,47,48
 231 925 231 925 255 901.5 c 128,-1,49
 279 878 279 878 317 878 c 0,36,37
EndSplineSet
EndChar

StartChar: guillemotleft
Encoding: 171 171 109
Width: 1083
GlyphClass: 2
Flags: W
LayerCount: 2
Fore
SplineSet
388 136 m 1,0,-1
 74 546 l 1,1,-1
 84 589 l 1,2,-1
 391 987 l 1,3,-1
 598 934 l 1,4,-1
 318 562 l 1,5,-1
 593 190 l 1,6,-1
 388 136 l 1,0,-1
812 136 m 1,7,-1
 489 558 l 1,8,-1
 814 987 l 1,9,-1
 1015 934 l 1,10,-1
 741 562 l 1,11,-1
 1011 190 l 1,12,-1
 812 136 l 1,7,-1
EndSplineSet
EndChar

StartChar: logicalnot
Encoding: 172 172 110
Width: 1287
GlyphClass: 2
Flags: W
LayerCount: 2
Fore
SplineSet
961 247 m 1,0,-1
 961 641 l 1,1,-1
 132 641 l 1,2,-1
 132 834 l 1,3,-1
 1152 834 l 1,4,-1
 1152 247 l 1,5,-1
 961 247 l 1,0,-1
EndSplineSet
EndChar

StartChar: uni00AD
Encoding: 173 173 111
Width: 745
GlyphClass: 2
Flags: W
LayerCount: 2
Fore
SplineSet
76 380 m 1,0,-1
 76 584 l 1,1,-1
 671 584 l 1,2,-1
 671 380 l 1,3,-1
 76 380 l 1,0,-1
EndSplineSet
EndChar

StartChar: registered
Encoding: 174 174 112
Width: 1735
GlyphClass: 2
Flags: W
LayerCount: 2
Fore
SplineSet
556 271 m 1,0,-1
 556 1226 l 1,1,-1
 856 1226 l 2,2,3
 1214 1226 1214 1226 1214 964 c 0,4,5
 1214 854 1214 854 1164.5 792 c 128,-1,6
 1115 730 1115 730 1000 705 c 1,7,8
 1012 690 1012 690 1027 668 c 128,-1,9
 1042 646 1042 646 1061.5 614 c 128,-1,10
 1081 582 1081 582 1096 556.5 c 128,-1,11
 1111 531 1111 531 1136.5 485.5 c 128,-1,12
 1162 440 1162 440 1174.5 417 c 128,-1,13
 1187 394 1187 394 1216 341 c 128,-1,14
 1245 288 1245 288 1254 271 c 1,15,-1
 1089 271 l 1,16,17
 1063 317 1063 317 968 499 c 0,18,19
 870 679 870 679 856 688 c 1,20,-1
 704 688 l 1,21,-1
 704 271 l 1,22,-1
 556 271 l 1,0,-1
703 813 m 1,23,-1
 823 813 l 2,24,25
 872 813 872 813 906 816 c 128,-1,26
 940 819 940 819 972 828.5 c 128,-1,27
 1004 838 1004 838 1023 854.5 c 128,-1,28
 1042 871 1042 871 1053 897.5 c 128,-1,29
 1064 924 1064 924 1064 962 c 0,30,31
 1064 995 1064 995 1057.5 1018 c 128,-1,32
 1051 1041 1051 1041 1035 1056.5 c 128,-1,33
 1019 1072 1019 1072 1001.5 1080.5 c 128,-1,34
 984 1089 984 1089 951.5 1093.5 c 128,-1,35
 919 1098 919 1098 890.5 1099 c 128,-1,36
 862 1100 862 1100 814 1100 c 2,37,-1
 703 1100 l 1,38,-1
 703 813 l 1,23,-1
865 78 m 0,39,40
 1054 78 1054 78 1207 167 c 128,-1,41
 1360 256 1360 256 1444.5 407.5 c 128,-1,42
 1529 559 1529 559 1529 741 c 0,43,44
 1529 922 1529 922 1444.5 1073.5 c 128,-1,45
 1360 1225 1360 1225 1206.5 1314.5 c 128,-1,46
 1053 1404 1053 1404 864 1404 c 0,47,48
 677 1404 677 1404 525 1314.5 c 128,-1,49
 373 1225 373 1225 289 1074 c 128,-1,50
 205 923 205 923 205 742 c 0,51,52
 205 560 205 560 289.5 408.5 c 128,-1,53
 374 257 374 257 526 167.5 c 128,-1,54
 678 78 678 78 865 78 c 0,39,40
865 -22 m 0,55,56
 709 -22 709 -22 567 35 c 128,-1,57
 425 92 425 92 319.5 191 c 128,-1,58
 214 290 214 290 151.5 433.5 c 128,-1,59
 89 577 89 577 89 741 c 128,-1,60
 89 905 89 905 151.5 1048.5 c 128,-1,61
 214 1192 214 1192 319 1291.5 c 128,-1,62
 424 1391 424 1391 566 1448 c 128,-1,63
 708 1505 708 1505 864 1505 c 0,64,65
 1021 1505 1021 1505 1164 1448 c 128,-1,66
 1307 1391 1307 1391 1413 1291.5 c 128,-1,67
 1519 1192 1519 1192 1582 1048.5 c 128,-1,68
 1645 905 1645 905 1645 741 c 128,-1,69
 1645 577 1645 577 1582.5 433.5 c 128,-1,70
 1520 290 1520 290 1414 191 c 128,-1,71
 1308 92 1308 92 1165 35 c 128,-1,72
 1022 -22 1022 -22 865 -22 c 0,55,56
EndSplineSet
EndChar

StartChar: macron
Encoding: 175 175 113
Width: 912
GlyphClass: 2
Flags: W
LayerCount: 2
Fore
SplineSet
118 1377 m 1,0,-1
 118 1530 l 1,1,-1
 804 1530 l 1,2,-1
 804 1377 l 1,3,-1
 118 1377 l 1,0,-1
EndSplineSet
EndChar

StartChar: degree
Encoding: 176 176 114
Width: 850
GlyphClass: 2
Flags: W
LayerCount: 2
Fore
SplineSet
428 999 m 0,0,1
 494 999 494 999 542.5 1044.5 c 128,-1,2
 591 1090 591 1090 591 1165 c 0,3,4
 591 1238 591 1238 542.5 1282 c 128,-1,5
 494 1326 494 1326 428 1326 c 0,6,7
 361 1326 361 1326 312 1282 c 128,-1,8
 263 1238 263 1238 263 1165 c 0,9,10
 263 1090 263 1090 312 1044.5 c 128,-1,11
 361 999 361 999 428 999 c 0,0,1
427 870 m 0,12,13
 282 870 282 870 196.5 958 c 128,-1,14
 111 1046 111 1046 111 1167 c 0,15,16
 111 1287 111 1287 196.5 1371 c 128,-1,17
 282 1455 282 1455 427 1455 c 0,18,19
 570 1455 570 1455 656 1371 c 128,-1,20
 742 1287 742 1287 742 1167 c 128,-1,21
 742 1047 742 1047 656.5 958.5 c 128,-1,22
 571 870 571 870 427 870 c 0,12,13
EndSplineSet
EndChar

StartChar: plusminus
Encoding: 177 177 115
Width: 1288
GlyphClass: 2
Flags: W
LayerCount: 2
Fore
SplineSet
544 261 m 1,0,-1
 544 636 l 1,1,-1
 180 636 l 1,2,-1
 180 828 l 1,3,-1
 544 828 l 1,4,-1
 544 1196 l 1,5,-1
 743 1196 l 1,6,-1
 743 828 l 1,7,-1
 1109 828 l 1,8,-1
 1109 636 l 1,9,-1
 744 636 l 1,10,-1
 744 261 l 1,11,-1
 544 261 l 1,0,-1
180 0 m 1,12,-1
 180 177 l 1,13,-1
 1109 177 l 1,14,-1
 1109 0 l 1,15,-1
 180 0 l 1,12,-1
EndSplineSet
EndChar

StartChar: uni00B2
Encoding: 178 178 116
Width: 834
GlyphClass: 2
Flags: W
LayerCount: 2
Fore
SplineSet
146 574 m 1,0,-1
 146 716 l 1,1,2
 305 822 305 822 420.5 948.5 c 128,-1,3
 536 1075 536 1075 536 1159 c 0,4,5
 536 1216 536 1216 495 1249.5 c 128,-1,6
 454 1283 454 1283 399 1283 c 128,-1,7
 344 1283 344 1283 289 1251 c 128,-1,8
 234 1219 234 1219 201 1169 c 1,9,-1
 135 1289 l 1,10,11
 190 1361 190 1361 258 1400 c 128,-1,12
 326 1439 326 1439 422 1439 c 0,13,14
 537 1439 537 1439 618.5 1362.5 c 128,-1,15
 700 1286 700 1286 700 1163 c 0,16,17
 700 1099 700 1099 682.5 1045.5 c 128,-1,18
 665 992 665 992 617.5 935.5 c 128,-1,19
 570 879 570 879 534.5 845.5 c 128,-1,20
 499 812 499 812 416 741 c 0,21,22
 396 724 396 724 386 715 c 1,23,-1
 701 715 l 1,24,-1
 686 574 l 1,25,-1
 146 574 l 1,0,-1
EndSplineSet
EndChar

StartChar: uni00B3
Encoding: 179 179 117
Width: 800
GlyphClass: 2
Flags: W
LayerCount: 2
Fore
SplineSet
380 603 m 0,0,1
 235 603 235 603 125 685 c 1,2,-1
 174 811 l 1,3,4
 208 779 208 779 268 759 c 128,-1,5
 328 739 328 739 378 739 c 0,6,7
 447 739 447 739 486 774 c 128,-1,8
 525 809 525 809 525 877 c 0,9,10
 525 941 525 941 475.5 973 c 128,-1,11
 426 1005 426 1005 337 1005 c 2,12,-1
 260 1004 l 1,13,-1
 260 1140 l 1,14,-1
 339 1140 l 2,15,16
 495 1140 495 1140 495 1238 c 0,17,18
 495 1281 495 1281 467 1307 c 128,-1,19
 439 1333 439 1333 382 1333 c 0,20,21
 329 1333 329 1333 270.5 1314 c 128,-1,22
 212 1295 212 1295 179 1270 c 1,23,-1
 131 1381 l 1,24,25
 241 1470 241 1470 391 1470 c 0,26,27
 507 1470 507 1470 585.5 1412.5 c 128,-1,28
 664 1355 664 1355 664 1242 c 0,29,30
 661 1121 661 1121 538 1081 c 1,31,32
 598 1058 598 1058 640.5 1001.5 c 128,-1,33
 683 945 683 945 683 876 c 0,34,35
 683 747 683 747 595.5 675 c 128,-1,36
 508 603 508 603 380 603 c 0,0,1
EndSplineSet
EndChar

StartChar: acute
Encoding: 180 180 118
Width: 619
GlyphClass: 2
Flags: W
LayerCount: 2
Fore
SplineSet
191 1195 m 1,0,-1
 362 1578 l 1,1,-1
 661 1578 l 1,2,-1
 346 1195 l 1,3,-1
 191 1195 l 1,0,-1
EndSplineSet
EndChar

StartChar: paragraph
Encoding: 182 182 119
Width: 1201
GlyphClass: 2
Flags: W
LayerCount: 2
Fore
SplineSet
419 -150 m 1,0,-1
 419 782 l 1,1,2
 266 795 266 795 172 896.5 c 128,-1,3
 78 998 78 998 78 1144 c 0,4,5
 78 1236 78 1236 118 1303.5 c 128,-1,6
 158 1371 158 1371 231 1410 c 128,-1,7
 304 1449 304 1449 397.5 1467.5 c 128,-1,8
 491 1486 491 1486 607 1486 c 2,9,-1
 1026 1486 l 1,10,-1
 1026 1315 l 1,11,-1
 944 1315 l 1,12,-1
 944 -151 l 1,13,-1
 778 -151 l 1,14,-1
 778 1315 l 1,15,-1
 613 1315 l 1,16,-1
 613 -151 l 1,17,-1
 419 -150 l 1,0,-1
EndSplineSet
EndChar

StartChar: periodcentered
Encoding: 183 183 120
Width: 422
GlyphClass: 2
Flags: W
LayerCount: 2
Fore
SplineSet
90 488 m 1,0,-1
 90 740 l 1,1,-1
 332 740 l 1,2,-1
 332 488 l 1,3,-1
 90 488 l 1,0,-1
EndSplineSet
EndChar

StartChar: cedilla
Encoding: 184 184 121
Width: 589
GlyphClass: 2
Flags: W
LayerCount: 2
Fore
SplineSet
62 -357 m 1,0,-1
 185 24 l 1,1,-1
 329 24 l 1,2,-1
 271 -357 l 1,3,-1
 62 -357 l 1,0,-1
EndSplineSet
EndChar

StartChar: uni00B9
Encoding: 185 185 122
Width: 743
GlyphClass: 2
Flags: W
LayerCount: 2
Fore
SplineSet
151 601 m 1,0,-1
 151 749 l 1,1,-1
 293 749 l 1,2,-1
 293 1304 l 1,3,4
 288 1301 288 1301 212.5 1266 c 128,-1,5
 137 1231 137 1231 132 1228 c 1,6,-1
 132 1376 l 2,7,8
 134 1377 134 1377 187 1403.5 c 128,-1,9
 240 1430 240 1430 288 1455 c 128,-1,10
 336 1480 336 1480 340 1484 c 1,11,-1
 484 1484 l 1,12,-1
 484 749 l 1,13,-1
 624 749 l 1,14,-1
 624 601 l 1,15,-1
 151 601 l 1,0,-1
EndSplineSet
EndChar

StartChar: ordmasculine
Encoding: 186 186 123
Width: 865
GlyphClass: 2
Flags: W
LayerCount: 2
Fore
SplineSet
439 899 m 0,0,1
 533 899 533 899 581 961 c 128,-1,2
 629 1023 629 1023 629 1125 c 0,3,4
 629 1232 629 1232 580.5 1295 c 128,-1,5
 532 1358 532 1358 435 1358 c 0,6,7
 341 1358 341 1358 293 1295 c 128,-1,8
 245 1232 245 1232 245 1129 c 0,9,10
 245 1022 245 1022 293 960.5 c 128,-1,11
 341 899 341 899 439 899 c 0,0,1
439 744 m 0,12,13
 265 744 265 744 167 850.5 c 128,-1,14
 69 957 69 957 69 1131 c 0,15,16
 69 1301 69 1301 169 1406.5 c 128,-1,17
 269 1512 269 1512 438 1512 c 0,18,19
 608 1512 608 1512 705.5 1405.5 c 128,-1,20
 803 1299 803 1299 803 1127 c 0,21,22
 803 958 803 958 704.5 851 c 128,-1,23
 606 744 606 744 439 744 c 0,12,13
EndSplineSet
EndChar

StartChar: guillemotright
Encoding: 187 187 124
Width: 1168
GlyphClass: 2
Flags: W
LayerCount: 2
Fore
SplineSet
314 136 m 1,0,-1
 113 190 l 1,1,-1
 387 562 l 1,2,-1
 116 934 l 1,3,-1
 316 987 l 1,4,-1
 640 565 l 1,5,-1
 314 136 l 1,0,-1
749 136 m 1,6,-1
 545 190 l 1,7,-1
 822 562 l 1,8,-1
 550 934 l 1,9,-1
 753 987 l 1,10,-1
 1071 565 l 1,11,-1
 749 136 l 1,6,-1
EndSplineSet
EndChar

StartChar: onequarter
Encoding: 188 188 125
Width: 1731
GlyphClass: 2
Flags: W
LayerCount: 2
Fore
SplineSet
104 601 m 1,0,-1
 104 749 l 1,1,-1
 246 749 l 1,2,-1
 246 1304 l 1,3,4
 241 1301 241 1301 165 1265.5 c 128,-1,5
 89 1230 89 1230 85 1228 c 1,6,-1
 85 1376 l 1,7,8
 287 1477 287 1477 294 1484 c 1,9,-1
 437 1484 l 1,10,-1
 437 749 l 1,11,-1
 578 749 l 1,12,-1
 578 601 l 1,13,-1
 104 601 l 1,0,-1
1388 10 m 1,14,-1
 1388 182 l 1,15,-1
 985 182 l 1,16,-1
 985 324 l 1,17,-1
 1372 865 l 1,18,-1
 1547 865 l 1,19,-1
 1547 318 l 1,20,-1
 1662 318 l 1,21,-1
 1664 182 l 1,22,-1
 1546 182 l 1,23,-1
 1545 10 l 1,24,-1
 1388 10 l 1,14,-1
305 0 m 1,25,-1
 1327 1471 l 1,26,-1
 1521 1471 l 1,27,-1
 506 0 l 1,28,-1
 305 0 l 1,25,-1
1176 318 m 1,29,-1
 1386 318 l 1,30,31
 1386 639 1386 639 1387 646 c 2,32,-1
 1176 318 l 1,29,-1
EndSplineSet
EndChar

StartChar: onehalf
Encoding: 189 189 126
Width: 1805
GlyphClass: 2
Flags: W
LayerCount: 2
Fore
SplineSet
125 601 m 1,0,-1
 125 733 l 1,1,-1
 267 733 l 1,2,-1
 267 1321 l 1,3,4
 224 1293 224 1293 106 1228 c 1,5,-1
 106 1376 l 1,6,7
 122 1384 122 1384 201.5 1430.5 c 128,-1,8
 281 1477 281 1477 288 1484 c 1,9,-1
 458 1484 l 1,10,-1
 458 733 l 1,11,-1
 599 733 l 1,12,-1
 599 601 l 1,13,-1
 125 601 l 1,0,-1
1136 -29 m 1,14,-1
 1137 107 l 1,15,16
 1173 138 1173 138 1234.5 188 c 128,-1,17
 1296 238 1296 238 1331.5 267.5 c 128,-1,18
 1367 297 1367 297 1412.5 339.5 c 128,-1,19
 1458 382 1458 382 1482.5 413.5 c 128,-1,20
 1507 445 1507 445 1524.5 482.5 c 128,-1,21
 1542 520 1542 520 1542 555 c 0,22,23
 1542 614 1542 614 1499.5 649 c 128,-1,24
 1457 684 1457 684 1402 684 c 0,25,26
 1343 684 1343 684 1285.5 659 c 128,-1,27
 1228 634 1228 634 1192 587 c 1,28,-1
 1126 704 l 1,29,30
 1169 769 1169 769 1247 802 c 128,-1,31
 1325 835 1325 835 1424 835 c 0,32,33
 1541 835 1541 835 1625.5 760.5 c 128,-1,34
 1710 686 1710 686 1710 561 c 0,35,36
 1710 517 1710 517 1701.5 478.5 c 128,-1,37
 1693 440 1693 440 1670.5 402 c 128,-1,38
 1648 364 1648 364 1628 336.5 c 128,-1,39
 1608 309 1608 309 1566 270 c 128,-1,40
 1524 231 1524 231 1497 207.5 c 128,-1,41
 1470 184 1470 184 1414 138 c 0,42,43
 1388 116 1388 116 1374 105 c 1,44,-1
 1709 105 l 1,45,-1
 1693 -29 l 1,46,-1
 1136 -29 l 1,14,-1
310 0 m 1,47,-1
 1331 1471 l 1,48,-1
 1529 1471 l 1,49,-1
 510 0 l 1,50,-1
 310 0 l 1,47,-1
EndSplineSet
EndChar

StartChar: threequarters
Encoding: 190 190 127
Width: 1683
GlyphClass: 2
Flags: W
LayerCount: 2
Fore
SplineSet
343 621 m 0,0,1
 200 621 200 621 88 703 c 1,2,-1
 137 825 l 1,3,4
 170 795 170 795 226.5 778 c 128,-1,5
 283 761 283 761 335 761 c 0,6,7
 403 761 403 761 443 793.5 c 128,-1,8
 483 826 483 826 483 889 c 0,9,10
 483 1005 483 1005 301 1005 c 2,11,-1
 224 1004 l 1,12,-1
 224 1140 l 1,13,-1
 302 1140 l 2,14,15
 458 1140 458 1140 458 1239 c 0,16,17
 458 1281 458 1281 428.5 1305.5 c 128,-1,18
 399 1330 399 1330 341 1330 c 0,19,20
 288 1330 288 1330 230.5 1312.5 c 128,-1,21
 173 1295 173 1295 141 1270 c 1,22,-1
 79 1377 l 1,23,24
 131 1420 131 1420 205 1445.5 c 128,-1,25
 279 1471 279 1471 356 1471 c 0,26,27
 472 1471 472 1471 553 1412.5 c 128,-1,28
 634 1354 634 1354 634 1244 c 0,29,30
 634 1233 634 1233 629 1214 c 128,-1,31
 624 1195 624 1195 612.5 1168.5 c 128,-1,32
 601 1142 601 1142 574 1117.5 c 128,-1,33
 547 1093 547 1093 510 1081 c 1,34,35
 571 1059 571 1059 611.5 1005 c 128,-1,36
 652 951 652 951 652 883 c 0,37,38
 652 800 652 800 607.5 739 c 128,-1,39
 563 678 563 678 494.5 649.5 c 128,-1,40
 426 621 426 621 343 621 c 0,0,1
1339 11 m 1,41,-1
 1339 190 l 1,42,-1
 935 190 l 1,43,-1
 935 332 l 1,44,-1
 1322 889 l 1,45,-1
 1498 889 l 1,46,-1
 1498 325 l 1,47,-1
 1612 325 l 1,48,-1
 1614 190 l 1,49,-1
 1497 190 l 1,50,-1
 1496 11 l 1,51,-1
 1339 11 l 1,41,-1
279 0 m 1,52,-1
 1299 1471 l 1,53,-1
 1495 1471 l 1,54,-1
 482 0 l 1,55,-1
 279 0 l 1,52,-1
1126 325 m 1,56,-1
 1336 325 l 1,57,58
 1336 651 1336 651 1337 665 c 1,59,-1
 1126 325 l 1,56,-1
EndSplineSet
EndChar

StartChar: AE
Encoding: 198 198 135
Width: 2021
GlyphClass: 2
Flags: W
LayerCount: 2
Fore
SplineSet
38 0 m 1,0,-1
 882 1481 l 1,1,-1
 1891 1481 l 1,2,-1
 1876 1285 l 1,3,-1
 1269 1285 l 1,4,-1
 1302 851 l 1,5,-1
 1851 851 l 1,6,-1
 1851 655 l 1,7,-1
 1322 655 l 1,8,-1
 1361 196 l 1,9,-1
 1926 196 l 1,10,-1
 1912 0 l 1,11,-1
 1099 0 l 1,12,-1
 1069 375 l 1,13,-1
 545 375 l 1,14,-1
 340 0 l 1,15,-1
 38 0 l 1,0,-1
638 572 m 1,16,-1
 1053 572 l 1,17,-1
 1003 1235 l 1,18,-1
 638 572 l 1,16,-1
EndSplineSet
EndChar

StartChar: Eth
Encoding: 208 208 145
Width: 1524
GlyphClass: 2
Flags: W
LayerCount: 2
Fore
SplineSet
398 206 m 1,0,-1
 633 206 l 2,1,2
 892 206 892 206 1031.5 340 c 128,-1,3
 1171 474 1171 474 1171 725 c 0,4,5
 1171 874 1171 874 1131 977.5 c 128,-1,6
 1091 1081 1091 1081 1009 1142 c 128,-1,7
 927 1203 927 1203 814 1229.5 c 128,-1,8
 701 1256 701 1256 542 1256 c 2,9,-1
 398 1256 l 1,10,-1
 398 829 l 1,11,-1
 597 829 l 1,12,-1
 597 650 l 1,13,-1
 398 650 l 1,14,-1
 398 206 l 1,0,-1
131 1 m 1,15,-1
 131 650 l 1,16,-1
 6 650 l 1,17,-1
 6 829 l 1,18,-1
 131 829 l 1,19,-1
 131 1463 l 1,20,-1
 522 1463 l 2,21,22
 1441 1463 1441 1463 1441 729 c 0,23,24
 1441 553 1441 553 1381 414 c 128,-1,25
 1321 275 1321 275 1212 185 c 128,-1,26
 1103 95 1103 95 952 48 c 128,-1,27
 801 1 801 1 617 1 c 2,28,-1
 131 1 l 1,15,-1
EndSplineSet
EndChar

StartChar: multiply
Encoding: 215 215 152
Width: 1395
GlyphClass: 2
Flags: W
LayerCount: 2
Fore
SplineSet
412 147 m 1,0,-1
 278 283 l 1,1,-1
 569 583 l 1,2,-1
 278 882 l 1,3,-1
 412 1020 l 1,4,-1
 713 725 l 1,5,-1
 1013 1020 l 1,6,-1
 1149 881 l 1,7,-1
 857 583 l 1,8,9
 898 543 898 543 1008.5 428.5 c 128,-1,10
 1119 314 1119 314 1149 284 c 1,11,-1
 1013 147 l 1,12,-1
 713 441 l 1,13,-1
 412 147 l 1,0,-1
EndSplineSet
EndChar

StartChar: Oslash
Encoding: 216 216 153
Width: 1624
GlyphClass: 2
Flags: W
LayerCount: 2
Fore
SplineSet
470 -211 m 1,0,-1
 370 -169 l 1,1,-1
 466 52 l 1,2,3
 286 138 286 138 185 312.5 c 128,-1,4
 84 487 84 487 84 730 c 0,5,6
 84 905 84 905 138 1047.5 c 128,-1,7
 192 1190 192 1190 289 1285.5 c 128,-1,8
 386 1381 386 1381 521 1433 c 128,-1,9
 656 1485 656 1485 816 1485 c 0,10,11
 953 1485 953 1485 1073 1447 c 1,12,-1
 1166 1660 l 1,13,-1
 1272 1619 l 1,14,-1
 1179 1404 l 1,15,16
 1351 1315 1351 1315 1447 1142 c 128,-1,17
 1543 969 1543 969 1543 730 c 0,18,19
 1543 558 1543 558 1489 416.5 c 128,-1,20
 1435 275 1435 275 1339 179.5 c 128,-1,21
 1243 84 1243 84 1107.5 31.5 c 128,-1,22
 972 -21 972 -21 812 -21 c 0,23,24
 684 -21 684 -21 568 13 c 1,25,-1
 470 -211 l 1,0,-1
557 260 m 1,26,-1
 984 1244 l 1,27,28
 905 1271 905 1271 815 1271 c 0,29,30
 591 1271 591 1271 473.5 1124 c 128,-1,31
 356 977 356 977 356 726 c 0,32,33
 356 565 356 565 407 445 c 128,-1,34
 458 325 458 325 557 260 c 1,26,-1
815 191 m 0,35,36
 1040 191 1040 191 1157 334.5 c 128,-1,37
 1274 478 1274 478 1274 726 c 0,38,39
 1274 885 1274 885 1226 1005 c 128,-1,40
 1178 1125 1178 1125 1085 1192 c 1,41,-1
 657 213 l 1,42,43
 726 191 726 191 815 191 c 0,35,36
EndSplineSet
EndChar

StartChar: Thorn
Encoding: 222 222 159
Width: 1327
GlyphClass: 2
Flags: W
LayerCount: 2
Fore
SplineSet
178 11 m 1,0,-1
 178 1454 l 1,1,-1
 400 1454 l 1,2,-1
 400 1229 l 1,3,-1
 687 1229 l 2,4,5
 817 1229 817 1229 921 1204.5 c 128,-1,6
 1025 1180 1025 1180 1105.5 1128.5 c 128,-1,7
 1186 1077 1186 1077 1230 990 c 128,-1,8
 1274 903 1274 903 1274 785 c 0,9,10
 1274 573 1274 573 1121.5 455 c 128,-1,11
 969 337 969 337 724 337 c 2,12,-1
 400 339 l 1,13,-1
 400 11 l 1,14,-1
 178 11 l 1,0,-1
401 534 m 1,15,-1
 737 534 l 2,16,17
 886 534 886 534 968 602 c 128,-1,18
 1050 670 1050 670 1050 793 c 0,19,20
 1050 928 1050 928 965 990 c 128,-1,21
 880 1052 880 1052 710 1052 c 2,22,-1
 400 1052 l 1,23,-1
 401 534 l 1,15,-1
EndSplineSet
EndChar

StartChar: germandbls
Encoding: 223 223 160
Width: 1259
GlyphClass: 2
Flags: W
LayerCount: 2
Fore
SplineSet
108 0 m 1,0,-1
 108 1024 l 2,1,2
 108 1246 108 1246 230.5 1368 c 128,-1,3
 353 1490 353 1490 583 1490 c 0,4,5
 676 1490 676 1490 756.5 1468.5 c 128,-1,6
 837 1447 837 1447 900 1405 c 128,-1,7
 963 1363 963 1363 999 1296 c 128,-1,8
 1035 1229 1035 1229 1035 1144 c 0,9,10
 1035 1083 1035 1083 1014 1032.5 c 128,-1,11
 993 982 993 982 944.5 937 c 128,-1,12
 896 892 896 892 866 870.5 c 128,-1,13
 836 849 836 849 769 808 c 0,14,15
 760 802 760 802 755 799 c 1,16,17
 777 786 777 786 824 761.5 c 128,-1,18
 871 737 871 737 900 721 c 128,-1,19
 929 705 929 705 973 677.5 c 128,-1,20
 1017 650 1017 650 1045.5 627 c 128,-1,21
 1074 604 1074 604 1106.5 571 c 128,-1,22
 1139 538 1139 538 1158 505.5 c 128,-1,23
 1177 473 1177 473 1189.5 431 c 128,-1,24
 1202 389 1202 389 1202 344 c 0,25,26
 1202 229 1202 229 1147.5 150 c 128,-1,27
 1093 71 1093 71 1003 35.5 c 128,-1,28
 913 0 913 0 794 0 c 2,29,-1
 502 0 l 1,30,-1
 527 179 l 1,31,-1
 767 179 l 2,32,33
 851 179 851 179 897 223.5 c 128,-1,34
 943 268 943 268 943 345 c 0,35,36
 943 391 943 391 921.5 430.5 c 128,-1,37
 900 470 900 470 858 503 c 128,-1,38
 816 536 816 536 777.5 558.5 c 128,-1,39
 739 581 739 581 679 612.5 c 128,-1,40
 619 644 619 644 589 663 c 0,41,42
 502 716 502 716 502 786 c 0,43,44
 502 849 502 849 573 903 c 0,45,46
 591 916 591 916 629.5 942.5 c 128,-1,47
 668 969 668 969 689 985.5 c 128,-1,48
 710 1002 710 1002 735.5 1027.5 c 128,-1,49
 761 1053 761 1053 773 1081.5 c 128,-1,50
 785 1110 785 1110 785 1144 c 0,51,52
 785 1217 785 1217 728.5 1258 c 128,-1,53
 672 1299 672 1299 582 1299 c 0,54,55
 516 1299 516 1299 472 1279.5 c 128,-1,56
 428 1260 428 1260 404.5 1221 c 128,-1,57
 381 1182 381 1182 372 1133.5 c 128,-1,58
 363 1085 363 1085 363 1016 c 2,59,-1
 363 0 l 1,60,-1
 108 0 l 1,0,-1
EndSplineSet
EndChar

StartChar: ae
Encoding: 230 230 167
Width: 1679
GlyphClass: 2
Flags: W
LayerCount: 2
Fore
SplineSet
411 -22 m 0,0,1
 258 -22 258 -22 165 74 c 128,-1,2
 72 170 72 170 72 317 c 0,3,4
 72 362 72 362 80.5 398 c 128,-1,5
 89 434 89 434 110.5 462 c 128,-1,6
 132 490 132 490 154 510.5 c 128,-1,7
 176 531 176 531 217.5 547.5 c 128,-1,8
 259 564 259 564 292.5 574.5 c 128,-1,9
 326 585 326 585 386 594.5 c 128,-1,10
 446 604 446 604 489.5 609.5 c 128,-1,11
 533 615 533 615 608 623 c 2,12,-1
 693 630 l 1,13,-1
 693 747 l 2,14,15
 693 850 693 850 653.5 897.5 c 128,-1,16
 614 945 614 945 507 949 c 1,17,18
 366 949 366 949 183 872 c 1,19,-1
 134 1052 l 1,20,21
 309 1135 309 1135 523 1135 c 0,22,23
 649 1135 649 1135 734 1089.5 c 128,-1,24
 819 1044 819 1044 848 959 c 1,25,26
 905 1038 905 1038 999.5 1086.5 c 128,-1,27
 1094 1135 1094 1135 1209 1135 c 0,28,29
 1314 1135 1314 1135 1394 1094 c 128,-1,30
 1474 1053 1474 1053 1520.5 980.5 c 128,-1,31
 1567 908 1567 908 1590 819 c 128,-1,32
 1613 730 1613 730 1613 625 c 0,33,34
 1613 581 1613 581 1574 560.5 c 128,-1,35
 1535 540 1535 540 1456 537 c 0,36,37
 1263 526 1263 526 941 500 c 1,38,39
 948 339 948 339 1021.5 254 c 128,-1,40
 1095 169 1095 169 1232 168 c 0,41,42
 1322 168 1322 168 1399 192 c 128,-1,43
 1476 216 1476 216 1519 249 c 1,44,-1
 1591 87 l 1,45,46
 1442 -21 1442 -21 1216 -21 c 0,47,48
 966 -21 966 -21 837 138 c 1,49,50
 662 -22 662 -22 411 -22 c 0,0,1
449 150 m 0,51,52
 584 150 584 150 744 273 c 1,53,54
 732 297 732 297 715.5 360.5 c 128,-1,55
 699 424 699 424 698 475 c 0,56,57
 695 475 695 475 652 469.5 c 128,-1,58
 609 464 609 464 607 464 c 0,59,60
 541 456 541 456 498.5 448.5 c 128,-1,61
 456 441 456 441 416 429 c 128,-1,62
 376 417 376 417 354 401 c 128,-1,63
 332 385 332 385 319 361 c 128,-1,64
 306 337 306 337 306 305 c 0,65,66
 306 230 306 230 342.5 190 c 128,-1,67
 379 150 379 150 449 150 c 0,51,52
944 644 m 1,68,-1
 1380 683 l 1,69,70
 1382 697 1382 697 1382 714 c 0,71,72
 1380 944 1380 944 1207 944 c 0,73,74
 1160 944 1160 944 1118 929 c 128,-1,75
 1076 914 1076 914 1038 881 c 128,-1,76
 1000 848 1000 848 975 787.5 c 128,-1,77
 950 727 950 727 944 644 c 1,68,-1
EndSplineSet
EndChar

StartChar: eth
Encoding: 240 240 177
Width: 1226
GlyphClass: 2
Flags: W
LayerCount: 2
Fore
SplineSet
626 -21 m 0,0,1
 383 -21 383 -21 233.5 114.5 c 128,-1,2
 84 250 84 250 84 467 c 0,3,4
 84 695 84 695 218.5 824 c 128,-1,5
 353 953 353 953 581 953 c 0,6,7
 636 953 636 953 730 924 c 1,8,9
 722 939 722 939 629 1050 c 128,-1,10
 536 1161 536 1161 505 1193 c 1,11,-1
 256 1092 l 1,12,-1
 189 1226 l 1,13,-1
 394 1309 l 1,14,-1
 191 1509 l 1,15,-1
 489 1509 l 1,16,-1
 608 1396 l 1,17,-1
 858 1496 l 1,18,-1
 927 1364 l 1,19,-1
 716 1280 l 1,20,21
 940 1032 940 1032 1047 858 c 0,22,23
 1159 674 1159 674 1159 481 c 0,24,25
 1159 376 1159 376 1126.5 286.5 c 128,-1,26
 1094 197 1094 197 1030 127.5 c 128,-1,27
 966 58 966 58 862.5 18.5 c 128,-1,28
 759 -21 759 -21 626 -21 c 0,0,1
625 178 m 0,29,30
 766 178 766 178 842.5 257.5 c 128,-1,31
 919 337 919 337 919 472 c 0,32,33
 919 608 919 608 840.5 691 c 128,-1,34
 762 774 762 774 619 774 c 128,-1,35
 476 774 476 774 399.5 694.5 c 128,-1,36
 323 615 323 615 323 478 c 0,37,38
 323 344 323 344 403 261 c 128,-1,39
 483 178 483 178 625 178 c 0,29,30
EndSplineSet
EndChar

StartChar: divide
Encoding: 247 247 184
Width: 1456
GlyphClass: 2
Flags: W
LayerCount: 2
Fore
SplineSet
590 21 m 1,0,-1
 590 281 l 1,1,-1
 865 281 l 1,2,-1
 865 21 l 1,3,-1
 590 21 l 1,0,-1
178 489 m 1,4,-1
 178 676 l 1,5,-1
 1274 676 l 1,6,-1
 1274 489 l 1,7,-1
 178 489 l 1,4,-1
590 875 m 1,8,-1
 590 1134 l 1,9,-1
 874 1134 l 1,10,-1
 874 875 l 1,11,-1
 590 875 l 1,8,-1
EndSplineSet
EndChar

StartChar: oslash
Encoding: 248 248 185
Width: 1193
GlyphClass: 2
Flags: W
LayerCount: 2
Fore
SplineSet
302 -215 m 1,0,-1
 240 -181 l 1,1,-1
 336 41 l 1,2,3
 207 107 207 107 139 240 c 128,-1,4
 71 373 71 373 71 550 c 0,5,6
 71 810 71 810 209.5 964.5 c 128,-1,7
 348 1119 348 1119 601 1119 c 0,8,9
 707 1119 707 1119 800 1089 c 1,10,-1
 894 1269 l 1,11,-1
 963 1246 l 1,12,-1
 870 1059 l 1,13,14
 995 993 995 993 1060 861.5 c 128,-1,15
 1125 730 1125 730 1125 552 c 0,16,17
 1125 296 1125 296 987 140 c 128,-1,18
 849 -16 849 -16 595 -16 c 0,19,20
 488 -16 488 -16 403 14 c 1,21,-1
 302 -215 l 1,0,-1
420 231 m 1,22,-1
 721 913 l 1,23,24
 668 940 668 940 598 940 c 0,25,26
 464 940 464 940 391 838.5 c 128,-1,27
 318 737 318 737 318 551 c 0,28,29
 318 330 318 330 420 231 c 1,22,-1
599 163 m 0,30,31
 734 163 734 163 806 265 c 128,-1,32
 878 367 878 367 878 551 c 0,33,34
 878 769 878 769 783 867 c 1,35,-1
 482 188 l 1,36,37
 532 163 532 163 599 163 c 0,30,31
EndSplineSet
EndChar

StartChar: thorn
Encoding: 254 254 191
Width: 1288
GlyphClass: 2
Flags: W
LayerCount: 2
Fore
SplineSet
160 -431 m 1,0,-1
 160 1205 l 1,1,-1
 155 1498 l 1,2,-1
 385 1498 l 1,3,-1
 385 938 l 1,4,5
 412 977 412 977 501.5 1024.5 c 128,-1,6
 591 1072 591 1072 711 1072 c 0,7,8
 832 1072 832 1072 927.5 1029 c 128,-1,9
 1023 986 1023 986 1083 910.5 c 128,-1,10
 1143 835 1143 835 1174.5 736 c 128,-1,11
 1206 637 1206 637 1206 521 c 0,12,13
 1206 432 1206 432 1188 353 c 128,-1,14
 1170 274 1170 274 1131.5 205.5 c 128,-1,15
 1093 137 1093 137 1037.5 87.5 c 128,-1,16
 982 38 982 38 902 9.5 c 128,-1,17
 822 -19 822 -19 726 -19 c 0,18,19
 654 -19 654 -19 589.5 -2.5 c 128,-1,20
 525 14 525 14 484 38 c 128,-1,21
 443 62 443 62 418.5 82.5 c 128,-1,22
 394 103 394 103 385 118 c 1,23,-1
 385 -431 l 1,24,-1
 160 -431 l 1,0,-1
694 176 m 0,25,26
 769 176 769 176 824.5 204.5 c 128,-1,27
 880 233 880 233 912 283.5 c 128,-1,28
 944 334 944 334 959.5 396 c 128,-1,29
 975 458 975 458 975 531 c 128,-1,30
 975 604 975 604 959.5 665.5 c 128,-1,31
 944 727 944 727 912.5 777.5 c 128,-1,32
 881 828 881 828 825.5 856.5 c 128,-1,33
 770 885 770 885 696 885 c 0,34,35
 540 885 540 885 462 788.5 c 128,-1,36
 384 692 384 692 384 531 c 0,37,38
 384 368 384 368 460 272 c 128,-1,39
 536 176 536 176 694 176 c 0,25,26
EndSplineSet
EndChar

StartChar: dcroat
Encoding: 273 273 208
Width: 1235
GlyphClass: 2
Flags: W
LayerCount: 2
Fore
SplineSet
554 -21 m 0,0,1
 404 -19 404 -19 292 58.5 c 128,-1,2
 180 136 180 136 123 266.5 c 128,-1,3
 66 397 66 397 66 564 c 0,4,5
 66 680 66 680 99 783 c 128,-1,6
 132 886 132 886 192 964.5 c 128,-1,7
 252 1043 252 1043 345 1089 c 128,-1,8
 438 1135 438 1135 550 1135 c 0,9,10
 673 1135 673 1135 755 1087 c 128,-1,11
 837 1039 837 1039 874 967 c 1,12,-1
 874 1209 l 1,13,-1
 589 1209 l 1,14,-1
 589 1351 l 1,15,-1
 874 1351 l 1,16,-1
 874 1497 l 1,17,-1
 1129 1515 l 1,18,-1
 1129 1351 l 1,19,-1
 1235 1351 l 1,20,-1
 1235 1209 l 1,21,-1
 1129 1209 l 1,22,-1
 1129 0 l 1,23,-1
 884 0 l 1,24,-1
 874 155 l 1,25,26
 829 75 829 75 748 27 c 128,-1,27
 667 -21 667 -21 554 -21 c 0,0,1
596 173 m 0,28,29
 724 173 724 173 801 265.5 c 128,-1,30
 878 358 878 358 878 554 c 0,31,32
 878 748 878 748 800 844.5 c 128,-1,33
 722 941 722 941 596 941 c 0,34,35
 473 941 473 941 393 845 c 128,-1,36
 313 749 313 749 313 555 c 0,37,38
 313 365 313 365 392.5 269 c 128,-1,39
 472 173 472 173 596 173 c 0,28,29
EndSplineSet
EndChar

StartChar: uni0122
Encoding: 290 290 223
Width: 1466
GlyphClass: 2
Flags: W
LayerCount: 2
Fore
SplineSet
576 -641 m 1,0,-1
 671 -143 l 1,1,-1
 856 -143 l 1,2,-1
 712 -641 l 1,3,-1
 576 -641 l 1,0,-1
812 -21 m 0,4,5
 477 -21 477 -21 288.5 181 c 128,-1,6
 100 383 100 383 100 734 c 0,7,8
 100 957 100 957 188 1126.5 c 128,-1,9
 276 1296 276 1296 447 1391 c 128,-1,10
 618 1486 618 1486 851 1486 c 0,11,12
 1118 1486 1118 1486 1309 1371 c 1,13,-1
 1221 1169 l 1,14,15
 1039 1267 1039 1267 856 1267 c 0,16,17
 634 1267 634 1267 507 1123 c 128,-1,18
 380 979 380 979 380 731 c 0,19,20
 380 485 380 485 493 342 c 128,-1,21
 606 199 606 199 824 199 c 0,22,23
 964 199 964 199 1078 243 c 1,24,-1
 1078 583 l 1,25,-1
 771 583 l 1,26,-1
 773 796 l 1,27,-1
 1333 796 l 1,28,-1
 1333 89 l 1,29,30
 1197 33 1197 33 1075.5 6 c 128,-1,31
 954 -21 954 -21 812 -21 c 0,4,5
EndSplineSet
EndChar

StartChar: uni0123
Encoding: 291 291 224
Width: 1268
GlyphClass: 2
Flags: W
LayerCount: 2
Fore
SplineSet
353 -492 m 1,0,-1
 338 -280 l 1,1,-1
 471 -280 l 2,2,3
 702 -280 702 -280 794 -218.5 c 128,-1,4
 886 -157 886 -157 886 7 c 0,5,6
 886 74 886 74 880 152 c 1,7,8
 854 116 854 116 830.5 92.5 c 128,-1,9
 807 69 807 69 771.5 46 c 128,-1,10
 736 23 736 23 686.5 11.5 c 128,-1,11
 637 0 637 0 574 0 c 0,12,13
 356 0 356 0 215.5 157 c 128,-1,14
 75 314 75 314 75 562 c 0,15,16
 75 694 75 694 114 802.5 c 128,-1,17
 153 911 153 911 220 981 c 128,-1,18
 287 1051 287 1051 374.5 1088.5 c 128,-1,19
 462 1126 462 1126 561 1126 c 0,20,21
 782 1126 782 1126 890 965 c 1,22,-1
 908 1099 l 1,23,-1
 1142 1099 l 1,24,-1
 1142 78 l 2,25,26
 1142 -4 1142 -4 1134 -69.5 c 128,-1,27
 1126 -135 1126 -135 1106 -195.5 c 128,-1,28
 1086 -256 1086 -256 1053.5 -301 c 128,-1,29
 1021 -346 1021 -346 972 -383 c 128,-1,30
 923 -420 923 -420 856.5 -443.5 c 128,-1,31
 790 -467 790 -467 702 -479.5 c 128,-1,32
 614 -492 614 -492 504 -492 c 2,33,-1
 353 -492 l 1,0,-1
616 183 m 0,34,35
 887 183 887 183 890 546 c 2,36,-1
 890 584 l 2,37,38
 888 747 888 747 822 836 c 128,-1,39
 756 925 756 925 629 926 c 0,40,41
 485 926 485 926 411 827.5 c 128,-1,42
 337 729 337 729 337 562 c 0,43,44
 337 401 337 401 411.5 292 c 128,-1,45
 486 183 486 183 616 183 c 0,34,35
445 1213 m 1,46,-1
 610 1730 l 1,47,-1
 775 1730 l 1,48,-1
 666 1213 l 1,49,-1
 445 1213 l 1,46,-1
EndSplineSet
EndChar

StartChar: Hbar
Encoding: 294 294 227
Width: 1491
GlyphClass: 2
Flags: W
LayerCount: 2
Fore
SplineSet
131 0 m 1,0,-1
 131 1178 l 1,1,-1
 45 1178 l 1,2,-1
 45 1310 l 1,3,-1
 131 1310 l 1,4,-1
 131 1458 l 1,5,-1
 398 1458 l 1,6,-1
 398 1310 l 1,7,-1
 1095 1310 l 1,8,-1
 1095 1458 l 1,9,-1
 1363 1458 l 1,10,-1
 1363 1310 l 1,11,-1
 1449 1310 l 1,12,-1
 1449 1178 l 1,13,-1
 1363 1178 l 1,14,-1
 1363 0 l 1,15,-1
 1095 0 l 1,16,-1
 1095 658 l 1,17,-1
 398 658 l 1,18,-1
 398 0 l 1,19,-1
 131 0 l 1,0,-1
398 853 m 1,20,-1
 1095 853 l 1,21,-1
 1095 1178 l 1,22,-1
 398 1178 l 1,23,-1
 398 853 l 1,20,-1
EndSplineSet
EndChar

StartChar: hbar
Encoding: 295 295 228
Width: 1189
GlyphClass: 2
Flags: W
LayerCount: 2
Fore
SplineSet
107 0 m 1,0,-1
 107 1225 l 1,1,-1
 5 1225 l 1,2,-1
 5 1361 l 1,3,-1
 107 1361 l 1,4,-1
 107 1496 l 1,5,-1
 361 1515 l 1,6,-1
 361 1361 l 1,7,-1
 659 1361 l 1,8,-1
 659 1225 l 1,9,-1
 361 1225 l 1,10,-1
 361 973 l 1,11,12
 500 1120 500 1120 721 1120 c 0,13,14
 803 1120 803 1120 869 1095.5 c 128,-1,15
 935 1071 935 1071 986.5 1019 c 128,-1,16
 1038 967 1038 967 1066 878 c 128,-1,17
 1094 789 1094 789 1094 667 c 2,18,-1
 1094 0 l 1,19,-1
 840 0 l 1,20,-1
 840 654 l 2,21,22
 840 801 840 801 803 864 c 128,-1,23
 766 927 766 927 660 927 c 0,24,25
 564 927 564 927 482 874 c 128,-1,26
 400 821 400 821 361 745 c 1,27,-1
 361 0 l 1,28,-1
 107 0 l 1,0,-1
EndSplineSet
EndChar

StartChar: dotlessi
Encoding: 305 305 238
Width: 548
GlyphClass: 2
Flags: W
LayerCount: 2
Fore
SplineSet
129 0 m 1,0,-1
 129 1098 l 1,1,-1
 384 1098 l 1,2,-1
 384 0 l 1,3,-1
 129 0 l 1,0,-1
EndSplineSet
EndChar

StartChar: uni0136
Encoding: 310 310 243
Width: 1348
GlyphClass: 2
Flags: W
LayerCount: 2
Fore
SplineSet
617 -620 m 1,0,-1
 712 -122 l 1,1,-1
 897 -122 l 1,2,-1
 753 -620 l 1,3,-1
 617 -620 l 1,0,-1
157 0 m 1,4,-1
 157 1465 l 1,5,-1
 429 1465 l 1,6,-1
 429 805 l 1,7,8
 500 899 500 899 719.5 1156 c 128,-1,9
 939 1413 939 1413 981 1465 c 1,10,-1
 1302 1465 l 1,11,-1
 748 806 l 1,12,-1
 1337 0 l 1,13,-1
 1019 0 l 1,14,-1
 541 657 l 1,15,-1
 429 563 l 1,16,-1
 429 0 l 1,17,-1
 157 0 l 1,4,-1
EndSplineSet
EndChar

StartChar: uni0137
Encoding: 311 311 244
Width: 1173
GlyphClass: 2
Flags: W
LayerCount: 2
Fore
SplineSet
528 -620 m 1,0,-1
 623 -122 l 1,1,-1
 808 -122 l 1,2,-1
 664 -620 l 1,3,-1
 528 -620 l 1,0,-1
133 0 m 1,4,-1
 133 1504 l 1,5,-1
 395 1521 l 1,6,-1
 395 846 l 1,7,-1
 389 624 l 2,8,9
 390 625 390 625 409.5 644 c 128,-1,10
 429 663 429 663 431 665 c 0,11,12
 486 730 486 730 550.5 799 c 128,-1,13
 615 868 615 868 713.5 968 c 128,-1,14
 812 1068 812 1068 842 1099 c 1,15,-1
 1154 1099 l 1,16,-1
 702 631 l 1,17,-1
 1183 0 l 1,18,-1
 866 0 l 1,19,-1
 504 499 l 1,20,-1
 395 413 l 1,21,-1
 395 0 l 1,22,-1
 133 0 l 1,4,-1
EndSplineSet
EndChar

StartChar: kgreenlandic
Encoding: 312 312 245
Width: 1124
GlyphClass: 2
Flags: W
LayerCount: 2
Fore
SplineSet
115 0 m 1,0,-1
 115 1100 l 1,1,-1
 364 1100 l 1,2,-1
 364 634 l 1,3,-1
 793 1100 l 1,4,-1
 1106 1100 l 1,5,-1
 647 596 l 1,6,7
 676 569 676 569 911 287 c 128,-1,8
 1146 5 1146 5 1151 0 c 1,9,-1
 836 0 l 1,10,-1
 428 494 l 1,11,-1
 364 458 l 1,12,-1
 364 0 l 1,13,-1
 115 0 l 1,0,-1
EndSplineSet
EndChar

StartChar: uni013B
Encoding: 315 315 248
Width: 1071
GlyphClass: 2
Flags: W
LayerCount: 2
Fore
SplineSet
470 -620 m 1,0,-1
 565 -122 l 1,1,-1
 750 -122 l 1,2,-1
 606 -620 l 1,3,-1
 470 -620 l 1,0,-1
158 0 m 1,4,-1
 158 1465 l 1,5,-1
 429 1465 l 1,6,-1
 429 216 l 1,7,-1
 1042 216 l 1,8,-1
 1034 0 l 1,9,-1
 158 0 l 1,4,-1
EndSplineSet
EndChar

StartChar: uni013C
Encoding: 316 316 249
Width: 700
GlyphClass: 2
Flags: W
LayerCount: 2
Fore
SplineSet
290 -635 m 1,0,-1
 385 -137 l 1,1,-1
 570 -137 l 1,2,-1
 426 -635 l 1,3,-1
 290 -635 l 1,0,-1
518 -15 m 0,4,5
 405 -15 405 -15 330.5 11.5 c 128,-1,6
 256 38 256 38 213 96 c 128,-1,7
 170 154 170 154 153 234 c 128,-1,8
 136 314 136 314 136 433 c 2,9,-1
 136 1504 l 1,10,-1
 398 1521 l 1,11,-1
 398 438 l 2,12,13
 398 290 398 290 433 237.5 c 128,-1,14
 468 185 468 185 569 185 c 0,15,16
 619 185 619 185 696 196 c 1,17,-1
 703 9 l 2,18,19
 702 9 702 9 678.5 4 c 128,-1,20
 655 -1 655 -1 633.5 -4.5 c 128,-1,21
 612 -8 612 -8 579 -11.5 c 128,-1,22
 546 -15 546 -15 518 -15 c 0,4,5
EndSplineSet
EndChar

StartChar: Ldot
Encoding: 319 319 250
Width: 1071
GlyphClass: 2
Flags: W
LayerCount: 2
Fore
SplineSet
768 719 m 1,0,-1
 768 917 l 1,1,-1
 936 917 l 1,2,-1
 936 719 l 1,3,-1
 768 719 l 1,0,-1
158 0 m 1,4,-1
 158 1465 l 1,5,-1
 429 1465 l 1,6,-1
 429 216 l 1,7,-1
 1042 216 l 1,8,-1
 1034 0 l 1,9,-1
 158 0 l 1,4,-1
EndSplineSet
EndChar

StartChar: Lslash
Encoding: 321 321 251
Width: 1012
GlyphClass: 2
Flags: W
LayerCount: 2
Fore
SplineSet
131 0 m 1,0,-1
 131 589 l 1,1,-1
 -20 500 l 1,2,-1
 -20 685 l 1,3,-1
 131 774 l 1,4,-1
 131 1463 l 1,5,-1
 399 1463 l 1,6,-1
 399 932 l 1,7,-1
 722 1116 l 1,8,-1
 722 930 l 1,9,-1
 399 746 l 1,10,-1
 399 202 l 1,11,-1
 1018 202 l 1,12,-1
 1003 0 l 1,13,-1
 131 0 l 1,0,-1
EndSplineSet
EndChar

StartChar: lslash
Encoding: 322 322 252
Width: 679
GlyphClass: 2
Flags: W
LayerCount: 2
Fore
SplineSet
516 -15 m 0,0,1
 437 -15 437 -15 378 -3 c 128,-1,2
 319 9 319 9 277.5 36.5 c 128,-1,3
 236 64 236 64 209.5 100 c 128,-1,4
 183 136 183 136 168 192.5 c 128,-1,5
 153 249 153 249 147.5 311 c 128,-1,6
 142 373 142 373 142 459 c 2,7,-1
 142 692 l 1,8,-1
 30 625 l 1,9,-1
 30 808 l 1,10,-1
 142 876 l 1,11,-1
 142 1495 l 1,12,-1
 397 1515 l 1,13,-1
 397 1028 l 1,14,-1
 555 1125 l 1,15,-1
 555 943 l 1,16,-1
 397 846 l 1,17,-1
 397 438 l 2,18,19
 397 382 397 382 398.5 350.5 c 128,-1,20
 400 319 400 319 405 285 c 128,-1,21
 410 251 410 251 420.5 235 c 128,-1,22
 431 219 431 219 449.5 204.5 c 128,-1,23
 468 190 468 190 495 185.5 c 128,-1,24
 522 181 522 181 562 181 c 0,25,26
 581 181 581 181 665 188 c 1,27,-1
 681 -1 l 1,28,29
 590 -15 590 -15 516 -15 c 0,0,1
EndSplineSet
EndChar

StartChar: uni0145
Encoding: 325 325 255
Width: 1554
GlyphClass: 2
Flags: W
LayerCount: 2
Fore
SplineSet
648 -620 m 1,0,-1
 743 -122 l 1,1,-1
 928 -122 l 1,2,-1
 784 -620 l 1,3,-1
 648 -620 l 1,0,-1
158 0 m 1,4,-1
 158 1465 l 1,5,-1
 446 1465 l 1,6,7
 524 1343 524 1343 763 973 c 128,-1,8
 1002 603 1002 603 1054 523 c 0,9,10
 1069 500 1069 500 1105.5 445.5 c 128,-1,11
 1142 391 1142 391 1157 368 c 1,12,13
 1150 711 1150 711 1150 724 c 2,14,-1
 1150 1465 l 1,15,-1
 1397 1465 l 1,16,-1
 1397 0 l 1,17,-1
 1105 0 l 1,18,-1
 444 1030 l 1,19,-1
 396 1109 l 1,20,21
 404 845 404 845 404 738 c 2,22,-1
 404 0 l 1,23,-1
 158 0 l 1,4,-1
EndSplineSet
EndChar

StartChar: uni0146
Encoding: 326 326 256
Width: 1254
GlyphClass: 2
Flags: W
LayerCount: 2
Fore
SplineSet
501 -620 m 1,0,-1
 596 -122 l 1,1,-1
 781 -122 l 1,2,-1
 637 -620 l 1,3,-1
 501 -620 l 1,0,-1
133 0 m 1,4,-1
 133 1099 l 1,5,-1
 344 1099 l 1,6,-1
 373 960 l 1,7,8
 541 1126 541 1126 746 1126 c 0,9,10
 938 1126 938 1126 1033.5 1015.5 c 128,-1,11
 1129 905 1129 905 1129 695 c 2,12,-1
 1129 0 l 1,13,-1
 866 0 l 1,14,-1
 866 663 l 2,15,16
 865 796 865 796 823 862 c 128,-1,17
 781 928 781 928 672 928 c 0,18,19
 587 928 587 928 516.5 884.5 c 128,-1,20
 446 841 446 841 414 775 c 1,21,22
 395 697 395 697 395 535 c 2,23,-1
 395 0 l 1,24,-1
 133 0 l 1,4,-1
EndSplineSet
EndChar

StartChar: OE
Encoding: 338 338 265
Width: 2176
GlyphClass: 2
Flags: W
LayerCount: 2
Fore
SplineSet
815 -19 m 0,0,1
 602 -19 602 -19 434 78 c 128,-1,2
 266 175 266 175 173.5 347.5 c 128,-1,3
 81 520 81 520 81 738 c 0,4,5
 82 952 82 952 177 1124.5 c 128,-1,6
 272 1297 272 1297 438 1393.5 c 128,-1,7
 604 1490 604 1490 809 1490 c 0,8,9
 1012 1490 1012 1490 1168 1384 c 1,10,-1
 1168 1461 l 1,11,-1
 2101 1461 l 1,12,-1
 2083 1256 l 1,13,-1
 1425 1256 l 1,14,-1
 1425 863 l 1,15,-1
 2052 863 l 1,16,-1
 2052 661 l 1,17,-1
 1425 661 l 1,18,-1
 1425 209 l 1,19,-1
 2130 209 l 1,20,-1
 2113 4 l 1,21,-1
 1168 4 l 1,22,-1
 1168 85 l 1,23,24
 1101 38 1101 38 1007.5 9.5 c 128,-1,25
 914 -19 914 -19 815 -19 c 0,0,1
813 188 m 0,26,27
 926 188 926 188 1019.5 221.5 c 128,-1,28
 1113 255 1113 255 1168 305 c 1,29,-1
 1168 1153 l 1,30,31
 1038 1283 1038 1283 811 1283 c 0,32,33
 722 1283 722 1283 646 1253.5 c 128,-1,34
 570 1224 570 1224 515 1172.5 c 128,-1,35
 460 1121 460 1121 421 1051.5 c 128,-1,36
 382 982 382 982 363 901.5 c 128,-1,37
 344 821 344 821 343 735 c 0,38,39
 343 625 343 625 372 528 c 128,-1,40
 401 431 401 431 457.5 354.5 c 128,-1,41
 514 278 514 278 605.5 233 c 128,-1,42
 697 188 697 188 813 188 c 0,26,27
EndSplineSet
EndChar

StartChar: oe
Encoding: 339 339 266
Width: 1880
GlyphClass: 2
Flags: W
LayerCount: 2
Fore
SplineSet
595 -21 m 0,0,1
 465 -21 465 -21 362.5 24.5 c 128,-1,2
 260 70 260 70 197 149 c 128,-1,3
 134 228 134 228 101.5 330.5 c 128,-1,4
 69 433 69 433 69 552 c 0,5,6
 69 675 69 675 101.5 777 c 128,-1,7
 134 879 134 879 197.5 956.5 c 128,-1,8
 261 1034 261 1034 363 1077 c 128,-1,9
 465 1120 465 1120 596 1120 c 0,10,11
 733 1120 733 1120 833 1069 c 128,-1,12
 933 1018 933 1018 992 927 c 1,13,14
 1104 1117 1104 1117 1380 1120 c 0,15,16
 1472 1120 1472 1120 1546.5 1093 c 128,-1,17
 1621 1066 1621 1066 1671.5 1018.5 c 128,-1,18
 1722 971 1722 971 1756 904 c 128,-1,19
 1790 837 1790 837 1805.5 758 c 128,-1,20
 1821 679 1821 679 1821 587 c 0,21,22
 1821 576 1821 576 1820.5 555.5 c 128,-1,23
 1820 535 1820 535 1819.5 518.5 c 128,-1,24
 1819 502 1819 502 1819 500 c 2,25,-1
 1110 500 l 1,26,27
 1113 337 1113 337 1193.5 247.5 c 128,-1,28
 1274 158 1274 158 1417 158 c 0,29,30
 1587 158 1587 158 1722 261 c 1,31,-1
 1794 106 l 1,32,33
 1715 45 1715 45 1625.5 12 c 128,-1,34
 1536 -21 1536 -21 1410 -21 c 0,35,36
 1106 -21 1106 -21 990 177 c 1,37,38
 935 86 935 86 833 32.5 c 128,-1,39
 731 -21 731 -21 595 -21 c 0,0,1
595 157 m 128,-1,41
 723 157 723 157 799 263 c 128,-1,42
 875 369 875 369 875 552 c 0,43,44
 875 740 875 740 800.5 841 c 128,-1,45
 726 942 726 942 594 942 c 0,46,47
 464 942 464 942 390 838.5 c 128,-1,48
 316 735 316 735 316 551 c 0,49,50
 316 370 316 370 391.5 263.5 c 128,-1,40
 467 157 467 157 595 157 c 128,-1,41
1113 646 m 1,51,-1
 1588 646 l 1,52,-1
 1588 656 l 2,53,54
 1587 942 1587 942 1364 942 c 0,55,56
 1319 942 1319 942 1279 926.5 c 128,-1,57
 1239 911 1239 911 1203 878.5 c 128,-1,58
 1167 846 1167 846 1143 786 c 128,-1,59
 1119 726 1119 726 1113 646 c 1,51,-1
EndSplineSet
EndChar

StartChar: uni0156
Encoding: 342 342 269
Width: 1394
GlyphClass: 2
Flags: W
LayerCount: 2
Fore
SplineSet
618 -620 m 1,0,-1
 713 -122 l 1,1,-1
 898 -122 l 1,2,-1
 754 -620 l 1,3,-1
 618 -620 l 1,0,-1
151 0 m 1,4,-1
 151 1469 l 1,5,-1
 694 1469 l 2,6,7
 805 1469 805 1469 886.5 1459 c 128,-1,8
 968 1449 968 1449 1041.5 1422.5 c 128,-1,9
 1115 1396 1115 1396 1160.5 1351 c 128,-1,10
 1206 1306 1206 1306 1232.5 1233.5 c 128,-1,11
 1259 1161 1259 1161 1259 1062 c 0,12,13
 1259 770 1259 770 994 678 c 1,14,15
 1048 617 1048 617 1128 452 c 2,16,-1
 1346 0 l 1,17,-1
 1050 0 l 1,18,-1
 879 383 l 1,19,20
 782 589 782 589 759 627 c 1,21,22
 742 628 742 628 646 628 c 2,23,-1
 419 630 l 1,24,-1
 419 0 l 1,25,-1
 151 0 l 1,4,-1
718 824 m 0,26,27
 874 824 874 824 942 879.5 c 128,-1,28
 1010 935 1010 935 1010 1058 c 0,29,30
 1010 1166 1010 1166 941 1217 c 128,-1,31
 872 1268 872 1268 730 1268 c 2,32,-1
 419 1268 l 1,33,-1
 419 825 l 1,34,35
 434 825 434 825 568 824.5 c 128,-1,36
 702 824 702 824 718 824 c 0,26,27
EndSplineSet
EndChar

StartChar: uni0157
Encoding: 343 343 270
Width: 798
GlyphClass: 2
Flags: W
LayerCount: 2
Fore
SplineSet
322 -620 m 1,0,-1
 417 -122 l 1,1,-1
 602 -122 l 1,2,-1
 458 -620 l 1,3,-1
 322 -620 l 1,0,-1
134 0 m 1,4,-1
 134 1099 l 1,5,-1
 354 1099 l 1,6,-1
 388 931 l 1,7,8
 496 1104 496 1104 701 1104 c 0,9,10
 744 1104 744 1104 771 1100 c 1,11,-1
 767 881 l 1,12,13
 727 887 727 887 684 887 c 0,14,15
 539 887 539 887 467.5 810 c 128,-1,16
 396 733 396 733 396 596 c 2,17,-1
 396 0 l 1,18,-1
 134 0 l 1,4,-1
EndSplineSet
EndChar

StartChar: florin
Encoding: 402 402 305
Width: 1055
GlyphClass: 2
Flags: W
LayerCount: 2
Fore
SplineSet
157 -336 m 0,0,1
 132 -336 132 -336 33 -314 c 1,2,-1
 50 -125 l 1,3,4
 137 -150 137 -150 145 -150 c 0,5,6
 202 -150 202 -150 232 -102.5 c 128,-1,7
 262 -55 262 -55 284 32 c 0,8,9
 312 138 312 138 338 265.5 c 128,-1,10
 364 393 364 393 393 552.5 c 128,-1,11
 422 712 422 712 439 795 c 1,12,-1
 282 795 l 1,13,-1
 295 968 l 1,14,-1
 473 968 l 1,15,-1
 492 1098 l 2,16,17
 545 1468 545 1468 851 1468 c 0,18,19
 884 1468 884 1468 940 1458 c 128,-1,20
 996 1448 996 1448 1012 1443 c 1,21,-1
 1001 1242 l 1,22,23
 987 1248 987 1248 942 1261.5 c 128,-1,24
 897 1275 897 1275 875 1275 c 0,25,26
 805 1275 805 1275 775 1243 c 128,-1,27
 745 1211 745 1211 731 1136 c 2,28,-1
 699 968 l 1,29,-1
 893 968 l 1,30,-1
 880 793 l 1,31,-1
 667 793 l 1,32,-1
 537 128 l 2,33,34
 526 72 526 72 517 34 c 128,-1,35
 508 -4 508 -4 491 -57 c 128,-1,36
 474 -110 474 -110 456 -145.5 c 128,-1,37
 438 -181 438 -181 409 -220 c 128,-1,38
 380 -259 380 -259 345.5 -282.5 c 128,-1,39
 311 -306 311 -306 262.5 -321 c 128,-1,40
 214 -336 214 -336 157 -336 c 0,0,1
EndSplineSet
EndChar

StartChar: uni0218
Encoding: 536 536 344
Width: 1189
GlyphClass: 2
Flags: W
LayerCount: 2
Fore
SplineSet
465 -640 m 1,0,-1
 560 -142 l 1,1,-1
 745 -142 l 1,2,-1
 601 -640 l 1,3,-1
 465 -640 l 1,0,-1
569 -20 m 0,4,5
 304 -20 304 -20 94 102 c 1,6,-1
 160 317 l 1,7,8
 254 265 254 265 364.5 233 c 128,-1,9
 475 201 475 201 580 201 c 0,10,11
 709 201 709 201 775 256.5 c 128,-1,12
 841 312 841 312 841 416 c 0,13,14
 841 554 841 554 657 607 c 0,15,16
 644 611 644 611 584 628.5 c 128,-1,17
 524 646 524 646 471.5 662.5 c 128,-1,18
 419 679 419 679 396 688 c 0,19,20
 101 792 101 792 101 1076 c 0,21,22
 101 1275 101 1275 242.5 1383 c 128,-1,23
 384 1491 384 1491 618 1491 c 0,24,25
 883 1491 883 1491 1075 1382 c 1,26,-1
 993 1184 l 1,27,28
 797 1272 797 1272 629 1272 c 0,29,30
 508 1272 508 1272 446.5 1229.5 c 128,-1,31
 385 1187 385 1187 381 1088 c 1,32,33
 381 966 381 966 502 929 c 0,34,35
 526 920 526 920 620 890 c 128,-1,36
 714 860 714 860 742 851 c 0,37,38
 943 785 943 785 1029.5 687 c 128,-1,39
 1116 589 1116 589 1116 414 c 0,40,41
 1116 205 1116 205 968 92.5 c 128,-1,42
 820 -20 820 -20 569 -20 c 0,4,5
EndSplineSet
EndChar

StartChar: uni0219
Encoding: 537 537 345
Width: 985
GlyphClass: 2
Flags: W
LayerCount: 2
Fore
SplineSet
363 -640 m 1,0,-1
 458 -142 l 1,1,-1
 643 -142 l 1,2,-1
 499 -640 l 1,3,-1
 363 -640 l 1,0,-1
484 -20 m 0,4,5
 241 -20 241 -20 95 63 c 1,6,-1
 122 260 l 1,7,8
 188 224 188 224 290 195.5 c 128,-1,9
 392 167 392 167 476 167 c 0,10,11
 563 167 563 167 611.5 199.5 c 128,-1,12
 660 232 660 232 661 295 c 0,13,14
 661 352 661 352 615.5 385 c 128,-1,15
 570 418 570 418 442 467 c 0,16,17
 398 483 398 483 385 488 c 0,18,19
 233 547 233 547 166 619.5 c 128,-1,20
 99 692 99 692 99 816 c 0,21,22
 99 966 99 966 207.5 1046 c 128,-1,23
 316 1126 316 1126 510 1126 c 0,24,25
 720 1126 720 1126 879 1047 c 1,26,-1
 814 866 l 1,27,28
 657 939 657 939 515 939 c 0,29,30
 436 939 436 939 391.5 912.5 c 128,-1,31
 347 886 347 886 347 832 c 0,32,33
 347 781 347 781 390 752.5 c 128,-1,34
 433 724 433 724 558 678 c 0,35,36
 562 677 562 677 584 669 c 128,-1,37
 606 661 606 661 618 656 c 0,38,39
 769 601 769 601 840 524.5 c 128,-1,40
 911 448 911 448 911 325 c 0,41,42
 910 160 910 160 799 70 c 128,-1,43
 688 -20 688 -20 484 -20 c 0,4,5
EndSplineSet
EndChar

StartChar: uni021A
Encoding: 538 538 346
Width: 1152
GlyphClass: 2
Flags: W
LayerCount: 2
Fore
SplineSet
436 -620 m 1,0,-1
 531 -122 l 1,1,-1
 716 -122 l 1,2,-1
 572 -620 l 1,3,-1
 436 -620 l 1,0,-1
441 0 m 1,4,-1
 441 1248 l 1,5,-1
 14 1248 l 1,6,-1
 14 1465 l 1,7,-1
 1138 1465 l 1,8,-1
 1138 1248 l 1,9,-1
 713 1248 l 1,10,-1
 713 0 l 1,11,-1
 441 0 l 1,4,-1
EndSplineSet
EndChar

StartChar: uni021B
Encoding: 539 539 347
Width: 803
GlyphClass: 2
Flags: W
LayerCount: 2
Fore
SplineSet
242 -635 m 1,0,-1
 337 -137 l 1,1,-1
 522 -137 l 1,2,-1
 378 -635 l 1,3,-1
 242 -635 l 1,0,-1
572 -15 m 0,4,5
 460 -15 460 -15 385.5 11.5 c 128,-1,6
 311 38 311 38 269 95 c 128,-1,7
 227 152 227 152 209.5 229.5 c 128,-1,8
 192 307 192 307 192 421 c 2,9,-1
 192 940 l 1,10,-1
 12 940 l 1,11,-1
 22 1082 l 1,12,-1
 210 1099 l 1,13,-1
 294 1397 l 1,14,-1
 454 1398 l 1,15,-1
 454 1099 l 1,16,-1
 727 1099 l 1,17,-1
 727 940 l 1,18,-1
 454 940 l 1,19,-1
 454 416 l 2,20,21
 454 291 454 291 490 238 c 128,-1,22
 526 185 526 185 623 185 c 0,23,24
 680 185 680 185 745 195 c 1,25,-1
 752 7 l 2,26,27
 750 7 750 7 727.5 2.5 c 128,-1,28
 705 -2 705 -2 684.5 -5.5 c 128,-1,29
 664 -9 664 -9 632 -12 c 128,-1,30
 600 -15 600 -15 572 -15 c 0,4,5
EndSplineSet
EndChar

StartChar: uni0237
Encoding: 567 567 348
Width: 527
GlyphClass: 2
Flags: W
LayerCount: 2
Fore
SplineSet
-38 -364 m 1,0,-1
 -43 -167 l 1,1,-1
 -8 -167 l 2,2,3
 54 -167 54 -167 89.5 -157 c 128,-1,4
 125 -147 125 -147 144 -118 c 128,-1,5
 163 -89 163 -89 168 -52 c 128,-1,6
 173 -15 173 -15 173 55 c 2,7,-1
 173 1089 l 1,8,-1
 410 1089 l 1,9,-1
 410 98 l 2,10,11
 410 -27 410 -27 393 -108.5 c 128,-1,12
 376 -190 376 -190 331.5 -250 c 128,-1,13
 287 -310 287 -310 206.5 -337 c 128,-1,14
 126 -364 126 -364 2 -364 c 2,15,-1
 -38 -364 l 1,0,-1
EndSplineSet
EndChar

StartChar: circumflex
Encoding: 710 710 349
Width: 775
GlyphClass: 2
Flags: W
LayerCount: 2
Fore
SplineSet
47 1163 m 1,0,-1
 297 1546 l 1,1,-1
 505 1546 l 1,2,-1
 756 1163 l 1,3,-1
 572 1163 l 1,4,-1
 398 1381 l 1,5,-1
 226 1163 l 1,6,-1
 47 1163 l 1,0,-1
EndSplineSet
EndChar

StartChar: caron
Encoding: 711 711 350
Width: 772
GlyphClass: 2
Flags: W
LayerCount: 2
Fore
SplineSet
302 1193 m 1,0,-1
 40 1546 l 1,1,-1
 238 1546 l 1,2,-1
 399 1350 l 1,3,-1
 563 1546 l 1,4,-1
 766 1546 l 1,5,-1
 504 1193 l 1,6,-1
 302 1193 l 1,0,-1
EndSplineSet
EndChar

StartChar: breve
Encoding: 728 728 351
Width: 710
GlyphClass: 2
Flags: W
LayerCount: 2
Fore
SplineSet
352 1229 m 128,-1,1
 220 1229 220 1229 140.5 1293 c 128,-1,2
 61 1357 61 1357 61 1481 c 1,3,-1
 228 1481 l 1,4,5
 228 1430 228 1430 257.5 1407.5 c 128,-1,6
 287 1385 287 1385 352 1385 c 128,-1,7
 417 1385 417 1385 446.5 1407.5 c 128,-1,8
 476 1430 476 1430 476 1481 c 1,9,-1
 643 1481 l 1,10,11
 643 1357 643 1357 563.5 1293 c 128,-1,0
 484 1229 484 1229 352 1229 c 128,-1,1
EndSplineSet
EndChar

StartChar: dotaccent
Encoding: 729 729 352
Width: 539
GlyphClass: 2
Flags: W
LayerCount: 2
Fore
SplineSet
157 1249 m 1,0,-1
 157 1465 l 1,1,-1
 358 1465 l 1,2,-1
 358 1249 l 1,3,-1
 157 1249 l 1,0,-1
EndSplineSet
EndChar

StartChar: ring
Encoding: 730 730 353
Width: 662
GlyphClass: 2
Flags: W
LayerCount: 2
Fore
SplineSet
330 1251 m 128,-1,1
 381 1251 381 1251 408.5 1283 c 128,-1,2
 436 1315 436 1315 436 1361 c 0,3,4
 436 1406 436 1406 408 1439.5 c 128,-1,5
 380 1473 380 1473 330 1473 c 0,6,7
 279 1473 279 1473 251 1440.5 c 128,-1,8
 223 1408 223 1408 223 1361 c 0,9,10
 223 1315 223 1315 251 1283 c 128,-1,0
 279 1251 279 1251 330 1251 c 128,-1,1
330 1158 m 128,-1,12
 230 1158 230 1158 169.5 1218 c 128,-1,13
 109 1278 109 1278 109 1362 c 0,14,15
 109 1445 109 1445 168.5 1503.5 c 128,-1,16
 228 1562 228 1562 330 1562 c 0,17,18
 431 1562 431 1562 490.5 1503.5 c 128,-1,19
 550 1445 550 1445 550 1362 c 0,20,21
 550 1278 550 1278 490 1218 c 128,-1,11
 430 1158 430 1158 330 1158 c 128,-1,12
EndSplineSet
EndChar

StartChar: ogonek
Encoding: 731 731 354
Width: 577
GlyphClass: 2
Flags: W
LayerCount: 2
Fore
SplineSet
321 -392 m 0,0,1
 231 -392 231 -392 172.5 -348 c 128,-1,2
 114 -304 114 -304 114 -220 c 0,3,4
 114 -74 114 -74 305 34 c 1,5,-1
 413 34 l 1,6,7
 289 -58 289 -58 289 -165 c 0,8,9
 289 -199 289 -199 311.5 -225.5 c 128,-1,10
 334 -252 334 -252 371 -252 c 0,11,12
 385 -252 385 -252 401.5 -249.5 c 128,-1,13
 418 -247 418 -247 431.5 -243.5 c 128,-1,14
 445 -240 445 -240 460 -235 c 128,-1,15
 475 -230 475 -230 484 -226.5 c 128,-1,16
 493 -223 493 -223 502.5 -219 c 128,-1,17
 512 -215 512 -215 513 -215 c 2,18,-1
 513 -355 l 1,19,20
 418 -392 418 -392 321 -392 c 0,0,1
EndSplineSet
EndChar

StartChar: tilde
Encoding: 732 732 355
Width: 786
GlyphClass: 2
Flags: W
LayerCount: 2
Fore
SplineSet
46 1230 m 1,0,1
 46 1266 46 1266 48.5 1295 c 128,-1,2
 51 1324 51 1324 61.5 1358 c 128,-1,3
 72 1392 72 1392 90 1415 c 128,-1,4
 108 1438 108 1438 140.5 1453.5 c 128,-1,5
 173 1469 173 1469 218 1469 c 0,6,7
 276 1469 276 1469 347 1448 c 128,-1,8
 418 1427 418 1427 471 1406 c 128,-1,9
 524 1385 524 1385 539 1385 c 0,10,11
 586 1385 586 1385 586 1469 c 1,12,-1
 733 1469 l 1,13,14
 733 1434 733 1434 731 1407 c 128,-1,15
 729 1380 729 1380 719 1344.5 c 128,-1,16
 709 1309 709 1309 692.5 1286 c 128,-1,17
 676 1263 676 1263 643.5 1246.5 c 128,-1,18
 611 1230 611 1230 567 1230 c 0,19,20
 508 1230 508 1230 389 1275 c 128,-1,21
 270 1320 270 1320 240 1320 c 0,22,23
 191 1320 191 1320 190 1230 c 1,24,-1
 46 1230 l 1,0,1
EndSplineSet
EndChar

StartChar: hungarumlaut
Encoding: 733 733 356
Width: 982
GlyphClass: 2
Flags: W
LayerCount: 2
Fore
SplineSet
150 1155 m 1,0,-1
 396 1516 l 1,1,-1
 622 1516 l 1,2,-1
 284 1155 l 1,3,-1
 150 1155 l 1,0,-1
461 1155 m 1,4,-1
 708 1516 l 1,5,-1
 933 1516 l 1,6,-1
 595 1155 l 1,7,-1
 461 1155 l 1,4,-1
EndSplineSet
EndChar

StartChar: uni0307
Encoding: 775 775 357
Width: 515
GlyphClass: 2
Flags: W
LayerCount: 2
Fore
SplineSet
157 1222 m 1,0,-1
 157 1438 l 1,1,-1
 358 1438 l 1,2,-1
 358 1222 l 1,3,-1
 157 1222 l 1,0,-1
EndSplineSet
EndChar

StartChar: uni030F
Encoding: 783 783 358
Width: 982
GlyphClass: 2
Flags: W
LayerCount: 2
Fore
SplineSet
316 1197 m 1,0,-1
 1 1536 l 1,1,-1
 276 1536 l 1,2,-1
 487 1197 l 1,3,-1
 316 1197 l 1,0,-1
680 1197 m 1,4,-1
 383 1536 l 1,5,-1
 641 1536 l 1,6,-1
 868 1197 l 1,7,-1
 680 1197 l 1,4,-1
EndSplineSet
EndChar

StartChar: uni0311
Encoding: 785 785 359
Width: 713
GlyphClass: 2
Flags: W
LayerCount: 2
Fore
SplineSet
63 1229 m 1,0,1
 63 1342 63 1342 150 1405.5 c 128,-1,2
 237 1469 237 1469 356 1469 c 0,3,4
 431 1469 431 1469 495 1443.5 c 128,-1,5
 559 1418 559 1418 601.5 1362 c 128,-1,6
 644 1306 644 1306 644 1229 c 1,7,-1
 477 1229 l 1,8,9
 477 1281 477 1281 439.5 1309 c 128,-1,10
 402 1337 402 1337 352 1337 c 128,-1,11
 302 1337 302 1337 266 1308.5 c 128,-1,12
 230 1280 230 1280 230 1229 c 1,13,-1
 63 1229 l 1,0,1
EndSplineSet
EndChar

StartChar: uni0326
Encoding: 806 806 360
Width: 632
GlyphClass: 2
Flags: W
LayerCount: 2
Fore
SplineSet
109 -658 m 1,0,-1
 219 -141 l 1,1,-1
 444 -141 l 1,2,-1
 277 -658 l 1,3,-1
 109 -658 l 1,0,-1
EndSplineSet
EndChar

StartChar: pi
Encoding: 960 960 361
Width: 1421
GlyphClass: 2
Flags: W
LayerCount: 2
Fore
SplineSet
1154 -7 m 0,0,1
 1098 -7 1098 -7 1056 8.5 c 128,-1,2
 1014 24 1014 24 988 51 c 128,-1,3
 962 78 962 78 946.5 119.5 c 128,-1,4
 931 161 931 161 925 206.5 c 128,-1,5
 919 252 919 252 919 312 c 2,6,-1
 921 929 l 1,7,-1
 566 929 l 1,8,9
 538 243 538 243 409 1 c 1,10,-1
 195 1 l 1,11,12
 243 98 243 98 279.5 322.5 c 128,-1,13
 316 547 316 547 329.5 705 c 128,-1,14
 343 863 343 863 345 934 c 1,15,16
 261 930 261 930 203 912 c 128,-1,17
 145 894 145 894 84 858 c 1,18,-1
 58 1033 l 1,19,20
 121 1079 121 1079 201 1093 c 128,-1,21
 281 1107 281 1107 426 1107 c 2,22,-1
 1321 1107 l 1,23,-1
 1321 927 l 1,24,-1
 1125 927 l 1,25,-1
 1125 321 l 2,26,27
 1125 253 1125 253 1138.5 223 c 128,-1,28
 1152 193 1152 193 1196 193 c 0,29,30
 1226 193 1226 193 1300 216 c 1,31,-1
 1286 7 l 1,32,33
 1207 -7 1207 -7 1154 -7 c 0,0,1
EndSplineSet
EndChar

StartChar: endash
Encoding: 8211 8211 384
Width: 1271
GlyphClass: 2
Flags: W
LayerCount: 2
Fore
SplineSet
89 461 m 1,0,-1
 89 646 l 1,1,-1
 1188 646 l 1,2,-1
 1188 461 l 1,3,-1
 89 461 l 1,0,-1
EndSplineSet
EndChar

StartChar: emdash
Encoding: 8212 8212 385
Width: 2151
GlyphClass: 2
Flags: W
LayerCount: 2
Fore
SplineSet
30 461 m 1,0,-1
 30 646 l 1,1,-1
 2116 646 l 1,2,-1
 2116 461 l 1,3,-1
 30 461 l 1,0,-1
EndSplineSet
EndChar

StartChar: quoteleft
Encoding: 8216 8216 386
Width: 442
GlyphClass: 2
Flags: W
LayerCount: 2
Fore
SplineSet
386 1466 m 1,0,-1
 278 973 l 1,1,-1
 60 973 l 1,2,-1
 219 1466 l 1,3,-1
 386 1466 l 1,0,-1
EndSplineSet
EndChar

StartChar: quoteright
Encoding: 8217 8217 387
Width: 442
GlyphClass: 2
Flags: W
LayerCount: 2
Fore
SplineSet
60 973 m 1,0,-1
 168 1466 l 1,1,-1
 386 1466 l 1,2,-1
 227 973 l 1,3,-1
 60 973 l 1,0,-1
EndSplineSet
EndChar

StartChar: quotesinglbase
Encoding: 8218 8218 388
Width: 557
GlyphClass: 2
Flags: W
LayerCount: 2
Fore
SplineSet
116 -280 m 1,0,-1
 224 212 l 1,1,-1
 444 212 l 1,2,-1
 285 -280 l 1,3,-1
 116 -280 l 1,0,-1
EndSplineSet
EndChar

StartChar: quotedblleft
Encoding: 8220 8220 389
Width: 953
GlyphClass: 2
Flags: W
LayerCount: 2
Fore
SplineSet
795 1466 m 1,0,-1
 687 973 l 1,1,-1
 477 973 l 1,2,-1
 625 1466 l 1,3,-1
 795 1466 l 1,0,-1
495 1466 m 1,4,-1
 395 973 l 1,5,-1
 176 973 l 1,6,-1
 336 1466 l 1,7,-1
 495 1466 l 1,4,-1
EndSplineSet
EndChar

StartChar: quotedblright
Encoding: 8221 8221 390
Width: 953
GlyphClass: 2
Flags: W
LayerCount: 2
Fore
SplineSet
176 973 m 1,0,-1
 284 1466 l 1,1,-1
 494 1466 l 1,2,-1
 346 973 l 1,3,-1
 176 973 l 1,0,-1
476 973 m 1,4,-1
 576 1466 l 1,5,-1
 795 1466 l 1,6,-1
 635 973 l 1,7,-1
 476 973 l 1,4,-1
EndSplineSet
EndChar

StartChar: quotedblbase
Encoding: 8222 8222 391
Width: 1005
GlyphClass: 2
Flags: W
LayerCount: 2
Fore
SplineSet
158 -280 m 1,0,-1
 269 212 l 1,1,-1
 500 212 l 1,2,-1
 331 -280 l 1,3,-1
 158 -280 l 1,0,-1
512 -280 m 1,4,-1
 630 212 l 1,5,-1
 855 212 l 1,6,-1
 692 -280 l 1,7,-1
 512 -280 l 1,4,-1
EndSplineSet
EndChar

StartChar: dagger
Encoding: 8224 8224 392
Width: 979
GlyphClass: 2
Flags: W
LayerCount: 2
Fore
SplineSet
384 115 m 1,0,-1
 384 970 l 1,1,-1
 67 970 l 1,2,-1
 67 1139 l 1,3,-1
 384 1139 l 1,4,-1
 384 1486 l 1,5,-1
 582 1486 l 1,6,-1
 582 1139 l 1,7,-1
 916 1139 l 1,8,-1
 916 970 l 1,9,-1
 572 970 l 1,10,-1
 572 115 l 1,11,-1
 384 115 l 1,0,-1
EndSplineSet
EndChar

StartChar: daggerdbl
Encoding: 8225 8225 393
Width: 996
GlyphClass: 2
Flags: W
LayerCount: 2
Fore
SplineSet
403 -27 m 1,0,-1
 403 367 l 1,1,-1
 126 367 l 1,2,-1
 126 529 l 1,3,-1
 403 529 l 1,4,-1
 402 960 l 1,5,-1
 129 960 l 1,6,-1
 129 1123 l 1,7,-1
 402 1123 l 1,8,-1
 402 1477 l 1,9,-1
 602 1477 l 1,10,-1
 602 1123 l 1,11,-1
 879 1123 l 1,12,-1
 879 960 l 1,13,-1
 602 960 l 1,14,-1
 603 529 l 1,15,-1
 875 529 l 1,16,-1
 875 367 l 1,17,-1
 603 367 l 1,18,-1
 603 -27 l 1,19,-1
 403 -27 l 1,0,-1
EndSplineSet
EndChar

StartChar: bullet
Encoding: 8226 8226 394
Width: 995
GlyphClass: 2
Flags: W
LayerCount: 2
Fore
SplineSet
497 355 m 128,-1,1
 343 355 343 355 243 451 c 128,-1,2
 143 547 143 547 143 692 c 0,3,4
 143 838 143 838 246.5 937.5 c 128,-1,5
 350 1037 350 1037 503 1037 c 0,6,7
 655 1037 655 1037 755.5 940.5 c 128,-1,8
 856 844 856 844 856 699 c 0,9,10
 856 552 856 552 753.5 453.5 c 128,-1,0
 651 355 651 355 497 355 c 128,-1,1
EndSplineSet
EndChar

StartChar: guilsinglleft
Encoding: 8249 8249 395
Width: 584
GlyphClass: 2
Flags: W
LayerCount: 2
Fore
SplineSet
321 174 m 1,0,-1
 55 568 l 1,1,-1
 327 965 l 1,2,-1
 529 965 l 1,3,-1
 268 568 l 1,4,-1
 522 174 l 1,5,-1
 321 174 l 1,0,-1
EndSplineSet
EndChar

StartChar: guilsinglright
Encoding: 8250 8250 396
Width: 584
GlyphClass: 2
Flags: W
LayerCount: 2
Fore
SplineSet
56 174 m 1,0,-1
 316 569 l 1,1,-1
 63 965 l 1,2,-1
 263 965 l 1,3,-1
 531 569 l 1,4,-1
 257 174 l 1,5,-1
 56 174 l 1,0,-1
EndSplineSet
EndChar

StartChar: fraction
Encoding: 8260 8260 397
Width: 1179
GlyphClass: 2
Flags: W
LayerCount: 2
Fore
SplineSet
41 0 m 1,0,-1
 941 1471 l 1,1,-1
 1137 1471 l 1,2,-1
 239 0 l 1,3,-1
 41 0 l 1,0,-1
EndSplineSet
EndChar

StartChar: uni2074
Encoding: 8308 8308 398
Width: 867
GlyphClass: 2
Flags: W
LayerCount: 2
Fore
SplineSet
436 627 m 1,0,-1
 436 800 l 1,1,-1
 84 800 l 1,2,-1
 84 919 l 1,3,-1
 435 1446 l 1,4,-1
 595 1446 l 1,5,-1
 595 953 l 1,6,-1
 697 953 l 1,7,-1
 711 800 l 1,8,-1
 594 800 l 1,9,-1
 593 627 l 1,10,-1
 436 627 l 1,0,-1
284 953 m 1,11,-1
 434 953 l 1,12,-1
 434 1197 l 1,13,-1
 284 953 l 1,11,-1
EndSplineSet
EndChar

StartChar: Euro
Encoding: 8364 8364 399
Width: 1210
GlyphClass: 2
Flags: W
LayerCount: 2
Fore
SplineSet
773 -20 m 0,0,1
 646 -20 646 -20 545.5 23 c 128,-1,2
 445 66 445 66 380 142.5 c 128,-1,3
 315 219 315 219 275 311.5 c 128,-1,4
 235 404 235 404 217 515 c 1,5,-1
 81 515 l 1,6,-1
 104 667 l 1,7,-1
 197 667 l 2,8,9
 197 669 197 669 197.5 698.5 c 128,-1,10
 198 728 198 728 198 730 c 0,11,12
 198 735 198 735 199 770.5 c 128,-1,13
 200 806 200 806 200 811 c 1,14,-1
 78 811 l 1,15,-1
 105 957 l 1,16,-1
 223 957 l 1,17,18
 245 1067 245 1067 290.5 1158.5 c 128,-1,19
 336 1250 336 1250 405.5 1322 c 128,-1,20
 475 1394 475 1394 576 1434.5 c 128,-1,21
 677 1475 677 1475 800 1475 c 0,22,23
 1003 1475 1003 1475 1131 1347 c 1,24,-1
 1084 1152 l 1,25,26
 1032 1225 1032 1225 959.5 1263 c 128,-1,27
 887 1301 887 1301 808 1301 c 0,28,29
 671 1301 671 1301 570.5 1206.5 c 128,-1,30
 470 1112 470 1112 451 958 c 1,31,-1
 1019 958 l 1,32,-1
 993 811 l 1,33,-1
 426 811 l 1,34,35
 426 806 426 806 425 769.5 c 128,-1,36
 424 733 424 733 424 700 c 2,37,-1
 423 667 l 1,38,-1
 984 667 l 1,39,-1
 963 515 l 1,40,-1
 446 515 l 1,41,42
 475 354 475 354 570 263 c 128,-1,43
 665 172 665 172 802 172 c 0,44,45
 963 172 963 172 1114 294 c 1,46,-1
 1113 86 l 1,47,48
 962 -20 962 -20 773 -20 c 0,0,1
EndSplineSet
EndChar

StartChar: trademark
Encoding: 8482 8482 400
Width: 1822
GlyphClass: 2
Flags: W
LayerCount: 2
Fore
SplineSet
801 667 m 1,0,-1
 801 1470 l 1,1,-1
 1017 1470 l 1,2,-1
 1235 923 l 1,3,-1
 1463 1470 l 1,4,-1
 1663 1470 l 1,5,-1
 1663 667 l 1,6,-1
 1502 667 l 1,7,-1
 1502 1216 l 1,8,-1
 1280 685 l 1,9,-1
 1175 685 l 1,10,-1
 965 1210 l 1,11,-1
 965 667 l 1,12,-1
 801 667 l 1,0,-1
322 667 m 1,13,-1
 322 1324 l 1,14,-1
 71 1324 l 1,15,-1
 70 1470 l 1,16,-1
 735 1470 l 1,17,-1
 735 1324 l 1,18,-1
 489 1324 l 1,19,-1
 489 667 l 1,20,-1
 322 667 l 1,13,-1
EndSplineSet
EndChar

StartChar: partialdiff
Encoding: 8706 8706 401
Width: 1174
GlyphClass: 2
Flags: W
LayerCount: 2
Fore
SplineSet
499 -25 m 0,0,1
 365 -25 365 -25 270 37.5 c 128,-1,2
 175 100 175 100 130.5 203.5 c 128,-1,3
 86 307 86 307 86 442 c 0,4,5
 86 538 86 538 108.5 628 c 128,-1,6
 131 718 131 718 174.5 794 c 128,-1,7
 218 870 218 870 278.5 926.5 c 128,-1,8
 339 983 339 983 419 1015 c 128,-1,9
 499 1047 499 1047 590 1047 c 0,10,11
 683 1047 683 1047 760 1004 c 128,-1,12
 837 961 837 961 871 917 c 1,13,14
 871 919 871 919 870.5 935 c 128,-1,15
 870 951 870 951 870 955 c 0,16,17
 868 1050 868 1050 850.5 1127.5 c 128,-1,18
 833 1205 833 1205 798 1264.5 c 128,-1,19
 763 1324 763 1324 705.5 1356.5 c 128,-1,20
 648 1389 648 1389 572 1389 c 0,21,22
 518 1389 518 1389 462 1369.5 c 128,-1,23
 406 1350 406 1350 371 1328.5 c 128,-1,24
 336 1307 336 1307 288 1273 c 1,25,-1
 273 1466 l 1,26,27
 353 1515 353 1515 428.5 1542.5 c 128,-1,28
 504 1570 504 1570 596 1570 c 0,29,30
 702 1570 702 1570 785 1534.5 c 128,-1,31
 868 1499 868 1499 923 1437.5 c 128,-1,32
 978 1376 978 1376 1013.5 1286.5 c 128,-1,33
 1049 1197 1049 1197 1064.5 1094.5 c 128,-1,34
 1080 992 1080 992 1080 870 c 0,35,36
 1080 738 1080 738 1059.5 613 c 128,-1,37
 1039 488 1039 488 993.5 371 c 128,-1,38
 948 254 948 254 881.5 167 c 128,-1,39
 815 80 815 80 716.5 27.5 c 128,-1,40
 618 -25 618 -25 499 -25 c 0,0,1
504 158 m 0,41,42
 583 158 583 158 647 204 c 128,-1,43
 711 250 711 250 752 327.5 c 128,-1,44
 793 405 793 405 818 492 c 128,-1,45
 843 579 843 579 854 674 c 1,46,47
 826 759 826 759 765.5 813 c 128,-1,48
 705 867 705 867 614 867 c 0,49,50
 518 867 518 867 443.5 806 c 128,-1,51
 369 745 369 745 331 648.5 c 128,-1,52
 293 552 293 552 293 440 c 0,53,54
 293 312 293 312 347 235 c 128,-1,55
 401 158 401 158 504 158 c 0,41,42
EndSplineSet
EndChar

StartChar: Delta
Encoding: 8710 8710 402
Width: 1277
GlyphClass: 2
Flags: W
LayerCount: 2
Fore
SplineSet
97 168 m 1,0,-1
 97 288 l 1,1,-1
 569 1495 l 1,2,-1
 719 1495 l 1,3,-1
 1187 289 l 1,4,-1
 1186 168 l 1,5,-1
 97 168 l 1,0,-1
281 329 m 1,6,-1
 1002 328 l 1,7,-1
 644 1296 l 1,8,-1
 281 329 l 1,6,-1
EndSplineSet
EndChar

StartChar: product
Encoding: 8719 8719 403
Width: 1529
GlyphClass: 2
Flags: W
LayerCount: 2
Fore
SplineSet
220 -247 m 1,0,-1
 220 1450 l 1,1,-1
 1327 1450 l 1,2,-1
 1327 -247 l 1,3,-1
 1107 -247 l 1,4,-1
 1107 1257 l 1,5,-1
 438 1257 l 1,6,-1
 438 -247 l 1,7,-1
 220 -247 l 1,0,-1
EndSplineSet
EndChar

StartChar: summation
Encoding: 8721 8721 404
Width: 1269
GlyphClass: 2
Flags: W
LayerCount: 2
Fore
SplineSet
60 -336 m 1,0,-1
 60 -216 l 1,1,-1
 671 567 l 1,2,-1
 81 1333 l 1,3,-1
 81 1458 l 1,4,-1
 1181 1458 l 1,5,-1
 1181 1268 l 1,6,-1
 382 1268 l 1,7,-1
 921 575 l 1,8,-1
 354 -140 l 1,9,-1
 1224 -140 l 1,10,-1
 1224 -336 l 1,11,-1
 60 -336 l 1,0,-1
EndSplineSet
EndChar

StartChar: radical
Encoding: 8730 8730 405
Width: 1288
GlyphClass: 2
Flags: W
LayerCount: 2
Fore
SplineSet
592 -156 m 1,0,-1
 271 682 l 1,1,-1
 102 654 l 1,2,-1
 76 811 l 1,3,-1
 396 871 l 1,4,-1
 627 236 l 1,5,-1
 659 134 l 1,6,7
 677 209 677 209 1040 1634 c 1,8,-1
 1214 1634 l 1,9,-1
 753 -156 l 1,10,-1
 592 -156 l 1,0,-1
EndSplineSet
EndChar

StartChar: infinity
Encoding: 8734 8734 406
Width: 1695
GlyphClass: 2
Flags: W
LayerCount: 2
Fore
SplineSet
470 241 m 0,0,1
 306 241 306 241 203.5 356.5 c 128,-1,2
 101 472 101 472 101 641 c 0,3,4
 101 796 101 796 208 895.5 c 128,-1,5
 315 995 315 995 487 995 c 0,6,7
 546 995 546 995 599.5 975 c 128,-1,8
 653 955 653 955 699 916 c 128,-1,9
 745 877 745 877 778 840 c 128,-1,10
 811 803 811 803 850 750 c 1,11,12
 889 804 889 804 923 842 c 128,-1,13
 957 880 957 880 1004 918.5 c 128,-1,14
 1051 957 1051 957 1108 976.5 c 128,-1,15
 1165 996 1165 996 1230 996 c 0,16,17
 1395 996 1395 996 1495 893 c 128,-1,18
 1595 790 1595 790 1595 624 c 0,19,20
 1595 459 1595 459 1490.5 350 c 128,-1,21
 1386 241 1386 241 1229 241 c 0,22,23
 1112 241 1112 241 1024 305.5 c 128,-1,24
 936 370 936 370 850 488 c 1,25,26
 810 434 810 434 775.5 395.5 c 128,-1,27
 741 357 741 357 693.5 319 c 128,-1,28
 646 281 646 281 589.5 261 c 128,-1,29
 533 241 533 241 470 241 c 0,0,1
1232 407 m 0,30,31
 1287 407 1287 407 1326 429.5 c 128,-1,32
 1365 452 1365 452 1384 490 c 128,-1,33
 1403 528 1403 528 1411 566.5 c 128,-1,34
 1419 605 1419 605 1419 647 c 0,35,36
 1416 731 1416 731 1364.5 783 c 128,-1,37
 1313 835 1313 835 1229 835 c 0,38,39
 1183 835 1183 835 1140.5 817 c 128,-1,40
 1098 799 1098 799 1061.5 765 c 128,-1,41
 1025 731 1025 731 998.5 698.5 c 128,-1,42
 972 666 972 666 942 621 c 1,43,44
 981 568 981 568 1006 537.5 c 128,-1,45
 1031 507 1031 507 1068.5 472.5 c 128,-1,46
 1106 438 1106 438 1146 422.5 c 128,-1,47
 1186 407 1186 407 1232 407 c 0,30,31
469 407 m 0,48,49
 515 407 515 407 557 424.5 c 128,-1,50
 599 442 599 442 635.5 475.5 c 128,-1,51
 672 509 672 509 698.5 541 c 128,-1,52
 725 573 725 573 756 618 c 1,53,54
 691 719 691 719 622.5 777 c 128,-1,55
 554 835 554 835 461 835 c 0,56,57
 370 835 370 835 318.5 775 c 128,-1,58
 267 715 267 715 267 621 c 0,59,60
 267 530 267 530 323 468.5 c 128,-1,61
 379 407 379 407 469 407 c 0,48,49
EndSplineSet
EndChar

StartChar: integral
Encoding: 8747 8747 407
Width: 760
GlyphClass: 2
Flags: W
LayerCount: 2
Fore
SplineSet
251 -407 m 0,0,1
 190 -407 190 -407 100 -380 c 1,2,-1
 97 -197 l 1,3,4
 105 -201 105 -201 154 -212.5 c 128,-1,5
 203 -224 203 -224 225 -224 c 0,6,7
 306 -224 306 -224 331.5 -180.5 c 128,-1,8
 357 -137 357 -137 357 -29 c 2,9,-1
 357 1272 l 2,10,11
 357 1340 357 1340 368 1398 c 128,-1,12
 379 1456 379 1456 404 1507 c 128,-1,13
 429 1558 429 1558 468 1593.5 c 128,-1,14
 507 1629 507 1629 565.5 1649.5 c 128,-1,15
 624 1670 624 1670 698 1670 c 0,16,17
 765 1670 765 1670 848 1645 c 1,18,-1
 851 1461 l 1,19,20
 837 1466 837 1466 790.5 1477 c 128,-1,21
 744 1488 744 1488 722 1488 c 0,22,23
 641 1488 641 1488 614.5 1444.5 c 128,-1,24
 588 1401 588 1401 588 1294 c 2,25,-1
 588 -9 l 2,26,27
 588 -95 588 -95 570.5 -164.5 c 128,-1,28
 553 -234 553 -234 515 -290 c 128,-1,29
 477 -346 477 -346 410 -376.5 c 128,-1,30
 343 -407 343 -407 251 -407 c 0,0,1
EndSplineSet
EndChar

StartChar: approxequal
Encoding: 8776 8776 408
Width: 1312
GlyphClass: 2
Flags: W
LayerCount: 2
Fore
SplineSet
223 102 m 1,0,-1
 134 229 l 1,1,2
 221 443 221 443 426 443 c 0,3,4
 536 443 536 443 693 372 c 0,5,6
 835 305 835 305 906 305 c 0,7,8
 967 305 967 305 1019 338 c 128,-1,9
 1071 371 1071 371 1133 447 c 1,10,-1
 1215 328 l 1,11,12
 1176 240 1176 240 1087.5 177 c 128,-1,13
 999 114 999 114 890 114 c 0,14,15
 822 114 822 114 762 133.5 c 128,-1,16
 702 153 702 153 614 197 c 0,17,18
 555 227 555 227 512 241 c 128,-1,19
 469 255 469 255 418 255 c 0,20,21
 294 255 294 255 223 102 c 1,0,-1
223 516 m 1,22,-1
 134 642 l 1,23,24
 219 856 219 856 426 856 c 0,25,26
 539 856 539 856 694 784 c 0,27,28
 827 719 827 719 906 719 c 0,29,30
 967 719 967 719 1019 751.5 c 128,-1,31
 1071 784 1071 784 1133 860 c 1,32,-1
 1214 742 l 1,33,34
 1176 654 1176 654 1087 591 c 128,-1,35
 998 528 998 528 889 528 c 0,36,37
 821 528 821 528 761 547.5 c 128,-1,38
 701 567 701 567 613 611 c 0,39,40
 556 640 556 640 512 654.5 c 128,-1,41
 468 669 468 669 417 669 c 0,42,43
 293 669 293 669 223 516 c 1,22,-1
EndSplineSet
EndChar

StartChar: notequal
Encoding: 8800 8800 409
Width: 1313
GlyphClass: 2
Flags: W
LayerCount: 2
Fore
SplineSet
462 44 m 1,0,-1
 299 68 l 1,1,-1
 421 313 l 1,2,-1
 154 313 l 1,3,-1
 144 480 l 1,4,-1
 503 480 l 1,5,-1
 624 723 l 1,6,-1
 154 723 l 1,7,-1
 142 892 l 1,8,-1
 702 892 l 1,9,-1
 839 1152 l 1,10,11
 1002 1130 1002 1130 1004 1130 c 2,12,-1
 885 891 l 1,13,-1
 1166 891 l 1,14,-1
 1180 722 l 1,15,-1
 805 722 l 1,16,-1
 682 479 l 1,17,-1
 1167 479 l 1,18,-1
 1180 312 l 1,19,-1
 601 312 l 1,20,-1
 462 44 l 1,0,-1
EndSplineSet
EndChar

StartChar: lessequal
Encoding: 8804 8804 410
Width: 1224
GlyphClass: 2
Flags: W
LayerCount: 2
Fore
SplineSet
1082 225 m 1,0,-1
 145 685 l 1,1,-1
 145 801 l 1,2,-1
 1082 1273 l 1,3,-1
 1082 1083 l 1,4,-1
 385 744 l 1,5,-1
 1082 415 l 1,6,-1
 1082 225 l 1,0,-1
138 2 m 1,7,-1
 138 157 l 1,8,-1
 1089 158 l 1,9,-1
 1089 2 l 1,10,-1
 138 2 l 1,7,-1
EndSplineSet
EndChar

StartChar: greaterequal
Encoding: 8805 8805 411
Width: 1224
GlyphClass: 2
Flags: W
LayerCount: 2
Fore
SplineSet
151 225 m 1,0,-1
 151 415 l 1,1,-1
 850 743 l 1,2,-1
 152 1084 l 1,3,-1
 152 1274 l 1,4,-1
 1090 801 l 1,5,-1
 1090 686 l 1,6,-1
 151 225 l 1,0,-1
145 2 m 1,7,-1
 145 158 l 1,8,-1
 1094 157 l 1,9,-1
 1094 2 l 1,10,-1
 145 2 l 1,7,-1
EndSplineSet
EndChar

StartChar: lozenge
Encoding: 9674 9674 412
Width: 1228
GlyphClass: 2
Flags: W
LayerCount: 2
Fore
SplineSet
547 -47 m 1,0,-1
 98 728 l 1,1,-1
 554 1505 l 1,2,-1
 684 1505 l 1,3,-1
 1135 729 l 1,4,-1
 675 -47 l 1,5,-1
 547 -47 l 1,0,-1
611 150 m 1,6,7
 669 257 669 257 780 451 c 128,-1,8
 891 645 891 645 937 729 c 1,9,10
 887 821 887 821 781 1014 c 128,-1,11
 675 1207 675 1207 621 1307 c 1,12,13
 562 1198 562 1198 450.5 1003 c 128,-1,14
 339 808 339 808 295 730 c 1,15,16
 431 477 431 477 611 150 c 1,6,7
EndSplineSet
EndChar

StartChar: uniFB00
Encoding: 64256 64256 413
Width: 1485
GlyphClass: 3
Flags: W
LayerCount: 2
Fore
SplineSet
203 0 m 1,0,-1
 203 925 l 1,1,-1
 29 925 l 1,2,-1
 46 1079 l 1,3,-1
 203 1099 l 1,4,-1
 203 1160 l 2,5,6
 203 1260 203 1260 221.5 1331 c 128,-1,7
 240 1402 240 1402 282 1452.5 c 128,-1,8
 324 1503 324 1503 394.5 1527.5 c 128,-1,9
 465 1552 465 1552 568 1552 c 0,10,11
 668 1552 668 1552 772 1533 c 1,12,-1
 749 1338 l 1,13,14
 667 1349 667 1349 620 1349 c 0,15,16
 536 1349 536 1349 500.5 1308.5 c 128,-1,17
 465 1268 465 1268 465 1174 c 2,18,-1
 465 1099 l 1,19,-1
 944 1099 l 1,20,-1
 944 1160 l 2,21,22
 944 1362 944 1362 1026.5 1457 c 128,-1,23
 1109 1552 1109 1552 1309 1552 c 0,24,25
 1407 1552 1407 1552 1513 1533 c 1,26,-1
 1490 1338 l 1,27,28
 1407 1349 1407 1349 1361 1349 c 0,29,30
 1276 1349 1276 1349 1241 1308.5 c 128,-1,31
 1206 1268 1206 1268 1206 1174 c 2,32,-1
 1206 1099 l 1,33,-1
 1463 1099 l 1,34,-1
 1463 925 l 1,35,-1
 1206 925 l 1,36,-1
 1206 0 l 1,37,-1
 944 0 l 1,38,-1
 944 925 l 1,39,-1
 465 925 l 1,40,-1
 465 0 l 1,41,-1
 203 0 l 1,0,-1
EndSplineSet
Ligature2: "'liga' Standard Ligatures lookup 0 subtable" f f
EndChar

StartChar: uniFB01
Encoding: 64257 64257 414
Width: 1183
GlyphClass: 3
Flags: W
LayerCount: 2
Fore
SplineSet
183 0 m 1,0,-1
 183 942 l 1,1,-1
 10 942 l 1,2,-1
 10 1098 l 1,3,-1
 183 1098 l 1,4,-1
 183 1131 l 2,5,6
 184 1206 184 1206 189.5 1258 c 128,-1,7
 195 1310 195 1310 210 1360 c 128,-1,8
 225 1410 225 1410 252 1441.5 c 128,-1,9
 279 1473 279 1473 322.5 1497.5 c 128,-1,10
 366 1522 366 1522 429 1533 c 128,-1,11
 492 1544 492 1544 577 1544 c 2,12,-1
 645 1544 l 1,13,-1
 667 1354 l 1,14,-1
 597 1354 l 2,15,16
 544 1354 544 1354 512.5 1344.5 c 128,-1,17
 481 1335 481 1335 464.5 1310.5 c 128,-1,18
 448 1286 448 1286 443 1254 c 128,-1,19
 438 1222 438 1222 438 1166 c 2,20,-1
 438 1098 l 1,21,-1
 1063 1098 l 1,22,-1
 1063 0 l 1,23,-1
 809 0 l 1,24,-1
 809 942 l 1,25,-1
 438 942 l 1,26,-1
 438 0 l 1,27,-1
 183 0 l 1,0,-1
809 1259 m 1,28,-1
 809 1483 l 1,29,-1
 1064 1483 l 1,30,-1
 1064 1259 l 1,31,-1
 809 1259 l 1,28,-1
EndSplineSet
Ligature2: "'liga' Standard Ligatures lookup 0 subtable" f i
EndChar

StartChar: uniFB02
Encoding: 64258 64258 415
Width: 1395
GlyphClass: 3
Flags: W
LayerCount: 2
Fore
SplineSet
1234 -13 m 0,0,1
 1168 -13 1168 -13 1116 -1.5 c 128,-1,2
 1064 10 1064 10 1027 29.5 c 128,-1,3
 990 49 990 49 963.5 82 c 128,-1,4
 937 115 937 115 920.5 151.5 c 128,-1,5
 904 188 904 188 895 240.5 c 128,-1,6
 886 293 886 293 882.5 344 c 128,-1,7
 879 395 879 395 879 464 c 2,8,-1
 879 1337 l 1,9,10
 869 1338 869 1338 821 1342.5 c 128,-1,11
 773 1347 773 1347 731 1349.5 c 128,-1,12
 689 1352 689 1352 650 1352 c 0,13,14
 526 1352 526 1352 482.5 1311 c 128,-1,15
 439 1270 439 1270 438 1166 c 2,16,-1
 438 1098 l 1,17,-1
 675 1098 l 1,18,-1
 675 942 l 1,19,-1
 438 942 l 1,20,-1
 438 0 l 1,21,-1
 183 0 l 1,22,-1
 183 942 l 1,23,-1
 10 942 l 1,24,-1
 10 1098 l 1,25,-1
 183 1098 l 1,26,-1
 183 1144 l 2,27,28
 185 1351 185 1351 284.5 1445.5 c 128,-1,29
 384 1540 384 1540 609 1540 c 0,30,31
 715 1540 715 1540 921 1518 c 128,-1,32
 1127 1496 1127 1496 1134 1496 c 1,33,-1
 1134 424 l 2,34,35
 1134 373 1134 373 1135.5 342.5 c 128,-1,36
 1137 312 1137 312 1143 281 c 128,-1,37
 1149 250 1149 250 1159.5 234 c 128,-1,38
 1170 218 1170 218 1189 204.5 c 128,-1,39
 1208 191 1208 191 1235.5 186 c 128,-1,40
 1263 181 1263 181 1302 181 c 0,41,42
 1314 181 1314 181 1366 185 c 1,43,-1
 1379 1 l 2,44,45
 1377 1 1377 1 1350.5 -3.5 c 128,-1,46
 1324 -8 1324 -8 1296 -10.5 c 128,-1,47
 1268 -13 1268 -13 1234 -13 c 0,0,1
EndSplineSet
Ligature2: "'liga' Standard Ligatures lookup 0 subtable" f l
EndChar
